Sura-Regular.ufo
<glyph name="quotedbl" format="1">
  <advance width="299"/>
  <unicode hex="0022"/>
  <outline>
    <contour>
      <point x="124" y="756" type="line"/>
      <point x="111" y="513" type="line"/>
      <point x="53" y="516" type="line"/>
      <point x="54" y="610" type="line"/>
      <point x="53" y="629"/>
      <point x="35" y="756"/>
      <point x="35" y="756" type="curve"/>
    </contour>
    <contour>
      <point x="264" y="756" type="line"/>
      <point x="251" y="513" type="line"/>
      <point x="193" y="516" type="line"/>
      <point x="194" y="610" type="line"/>
      <point x="193" y="629"/>
      <point x="175" y="756"/>
      <point x="175" y="756" type="curve"/>
    </contour>
  </outline>
</glyph>
<glyph name="percent" format="1">
  <advance width="785"/>
  <unicode hex="0025"/>
  <outline>
    <contour>
      <point x="341" y="493" type="line"/>
      <point x="341" y="590"/>
      <point x="288" y="666"/>
      <point x="191" y="666" type="curve"/>
      <point x="94" y="666"/>
      <point x="41" y="590"/>
      <point x="41" y="493" type="curve"/>
      <point x="41" y="395"/>
      <point x="94" y="319"/>
      <point x="191" y="319" type="curve" smooth="yes"/>
      <point x="288" y="319"/>
      <point x="341" y="395"/>
      <point x="341" y="492" type="curve"/>
    </contour>
    <contour>
      <point x="116" y="550"/>
      <point x="132" y="613"/>
      <point x="191" y="613" type="curve"/>
      <point x="250" y="613"/>
      <point x="266" y="550"/>
      <point x="266" y="493" type="curve"/>
      <point x="266" y="435"/>
      <point x="250" y="372"/>
      <point x="191" y="372" type="curve" smooth="yes"/>
      <point x="132" y="372"/>
      <point x="116" y="435"/>
      <point x="116" y="492" type="curve"/>
    </contour>
    <contour>
      <point x="723" y="163" type="line"/>
      <point x="723" y="260"/>
      <point x="670" y="336"/>
      <point x="573" y="336" type="curve"/>
      <point x="476" y="336"/>
      <point x="423" y="260"/>
      <point x="423" y="163" type="curve"/>
      <point x="423" y="65"/>
      <point x="476" y="-11"/>
      <point x="573" y="-11" type="curve" smooth="yes"/>
      <point x="670" y="-11"/>
      <point x="723" y="65"/>
      <point x="723" y="162" type="curve"/>
    </contour>
    <contour>
      <point x="498" y="220"/>
      <point x="514" y="283"/>
      <point x="573" y="283" type="curve"/>
      <point x="632" y="283"/>
      <point x="648" y="220"/>
      <point x="648" y="163" type="curve"/>
      <point x="648" y="105"/>
      <point x="632" y="42"/>
      <point x="573" y="42" type="curve" smooth="yes"/>
      <point x="514" y="42"/>
      <point x="498" y="105"/>
      <point x="498" y="162" type="curve"/>
    </contour>
    <contour>
      <point x="195" y="-49" type="line"/>
      <point x="628" y="689" type="line"/>
      <point x="578" y="721" type="line"/>
      <point x="144" y="-17" type="line"/>
    </contour>
  </outline>
</glyph>
<glyph name="plus" format="1">
  <advance width="560"/>
  <unicode hex="002B"/>
  <outline>
    <contour>
      <point x="22" y="218" type="line"/>
      <point x="22" y="293" type="line"/>
      <point x="537" y="293" type="line"/>
      <point x="537" y="223" type="line"/>
    </contour>
    <contour>
      <point x="317" y="0" type="line"/>
      <point x="242" y="0" type="line"/>
      <point x="242" y="511" type="line"/>
      <point x="312" y="511" type="line"/>
    </contour>
  </outline>
</glyph>
<glyph name="seven" format="1">
  <advance width="506"/>
  <unicode hex="0037"/>
  <outline>
    <contour>
      <point x="69" y="641" type="line"/>
      <point x="60" y="493" type="line"/>
      <point x="115" y="489" type="line"/>
      <point x="120" y="539" type="line"/>
      <point x="121" y="545"/>
      <point x="127" y="559"/>
      <point x="134" y="573" type="curve"/>
      <point x="155" y="575"/>
      <point x="204" y="579"/>
      <point x="219" y="579" type="curve" smooth="yes"/>
      <point x="387" y="579" type="line"/>
      <point x="374" y="529"/>
      <point x="352" y="442"/>
      <point x="343" y="422" type="curve" smooth="yes"/>
      <point x="129" y="-80" type="line"/>
      <point x="207" y="-105" type="line"/>
      <point x="493" y="613" type="line"/>
      <point x="477" y="652" type="line"/>
      <point x="210" y="652" type="line" smooth="yes"/>
      <point x="186" y="652"/>
      <point x="88" y="661"/>
      <point x="88" y="661" type="curve"/>
    </contour>
  </outline>
</glyph>
<glyph name="semicolon" format="1">
  <advance width="220"/>
  <unicode hex="003B"/>
  <outline>
    <contour>
      <point x="148" y="472"/>
      <point x="170" y="448"/>
      <point x="170" y="407" type="curve" smooth="yes"/>
      <point x="170" y="369"/>
      <point x="149" y="343"/>
      <point x="111" y="343" type="curve" smooth="yes"/>
      <point x="73" y="343"/>
      <point x="52" y="369"/>
      <point x="52" y="407" type="curve" smooth="yes"/>
      <point x="52" y="445"/>
      <point x="73" y="472"/>
      <point x="111" y="472" type="curve" smooth="yes"/>
    </contour>
    <contour>
      <point x="69" y="-7"/>
      <point x="50" y="24"/>
      <point x="50" y="60" type="curve" smooth="yes"/>
      <point x="50" y="99"/>
      <point x="73" y="129"/>
      <point x="112" y="129" type="curve" smooth="yes"/>
      <point x="159" y="129"/>
      <point x="175" y="87"/>
      <point x="175" y="40" type="curve" smooth="yes"/>
      <point x="175" y="-34"/>
      <point x="132" y="-117"/>
      <point x="44" y="-136" type="curve"/>
      <point x="34" y="-104" type="line"/>
      <point x="77" y="-86"/>
      <point x="105" y="-52"/>
      <point x="105" y="-10" type="curve"/>
    </contour>
  </outline>
</glyph>
<glyph name="less" format="1">
  <advance width="560"/>
  <unicode hex="003C"/>
  <outline>
    <contour>
      <point x="404" y="513" type="line"/>
      <point x="457" y="460" type="line"/>
      <point x="204" y="248" type="line"/>
      <point x="458" y="38" type="line"/>
      <point x="405" y="-15" type="line"/>
      <point x="102" y="247" type="line"/>
    </contour>
  </outline>
</glyph>
<glyph name="F" format="1">
  <advance width="551"/>
  <unicode hex="0046"/>
  <outline>
    <contour>
      <point x="39" y="656" type="line"/>
      <point x="116" y="644" type="line"/>
      <point x="118" y="631"/>
      <point x="125" y="585"/>
      <point x="125" y="568" type="curve" smooth="yes"/>
      <point x="125" y="137" type="line" smooth="yes"/>
      <point x="125" y="120"/>
      <point x="118" y="74"/>
      <point x="116" y="61" type="curve"/>
      <point x="37" y="45" type="line"/>
      <point x="42" y="-5" type="line"/>
      <point x="42" y="-5"/>
      <point x="152" y="0"/>
      <point x="177" y="0" type="curve" smooth="yes"/>
      <point x="257" y="0"/>
      <point x="316" y="0"/>
      <point x="316" y="0" type="curve"/>
      <point x="323" y="54" type="line"/>
      <point x="223" y="61" type="line"/>
      <point x="221" y="75"/>
      <point x="216" y="125"/>
      <point x="216" y="167" type="curve" smooth="yes"/>
      <point x="216" y="330" type="line"/>
      <point x="312" y="330" type="line"/>
      <point x="332" y="330"/>
      <point x="392" y="324"/>
      <point x="392" y="324" type="curve"/>
      <point x="401" y="257" type="line"/>
      <point x="449" y="263" type="line"/>
      <point x="449" y="263"/>
      <point x="446" y="322"/>
      <point x="446" y="372" type="curve" smooth="yes"/>
      <point x="446" y="392"/>
      <point x="447" y="456"/>
      <point x="447" y="456" type="curve"/>
      <point x="401" y="461" type="line"/>
      <point x="392" y="395" type="line"/>
      <point x="392" y="395"/>
      <point x="352" y="386"/>
      <point x="332" y="386" type="curve"/>
      <point x="216" y="386" type="line"/>
      <point x="216" y="538" type="line" smooth="yes"/>
      <point x="216" y="577"/>
      <point x="221" y="628"/>
      <point x="223" y="649" type="curve"/>
      <point x="354" y="649" type="line" smooth="yes"/>
      <point x="382" y="649"/>
      <point x="413" y="646"/>
      <point x="435" y="644" type="curve"/>
      <point x="445" y="631"/>
      <point x="454" y="617"/>
      <point x="455" y="610" type="curve"/>
      <point x="459" y="595"/>
      <point x="464" y="572"/>
      <point x="466" y="556" type="curve"/>
      <point x="524" y="561" type="line"/>
      <point x="517" y="692" type="line"/>
      <point x="498" y="710" type="line"/>
      <point x="498" y="710"/>
      <point x="404" y="705"/>
      <point x="384" y="705" type="curve" smooth="yes"/>
      <point x="159" y="705" type="line" smooth="yes"/>
      <point x="139" y="705"/>
      <point x="44" y="710"/>
      <point x="44" y="710" type="curve"/>
    </contour>
  </outline>
</glyph>
<glyph name="H" format="1">
  <advance width="765"/>
  <unicode hex="0048"/>
  <outline>
    <contour>
      <point x="552" y="383" type="line"/>
      <point x="211" y="378" type="line"/>
      <point x="211" y="327" type="line"/>
      <point x="552" y="327" type="line"/>
    </contour>
    <contour>
      <point x="297" y="710" type="line"/>
      <point x="297" y="710"/>
      <point x="219" y="705"/>
      <point x="159" y="705" type="curve" smooth="yes"/>
      <point x="139" y="705"/>
      <point x="44" y="710"/>
      <point x="44" y="710" type="curve"/>
      <point x="39" y="656" type="line"/>
      <point x="116" y="644" type="line"/>
      <point x="118" y="631"/>
      <point x="125" y="585"/>
      <point x="125" y="568" type="curve" smooth="yes"/>
      <point x="125" y="137" type="line" smooth="yes"/>
      <point x="125" y="120"/>
      <point x="118" y="74"/>
      <point x="116" y="61" type="curve"/>
      <point x="37" y="45" type="line"/>
      <point x="42" y="-5" type="line"/>
      <point x="42" y="-5"/>
      <point x="152" y="0"/>
      <point x="177" y="0" type="curve"/>
      <point x="306" y="0" type="line"/>
      <point x="313" y="54" type="line"/>
      <point x="223" y="61" type="line"/>
      <point x="221" y="75"/>
      <point x="216" y="125"/>
      <point x="216" y="167" type="curve" smooth="yes"/>
      <point x="216" y="538" type="line" smooth="yes"/>
      <point x="216" y="580"/>
      <point x="221" y="630"/>
      <point x="223" y="644" type="curve"/>
      <point x="301" y="651" type="line"/>
    </contour>
    <contour>
      <point x="719" y="710" type="line"/>
      <point x="719" y="710"/>
      <point x="641" y="705"/>
      <point x="581" y="705" type="curve" smooth="yes"/>
      <point x="561" y="705"/>
      <point x="466" y="710"/>
      <point x="466" y="710" type="curve"/>
      <point x="461" y="656" type="line"/>
      <point x="538" y="644" type="line"/>
      <point x="540" y="631"/>
      <point x="547" y="585"/>
      <point x="547" y="568" type="curve" smooth="yes"/>
      <point x="547" y="137" type="line" smooth="yes"/>
      <point x="547" y="120"/>
      <point x="540" y="74"/>
      <point x="538" y="61" type="curve"/>
      <point x="459" y="45" type="line"/>
      <point x="464" y="-5" type="line"/>
      <point x="464" y="-5"/>
      <point x="574" y="0"/>
      <point x="599" y="0" type="curve"/>
      <point x="728" y="0" type="line"/>
      <point x="735" y="54" type="line"/>
      <point x="645" y="61" type="line"/>
      <point x="643" y="75"/>
      <point x="638" y="125"/>
      <point x="638" y="167" type="curve" smooth="yes"/>
      <point x="638" y="538" type="line" smooth="yes"/>
      <point x="638" y="580"/>
      <point x="643" y="630"/>
      <point x="645" y="644" type="curve"/>
      <point x="723" y="651" type="line"/>
    </contour>
    <contour>
      <point x="382" y="353" type="move" name="center"/>
    </contour>
    <contour>
      <point x="382" y="705" type="move" name="top"/>
    </contour>
  </outline>
</glyph>
<glyph name="K" format="1">
  <advance width="688"/>
  <unicode hex="004B"/>
  <outline>
    <contour>
      <point x="473" y="705"/>
      <point x="398" y="710"/>
      <point x="398" y="710" type="curve"/>
      <point x="393" y="656" type="line"/>
      <point x="447" y="645" type="line"/>
      <point x="408" y="577" type="line"/>
      <point x="226" y="353" type="line"/>
      <point x="226" y="353"/>
      <point x="370" y="188"/>
      <point x="391" y="164" type="curve"/>
      <point x="408" y="142"/>
      <point x="445" y="85"/>
      <point x="461" y="59" type="curve"/>
      <point x="402" y="45" type="line"/>
      <point x="407" y="-5" type="line"/>
      <point x="407" y="-5"/>
      <point x="520" y="0"/>
      <point x="545" y="0" type="curve"/>
      <point x="676" y="0" type="line"/>
      <point x="683" y="54" type="line"/>
      <point x="613" y="61" type="line"/>
      <point x="589" y="81"/>
      <point x="551" y="113"/>
      <point x="536" y="129" type="curve"/>
      <point x="467" y="209"/>
      <point x="395" y="290"/>
      <point x="325" y="370" type="curve"/>
      <point x="457" y="546" type="line"/>
      <point x="487" y="576"/>
      <point x="533" y="620"/>
      <point x="559" y="644" type="curve"/>
      <point x="635" y="651" type="line"/>
      <point x="631" y="710" type="line"/>
      <point x="631" y="710"/>
      <point x="553" y="705"/>
      <point x="493" y="705" type="curve" smooth="yes"/>
    </contour>
    <contour>
      <point x="297" y="710" type="line"/>
      <point x="297" y="710"/>
      <point x="219" y="705"/>
      <point x="159" y="705" type="curve" smooth="yes"/>
      <point x="139" y="705"/>
      <point x="44" y="710"/>
      <point x="44" y="710" type="curve"/>
      <point x="39" y="656" type="line"/>
      <point x="116" y="644" type="line"/>
      <point x="118" y="631"/>
      <point x="125" y="585"/>
      <point x="125" y="568" type="curve" smooth="yes"/>
      <point x="125" y="137" type="line" smooth="yes"/>
      <point x="125" y="120"/>
      <point x="118" y="74"/>
      <point x="116" y="61" type="curve"/>
      <point x="37" y="45" type="line"/>
      <point x="42" y="-5" type="line"/>
      <point x="42" y="-5"/>
      <point x="152" y="0"/>
      <point x="177" y="0" type="curve"/>
      <point x="306" y="0" type="line"/>
      <point x="313" y="54" type="line"/>
      <point x="223" y="61" type="line"/>
      <point x="221" y="75"/>
      <point x="216" y="125"/>
      <point x="216" y="167" type="curve" smooth="yes"/>
      <point x="216" y="538" type="line" smooth="yes"/>
      <point x="216" y="580"/>
      <point x="221" y="630"/>
      <point x="223" y="644" type="curve"/>
      <point x="301" y="651" type="line"/>
    </contour>
    <contour>
      <point x="344" y="705" type="move" name="top"/>
    </contour>
    <contour>
      <point x="344" y="0" type="move" name="bottom"/>
    </contour>
  </outline>
</glyph>
<glyph name="M" format="1">
  <advance width="928"/>
  <unicode hex="004D"/>
  <outline>
    <contour>
      <point x="674" y="705" type="line"/>
      <point x="654" y="685" type="line"/>
      <point x="654" y="685"/>
      <point x="611" y="559"/>
      <point x="601" y="537" type="curve"/>
      <point x="465" y="175" type="line"/>
      <point x="332" y="529" type="line"/>
      <point x="323" y="553"/>
      <point x="280" y="685"/>
      <point x="280" y="685" type="curve"/>
      <point x="261" y="706" type="line"/>
      <point x="205" y="706" type="line"/>
      <point x="185" y="705"/>
      <point x="67" y="710"/>
      <point x="67" y="710" type="curve"/>
      <point x="62" y="656" type="line"/>
      <point x="144" y="644" type="line"/>
      <point x="146" y="630"/>
      <point x="148" y="586"/>
      <point x="148" y="569" type="curve"/>
      <point x="122" y="132" type="line"/>
      <point x="119" y="115"/>
      <point x="108" y="74"/>
      <point x="105" y="61" type="curve"/>
      <point x="27" y="45" type="line"/>
      <point x="32" y="-5" type="line"/>
      <point x="32" y="-5"/>
      <point x="120" y="0"/>
      <point x="139" y="0" type="curve" smooth="yes"/>
      <point x="217" y="0"/>
      <point x="268" y="-5"/>
      <point x="268" y="-5" type="curve"/>
      <point x="275" y="54" type="line"/>
      <point x="194" y="61" type="line"/>
      <point x="193" y="77"/>
      <point x="189" y="134"/>
      <point x="189" y="162" type="curve"/>
      <point x="213" y="584" type="line"/>
      <point x="432" y="0" type="line"/>
      <point x="468" y="0" type="line"/>
      <point x="687" y="584" type="line"/>
      <point x="714" y="162" type="line"/>
      <point x="714" y="134"/>
      <point x="710" y="76"/>
      <point x="709" y="61" type="curve"/>
      <point x="631" y="45" type="line"/>
      <point x="636" y="-5" type="line"/>
      <point x="636" y="-5"/>
      <point x="736" y="0"/>
      <point x="755" y="0" type="curve" smooth="yes"/>
      <point x="835" y="0"/>
      <point x="901" y="-5"/>
      <point x="901" y="-5" type="curve"/>
      <point x="907" y="54" type="line"/>
      <point x="826" y="61" type="line"/>
      <point x="823" y="74"/>
      <point x="813" y="115"/>
      <point x="810" y="132" type="curve"/>
      <point x="776" y="569" type="line"/>
      <point x="776" y="586"/>
      <point x="777" y="632"/>
      <point x="779" y="644" type="curve"/>
      <point x="859" y="651" type="line"/>
      <point x="855" y="710" type="line"/>
      <point x="855" y="710"/>
      <point x="780" y="705"/>
      <point x="700" y="705" type="curve" smooth="yes"/>
    </contour>
  </outline>
</glyph>
<glyph name="Q" format="1">
  <advance width="700"/>
  <unicode hex="0051"/>
  <outline>
    <contour>
      <point x="646" y="-224" type="line"/>
      <point x="705" y="-132" type="line"/>
      <point x="705" y="-132"/>
      <point x="563" y="-71"/>
      <point x="547" y="-60" type="curve" smooth="yes"/>
      <point x="460" y="1" type="line"/>
      <point x="384" y="-13" type="line"/>
    </contour>
    <contour>
      <point x="675" y="570"/>
      <point x="564" y="720"/>
      <point x="347" y="720" type="curve" smooth="yes"/>
      <point x="130" y="720"/>
      <point x="19" y="570"/>
      <point x="19" y="352" type="curve" smooth="yes"/>
      <point x="19" y="135"/>
      <point x="130" y="-15"/>
      <point x="347" y="-15" type="curve" smooth="yes"/>
      <point x="564" y="-15"/>
      <point x="675" y="135"/>
      <point x="675" y="352" type="curve" smooth="yes"/>
    </contour>
    <contour>
      <point x="126" y="527"/>
      <point x="198" y="667"/>
      <point x="347" y="667" type="curve" smooth="yes"/>
      <point x="496" y="667"/>
      <point x="568" y="527"/>
      <point x="568" y="352" type="curve" smooth="yes"/>
      <point x="568" y="178"/>
      <point x="496" y="38"/>
      <point x="347" y="38" type="curve" smooth="yes"/>
      <point x="198" y="38"/>
      <point x="126" y="178"/>
      <point x="126" y="352" type="curve" smooth="yes"/>
    </contour>
  </outline>
</glyph>
<glyph name="U" format="1">
  <advance width="727"/>
  <unicode hex="0055"/>
  <outline>
    <contour>
      <point x="704" y="710" type="line"/>
      <point x="704" y="710"/>
      <point x="653" y="705"/>
      <point x="573" y="705" type="curve" smooth="yes"/>
      <point x="553" y="705"/>
      <point x="467" y="710"/>
      <point x="467" y="710" type="curve"/>
      <point x="462" y="656" type="line"/>
      <point x="540" y="644" type="line"/>
      <point x="542" y="630"/>
      <point x="550" y="580"/>
      <point x="550" y="563" type="curve" smooth="yes"/>
      <point x="550" y="266" type="line" smooth="yes"/>
      <point x="550" y="140"/>
      <point x="492" y="49"/>
      <point x="372" y="49" type="curve" smooth="yes"/>
      <point x="257" y="49"/>
      <point x="200" y="139"/>
      <point x="200" y="266" type="curve" smooth="yes"/>
      <point x="200" y="533" type="line" smooth="yes"/>
      <point x="200" y="576"/>
      <point x="205" y="629"/>
      <point x="207" y="644" type="curve"/>
      <point x="286" y="651" type="line"/>
      <point x="282" y="710" type="line"/>
      <point x="282" y="710"/>
      <point x="218" y="705"/>
      <point x="138" y="705" type="curve" smooth="yes"/>
      <point x="118" y="705"/>
      <point x="22" y="710"/>
      <point x="22" y="710" type="curve"/>
      <point x="17" y="656" type="line"/>
      <point x="96" y="644" type="line"/>
      <point x="98" y="629"/>
      <point x="105" y="580"/>
      <point x="105" y="563" type="curve" smooth="yes"/>
      <point x="105" y="266" type="line" smooth="yes"/>
      <point x="105" y="95"/>
      <point x="192" y="-15"/>
      <point x="363" y="-15" type="curve" smooth="yes"/>
      <point x="534" y="-15"/>
      <point x="622" y="95"/>
      <point x="622" y="266" type="curve" smooth="yes"/>
      <point x="622" y="533" type="line" smooth="yes"/>
      <point x="622" y="576"/>
      <point x="627" y="629"/>
      <point x="629" y="644" type="curve"/>
      <point x="708" y="651" type="line"/>
    </contour>
    <contour>
      <point x="548" y="10" type="move" name="ogonek"/>
    </contour>
    <contour>
      <point x="365" y="705" type="move" name="top"/>
    </contour>
    <contour>
      <point x="665" y="689" type="move" name="horn"/>
    </contour>
    <contour>
      <point x="370" y="0" type="move" name="bottom"/>
    </contour>
  </outline>
</glyph>
<glyph name="V" format="1">
  <advance width="700"/>
  <unicode hex="0056"/>
  <outline>
    <contour>
      <point x="329" y="0" type="line"/>
      <point x="390" y="0" type="line"/>
      <point x="580" y="545" type="line"/>
      <point x="599" y="599"/>
      <point x="626" y="644"/>
      <point x="626" y="644" type="curve"/>
      <point x="695" y="651" type="line"/>
      <point x="691" y="710" type="line"/>
      <point x="691" y="710"/>
      <point x="597" y="705"/>
      <point x="547" y="705" type="curve" smooth="yes"/>
      <point x="527" y="705"/>
      <point x="457" y="710"/>
      <point x="457" y="710" type="curve"/>
      <point x="452" y="656" type="line"/>
      <point x="528" y="641" type="line"/>
      <point x="528" y="641"/>
      <point x="524" y="599"/>
      <point x="517" y="578" type="curve" smooth="yes"/>
      <point x="368" y="148" type="line"/>
      <point x="221" y="533" type="line"/>
      <point x="199" y="590"/>
      <point x="191" y="641"/>
      <point x="191" y="641" type="curve"/>
      <point x="270" y="651" type="line"/>
      <point x="266" y="710" type="line"/>
      <point x="266" y="710"/>
      <point x="185" y="705"/>
      <point x="125" y="705" type="curve" smooth="yes"/>
      <point x="105" y="705"/>
      <point x="10" y="710"/>
      <point x="10" y="710" type="curve"/>
      <point x="5" y="656" type="line"/>
      <point x="71" y="641" type="line"/>
      <point x="71" y="641"/>
      <point x="100" y="593"/>
      <point x="114" y="556" type="curve" smooth="yes"/>
    </contour>
  </outline>
</glyph>
<glyph name="X" format="1">
  <advance width="711"/>
  <unicode hex="0058"/>
  <outline>
    <contour>
      <point x="604" y="86"/>
      <point x="577" y="116"/>
      <point x="564" y="132" type="curve"/>
      <point x="395" y="368" type="line"/>
      <point x="524" y="569" type="line"/>
      <point x="539" y="588"/>
      <point x="581" y="623"/>
      <point x="604" y="644" type="curve"/>
      <point x="673" y="651" type="line"/>
      <point x="669" y="710" type="line"/>
      <point x="669" y="710"/>
      <point x="565" y="705"/>
      <point x="515" y="705" type="curve" smooth="yes"/>
      <point x="495" y="705"/>
      <point x="415" y="710"/>
      <point x="415" y="710" type="curve"/>
      <point x="410" y="656" type="line"/>
      <point x="486" y="641" type="line"/>
      <point x="475" y="619"/>
      <point x="462" y="593"/>
      <point x="453" y="578" type="curve" smooth="yes"/>
      <point x="356" y="422" type="line"/>
      <point x="261" y="555" type="line"/>
      <point x="247" y="574"/>
      <point x="230" y="617"/>
      <point x="220" y="641" type="curve"/>
      <point x="299" y="651" type="line"/>
      <point x="295" y="710" type="line"/>
      <point x="295" y="710"/>
      <point x="206" y="705"/>
      <point x="146" y="705" type="curve" smooth="yes"/>
      <point x="126" y="705"/>
      <point x="31" y="710"/>
      <point x="31" y="710" type="curve"/>
      <point x="26" y="656" type="line"/>
      <point x="92" y="641" type="line"/>
      <point x="109" y="619"/>
      <point x="140" y="578"/>
      <point x="154" y="558" type="curve" smooth="yes"/>
      <point x="298" y="355" type="line"/>
      <point x="167" y="164" type="line" smooth="yes"/>
      <point x="150" y="140"/>
      <point x="97" y="86"/>
      <point x="73" y="61" type="curve"/>
      <point x="10" y="44" type="line"/>
      <point x="14" y="-5" type="line"/>
      <point x="14" y="-5"/>
      <point x="134" y="0"/>
      <point x="159" y="0" type="curve"/>
      <point x="255" y="0" type="line"/>
      <point x="260" y="54" type="line"/>
      <point x="187" y="64" type="line"/>
      <point x="198" y="87"/>
      <point x="212" y="116"/>
      <point x="222" y="132" type="curve" smooth="yes"/>
      <point x="336" y="301" type="line"/>
      <point x="449" y="142" type="line"/>
      <point x="463" y="124"/>
      <point x="482" y="89"/>
      <point x="494" y="62" type="curve"/>
      <point x="428" y="44" type="line"/>
      <point x="432" y="-5" type="line"/>
      <point x="432" y="-5"/>
      <point x="554" y="0"/>
      <point x="585" y="0" type="curve"/>
      <point x="696" y="0" type="line"/>
      <point x="701" y="54" type="line"/>
      <point x="625" y="64" type="line"/>
    </contour>
  </outline>
</glyph>
<glyph name="bracketleft" format="1">
  <advance width="265"/>
  <unicode hex="005B"/>
  <outline>
    <contour>
      <point x="85" y="551" type="line"/>
      <point x="85" y="571"/>
      <point x="75" y="743"/>
      <point x="75" y="743" type="curve"/>
      <point x="94" y="762" type="line"/>
      <point x="163" y="762"/>
      <point x="252" y="766"/>
      <point x="252" y="766" type="curve"/>
      <point x="255" y="723" type="line"/>
      <point x="171" y="711" type="line"/>
      <point x="171" y="711"/>
      <point x="157" y="651"/>
      <point x="157" y="601" type="curve"/>
      <point x="157" y="40" type="line"/>
      <point x="157" y="-10"/>
      <point x="171" y="-70"/>
      <point x="171" y="-70" type="curve"/>
      <point x="255" y="-82" type="line"/>
      <point x="252" y="-125" type="line"/>
      <point x="252" y="-125"/>
      <point x="163" y="-121"/>
      <point x="94" y="-121" type="curve"/>
      <point x="75" y="-102" type="line"/>
      <point x="75" y="-102"/>
      <point x="85" y="70"/>
      <point x="85" y="90" type="curve"/>
    </contour>
  </outline>
</glyph>
<glyph name="backslash" format="1">
  <advance width="398"/>
  <unicode hex="005C"/>
  <outline>
    <contour>
      <point x="317" y="-67" type="line"/>
      <point x="7" y="753" type="line"/>
      <point x="70" y="773" type="line"/>
      <point x="381" y="-47" type="line"/>
    </contour>
  </outline>
</glyph>
<glyph name="grave" format="1">
  <advance width="360"/>
  <unicode hex="0060"/>
  <outline>
    <contour>
      <point x="264" y="564" type="line"/>
      <point x="293" y="600" type="line"/>
      <point x="113" y="750" type="line"/>
      <point x="70" y="695" type="line"/>
    </contour>
    <contour>
      <point x="198" y="494" type="move" name="_top"/>
    </contour>
  </outline>
</glyph>
<glyph name="b" format="1">
  <advance width="554"/>
  <unicode hex="0062"/>
  <outline>
    <contour>
      <point x="10" y="707" type="line"/>
      <point x="86" y="691" type="line"/>
      <point x="86" y="691"/>
      <point x="96" y="635"/>
      <point x="96" y="615" type="curve" smooth="yes"/>
      <point x="96" y="137" type="line" smooth="yes"/>
      <point x="96" y="117"/>
      <point x="88" y="26"/>
      <point x="88" y="26" type="curve"/>
      <point x="134" y="9"/>
      <point x="202" y="-10"/>
      <point x="284" y="-10" type="curve" smooth="yes"/>
      <point x="427" y="-10"/>
      <point x="514" y="113"/>
      <point x="514" y="256" type="curve" smooth="yes"/>
      <point x="514" y="394"/>
      <point x="449" y="503"/>
      <point x="316" y="503" type="curve" smooth="yes"/>
      <point x="247" y="503"/>
      <point x="202" y="465"/>
      <point x="177" y="427" type="curve"/>
      <point x="177" y="585" type="line" smooth="yes"/>
      <point x="177" y="635"/>
      <point x="184" y="738"/>
      <point x="184" y="738" type="curve"/>
      <point x="165" y="756" type="line"/>
      <point x="107" y="756" type="line" smooth="yes"/>
      <point x="87" y="756"/>
      <point x="15" y="760"/>
      <point x="15" y="760" type="curve"/>
    </contour>
    <contour>
      <point x="396" y="442"/>
      <point x="422" y="353"/>
      <point x="422" y="254" type="curve" smooth="yes"/>
      <point x="422" y="144"/>
      <point x="386" y="46"/>
      <point x="278" y="46" type="curve" smooth="yes"/>
      <point x="243" y="46"/>
      <point x="211" y="51"/>
      <point x="184" y="58" type="curve"/>
      <point x="182" y="71"/>
      <point x="177" y="123"/>
      <point x="177" y="167" type="curve" smooth="yes"/>
      <point x="177" y="274" type="line" smooth="yes"/>
      <point x="177" y="357"/>
      <point x="217" y="442"/>
      <point x="301" y="442" type="curve" smooth="yes"/>
    </contour>
  </outline>
</glyph>
<glyph name="g" format="1">
  <advance width="505"/>
  <unicode hex="0067"/>
  <outline>
    <contour>
      <point x="474" y="440" type="line"/>
      <point x="474" y="498" type="line"/>
      <point x="352" y="479" type="line"/>
      <point x="322" y="494"/>
      <point x="287" y="503"/>
      <point x="247" y="503" type="curve" smooth="yes"/>
      <point x="131" y="503"/>
      <point x="54" y="431"/>
      <point x="54" y="322" type="curve" smooth="yes"/>
      <point x="54" y="250"/>
      <point x="88" y="194"/>
      <point x="144" y="164" type="curve"/>
      <point x="95" y="123"/>
      <point x="72" y="98"/>
      <point x="72" y="84" type="curve" smooth="yes"/>
      <point x="72" y="49"/>
      <point x="87" y="26"/>
      <point x="123" y="11" type="curve"/>
      <point x="70" y="-31"/>
      <point x="32" y="-72"/>
      <point x="32" y="-90" type="curve" smooth="yes"/>
      <point x="32" y="-185"/>
      <point x="100" y="-235"/>
      <point x="230" y="-235" type="curve" smooth="yes"/>
      <point x="370" y="-235"/>
      <point x="484" y="-149"/>
      <point x="484" y="-44" type="curve" smooth="yes"/>
      <point x="484" y="4"/>
      <point x="468" y="34"/>
      <point x="439" y="43" type="curve" smooth="yes"/>
      <point x="401" y="55"/>
      <point x="314" y="64"/>
      <point x="246" y="73" type="curve" smooth="yes"/>
      <point x="171" y="82"/>
      <point x="152" y="88"/>
      <point x="152" y="108" type="curve" smooth="yes"/>
      <point x="152" y="114"/>
      <point x="160" y="128"/>
      <point x="179" y="150" type="curve"/>
      <point x="200" y="144"/>
      <point x="222" y="141"/>
      <point x="247" y="141" type="curve" smooth="yes"/>
      <point x="363" y="141"/>
      <point x="440" y="213"/>
      <point x="440" y="322" type="curve" smooth="yes"/>
      <point x="440" y="372"/>
      <point x="424" y="415"/>
      <point x="394" y="446" type="curve"/>
    </contour>
    <contour>
      <point x="180" y="-6"/>
      <point x="203" y="-10"/>
      <point x="230" y="-13" type="curve" smooth="yes"/>
      <point x="360" y="-30" type="line" smooth="yes"/>
      <point x="390" y="-34"/>
      <point x="399" y="-45"/>
      <point x="399" y="-75" type="curve" smooth="yes"/>
      <point x="399" y="-136"/>
      <point x="340" y="-178"/>
      <point x="258" y="-178" type="curve" smooth="yes"/>
      <point x="162" y="-178"/>
      <point x="118" y="-147"/>
      <point x="118" y="-79" type="curve" smooth="yes"/>
      <point x="118" y="-60"/>
      <point x="126" y="-44"/>
      <point x="161" y="-1" type="curve"/>
    </contour>
    <contour>
      <point x="318" y="452"/>
      <point x="353" y="409"/>
      <point x="353" y="322" type="curve" smooth="yes"/>
      <point x="353" y="235"/>
      <point x="318" y="192"/>
      <point x="247" y="192" type="curve" smooth="yes"/>
      <point x="176" y="192"/>
      <point x="141" y="235"/>
      <point x="141" y="322" type="curve" smooth="yes"/>
      <point x="141" y="408"/>
      <point x="177" y="452"/>
      <point x="247" y="452" type="curve" smooth="yes"/>
    </contour>
    <contour>
      <point x="253" y="494" type="move" name="top"/>
    </contour>
  </outline>
</glyph>
<glyph name="j" format="1">
  <advance width="262"/>
  <unicode hex="006A"/>
  <outline>
    <contour>
      <point x="90" y="720"/>
      <point x="69" y="693"/>
      <point x="69" y="655" type="curve" smooth="yes"/>
      <point x="69" y="617"/>
      <point x="90" y="591"/>
      <point x="128" y="591" type="curve" smooth="yes"/>
      <point x="166" y="591"/>
      <point x="187" y="617"/>
      <point x="187" y="655" type="curve" smooth="yes"/>
      <point x="187" y="696"/>
      <point x="165" y="720"/>
      <point x="128" y="720" type="curve" smooth="yes"/>
    </contour>
    <contour>
      <point x="11" y="445" type="line"/>
      <point x="87" y="429" type="line"/>
      <point x="87" y="429"/>
      <point x="97" y="373"/>
      <point x="97" y="353" type="curve" smooth="yes"/>
      <point x="97" y="117" type="line" smooth="yes"/>
      <point x="97" y="67"/>
      <point x="97" y="21"/>
      <point x="97" y="21" type="curve"/>
      <point x="97" y="-19"/>
      <point x="21" y="-214"/>
      <point x="21" y="-214" type="curve"/>
      <point x="57" y="-235" type="line"/>
      <point x="57" y="-235"/>
      <point x="178" y="-50"/>
      <point x="178" y="-10" type="curve" smooth="yes"/>
      <point x="178" y="323" type="line" smooth="yes"/>
      <point x="178" y="373"/>
      <point x="185" y="476"/>
      <point x="185" y="476" type="curve"/>
      <point x="166" y="494" type="line"/>
      <point x="108" y="494" type="line" smooth="yes"/>
      <point x="88" y="494"/>
      <point x="16" y="498"/>
      <point x="16" y="498" type="curve"/>
    </contour>
    <contour>
      <point x="95" y="494" type="move" name="top"/>
    </contour>
  </outline>
</glyph>
<glyph name="k" format="1">
  <advance width="572"/>
  <unicode hex="006B"/>
  <outline>
    <contour>
      <point x="20" y="707" type="line"/>
      <point x="96" y="691" type="line"/>
      <point x="96" y="691"/>
      <point x="106" y="635"/>
      <point x="106" y="615" type="curve" smooth="yes"/>
      <point x="106" y="137" type="line" smooth="yes"/>
      <point x="106" y="117"/>
      <point x="98" y="70"/>
      <point x="96" y="61" type="curve"/>
      <point x="19" y="45" type="line"/>
      <point x="24" y="-5" type="line"/>
      <point x="24" y="-5"/>
      <point x="115" y="0"/>
      <point x="135" y="0" type="curve" smooth="yes"/>
      <point x="215" y="0"/>
      <point x="264" y="-5"/>
      <point x="264" y="-5" type="curve"/>
      <point x="271" y="54" type="line"/>
      <point x="193" y="61" type="line"/>
      <point x="192" y="69"/>
      <point x="187" y="123"/>
      <point x="187" y="167" type="curve" smooth="yes"/>
      <point x="187" y="585" type="line" smooth="yes"/>
      <point x="187" y="632"/>
      <point x="191" y="707"/>
      <point x="194" y="738" type="curve"/>
      <point x="175" y="756" type="line"/>
      <point x="117" y="756" type="line" smooth="yes"/>
      <point x="97" y="756"/>
      <point x="25" y="760"/>
      <point x="25" y="760" type="curve"/>
    </contour>
    <contour>
      <point x="363" y="437" type="line"/>
      <point x="198" y="265" type="line"/>
      <point x="340" y="115" type="line"/>
      <point x="391" y="59" type="line"/>
      <point x="334" y="48" type="line"/>
      <point x="339" y="-2" type="line"/>
      <point x="441" y="0" type="line" smooth="yes"/>
      <point x="521" y="0"/>
      <point x="570" y="-5"/>
      <point x="570" y="-5" type="curve"/>
      <point x="577" y="54" type="line"/>
      <point x="514" y="60" type="line"/>
      <point x="481" y="85"/>
      <point x="435" y="117"/>
      <point x="424" y="129" type="curve" smooth="yes"/>
      <point x="287" y="279" type="line"/>
      <point x="368" y="366" type="line" smooth="yes"/>
      <point x="386" y="385"/>
      <point x="434" y="415"/>
      <point x="467" y="433" type="curve"/>
      <point x="542" y="441" type="line"/>
      <point x="539" y="499" type="line"/>
      <point x="539" y="499"/>
      <point x="492" y="494"/>
      <point x="412" y="494" type="curve" smooth="yes"/>
      <point x="392" y="494"/>
      <point x="325" y="497"/>
      <point x="325" y="497" type="curve"/>
      <point x="320" y="445" type="line"/>
    </contour>
    <contour>
      <point x="286" y="0" type="move" name="bottom"/>
    </contour>
  </outline>
</glyph>
<glyph name="o" format="1">
  <advance width="548"/>
  <unicode hex="006F"/>
  <outline>
    <contour>
      <point x="504" y="401"/>
      <point x="428" y="503"/>
      <point x="274" y="503" type="curve" smooth="yes"/>
      <point x="122" y="503"/>
      <point x="44" y="399"/>
      <point x="44" y="246" type="curve" smooth="yes"/>
      <point x="44" y="94"/>
      <point x="122" y="-10"/>
      <point x="274" y="-10" type="curve" smooth="yes"/>
      <point x="426" y="-10"/>
      <point x="504" y="94"/>
      <point x="504" y="246" type="curve" smooth="yes"/>
    </contour>
    <contour>
      <point x="410" y="143"/>
      <point x="377" y="47"/>
      <point x="274" y="47" type="curve" smooth="yes"/>
      <point x="171" y="47"/>
      <point x="138" y="143"/>
      <point x="138" y="246" type="curve" smooth="yes"/>
      <point x="138" y="349"/>
      <point x="171" y="446"/>
      <point x="274" y="446" type="curve" smooth="yes"/>
      <point x="377" y="446"/>
      <point x="410" y="349"/>
      <point x="410" y="246" type="curve" smooth="yes"/>
    </contour>
    <contour>
      <point x="449" y="451" type="move" name="horn"/>
    </contour>
    <contour>
      <point x="272" y="0" type="move" name="bottom"/>
    </contour>
    <contour>
      <point x="275" y="494" type="move" name="top"/>
    </contour>
  </outline>
</glyph>
<glyph name="q" format="1">
  <advance width="543"/>
  <unicode hex="0071"/>
  <outline>
    <contour>
      <point x="124" y="503"/>
      <point x="40" y="400"/>
      <point x="40" y="247" type="curve" smooth="yes"/>
      <point x="40" y="87"/>
      <point x="116" y="-10"/>
      <point x="241" y="-10" type="curve" smooth="yes"/>
      <point x="294" y="-10"/>
      <point x="366" y="35"/>
      <point x="386" y="81" type="curve"/>
      <point x="375" y="207" type="line"/>
      <point x="375" y="111"/>
      <point x="328" y="54"/>
      <point x="248" y="54" type="curve" smooth="yes"/>
      <point x="176" y="54"/>
      <point x="132" y="127"/>
      <point x="132" y="246" type="curve" smooth="yes"/>
      <point x="132" y="365"/>
      <point x="182" y="442"/>
      <point x="260" y="442" type="curve" smooth="yes"/>
      <point x="324" y="442"/>
      <point x="378" y="433"/>
      <point x="443" y="410" type="curve"/>
      <point x="464" y="467" type="line"/>
      <point x="357" y="496"/>
      <point x="317" y="503"/>
      <point x="250" y="503" type="curve" smooth="yes"/>
    </contour>
    <contour>
      <point x="530" y="-174" type="line"/>
      <point x="463" y="-167" type="line"/>
      <point x="463" y="-167"/>
      <point x="456" y="-111"/>
      <point x="456" y="-61" type="curve" smooth="yes"/>
      <point x="456" y="322" type="line" smooth="yes"/>
      <point x="456" y="372"/>
      <point x="464" y="467"/>
      <point x="464" y="467" type="curve"/>
      <point x="368" y="436" type="line"/>
      <point x="368" y="436"/>
      <point x="375" y="372"/>
      <point x="375" y="352" type="curve" smooth="yes"/>
      <point x="375" y="-91" type="line" smooth="yes"/>
      <point x="375" y="-111"/>
      <point x="365" y="-167"/>
      <point x="365" y="-167" type="curve"/>
      <point x="268" y="-183" type="line"/>
      <point x="273" y="-233" type="line"/>
      <point x="273" y="-233"/>
      <point x="345" y="-228"/>
      <point x="375" y="-228" type="curve" smooth="yes"/>
      <point x="455" y="-228"/>
      <point x="523" y="-233"/>
      <point x="523" y="-233" type="curve"/>
    </contour>
  </outline>
</glyph>
<glyph name="r" format="1">
  <advance width="422"/>
  <unicode hex="0072"/>
  <outline>
    <contour>
      <point x="188" y="476" type="line"/>
      <point x="169" y="494" type="line"/>
      <point x="133" y="494" type="line" smooth="yes"/>
      <point x="113" y="494"/>
      <point x="41" y="498"/>
      <point x="41" y="498" type="curve"/>
      <point x="36" y="445" type="line"/>
      <point x="112" y="429" type="line"/>
      <point x="112" y="429"/>
      <point x="122" y="373"/>
      <point x="122" y="353" type="curve" smooth="yes"/>
      <point x="122" y="137" type="line" smooth="yes"/>
      <point x="122" y="117"/>
      <point x="112" y="61"/>
      <point x="112" y="61" type="curve"/>
      <point x="36" y="45" type="line"/>
      <point x="41" y="-5" type="line"/>
      <point x="41" y="-5"/>
      <point x="132" y="0"/>
      <point x="152" y="0" type="curve" smooth="yes"/>
      <point x="232" y="0"/>
      <point x="301" y="-5"/>
      <point x="301" y="-5" type="curve"/>
      <point x="308" y="54" type="line"/>
      <point x="210" y="61" type="line"/>
      <point x="210" y="61"/>
      <point x="203" y="117"/>
      <point x="203" y="167" type="curve" smooth="yes"/>
      <point x="203" y="284" type="line"/>
      <point x="207" y="378"/>
      <point x="245" y="433"/>
      <point x="337" y="434" type="curve" smooth="yes"/>
      <point x="339" y="434"/>
      <point x="340" y="434"/>
      <point x="341" y="434" type="curve"/>
      <point x="348" y="413"/>
      <point x="355" y="390"/>
      <point x="355" y="384" type="curve" smooth="yes"/>
      <point x="355" y="331" type="line"/>
      <point x="413" y="328" type="line"/>
      <point x="423" y="493" type="line"/>
      <point x="423" y="493"/>
      <point x="392" y="503"/>
      <point x="355" y="503" type="curve" smooth="yes"/>
      <point x="283" y="503"/>
      <point x="233" y="474"/>
      <point x="194" y="410" type="curve"/>
    </contour>
    <contour>
      <point x="231" y="494" type="move" name="top"/>
    </contour>
    <contour>
      <point x="211" y="0" type="move" name="bottom"/>
    </contour>
  </outline>
</glyph>
<glyph name="x" format="1">
  <advance width="554"/>
  <unicode hex="0078"/>
  <outline>
    <contour>
      <point x="29" y="497"/>
      <point x="99" y="494"/>
      <point x="119" y="494" type="curve" smooth="yes"/>
      <point x="199" y="494"/>
      <point x="240" y="494"/>
      <point x="240" y="494" type="curve"/>
      <point x="243" y="441" type="line"/>
      <point x="183" y="434" type="line"/>
      <point x="212" y="387" type="line"/>
      <point x="395" y="149" type="line"/>
      <point x="483" y="59" type="line"/>
      <point x="544" y="54" type="line"/>
      <point x="538" y="0" type="line"/>
      <point x="538" y="0"/>
      <point x="484" y="0"/>
      <point x="404" y="0" type="curve" smooth="yes"/>
      <point x="384" y="0"/>
      <point x="307" y="-5"/>
      <point x="307" y="-5" type="curve"/>
      <point x="302" y="45" type="line"/>
      <point x="364" y="60" type="line"/>
      <point x="332" y="115" type="line"/>
      <point x="148" y="353" type="line"/>
      <point x="75" y="435" type="line"/>
      <point x="24" y="445" type="line"/>
      <point x="29" y="497" type="line"/>
    </contour>
    <contour>
      <point x="301" y="497"/>
      <point x="358" y="494"/>
      <point x="378" y="494" type="curve" smooth="yes"/>
      <point x="458" y="494"/>
      <point x="502" y="494"/>
      <point x="502" y="494" type="curve"/>
      <point x="505" y="441" type="line"/>
      <point x="444" y="433" type="line"/>
      <point x="376" y="353" type="line"/>
      <point x="301" y="238" type="line"/>
      <point x="283" y="231" type="line"/>
      <point x="202" y="115" type="line"/>
      <point x="171" y="61" type="line"/>
      <point x="234" y="54" type="line"/>
      <point x="228" y="0" type="line"/>
      <point x="228" y="0"/>
      <point x="197" y="0"/>
      <point x="117" y="0" type="curve" smooth="yes"/>
      <point x="97" y="0"/>
      <point x="20" y="-5"/>
      <point x="20" y="-5" type="curve"/>
      <point x="15" y="45" type="line"/>
      <point x="77" y="61" type="line"/>
      <point x="158" y="149" type="line"/>
      <point x="247" y="276" type="line"/>
      <point x="267" y="282" type="line"/>
      <point x="335" y="387" type="line"/>
      <point x="360" y="433" type="line"/>
      <point x="296" y="445" type="line"/>
      <point x="301" y="497" type="line"/>
    </contour>
  </outline>
</glyph>
<glyph name="asciitilde" format="1">
  <advance width="560"/>
  <unicode hex="007E"/>
  <outline>
    <contour>
      <point x="513" y="279" type="line"/>
      <point x="513" y="279"/>
      <point x="454" y="175"/>
      <point x="404" y="175" type="curve" smooth="yes"/>
      <point x="344" y="175"/>
      <point x="213" y="235"/>
      <point x="159" y="235" type="curve" smooth="yes"/>
      <point x="129" y="235"/>
      <point x="87" y="180"/>
      <point x="87" y="180" type="curve"/>
      <point x="47" y="213" type="line"/>
      <point x="47" y="213"/>
      <point x="106" y="317"/>
      <point x="156" y="317" type="curve" smooth="yes"/>
      <point x="226" y="317"/>
      <point x="347" y="257"/>
      <point x="401" y="257" type="curve" smooth="yes"/>
      <point x="431" y="257"/>
      <point x="473" y="312"/>
      <point x="473" y="312" type="curve"/>
    </contour>
  </outline>
</glyph>
<glyph name="exclamdown" format="1">
  <advance width="229"/>
  <unicode hex="00A1"/>
  <outline>
    <contour>
      <point x="137" y="503"/>
      <point x="159" y="479"/>
      <point x="159" y="438" type="curve" smooth="yes"/>
      <point x="159" y="400"/>
      <point x="138" y="374"/>
      <point x="100" y="374" type="curve" smooth="yes"/>
      <point x="62" y="374"/>
      <point x="41" y="400"/>
      <point x="41" y="438" type="curve" smooth="yes"/>
      <point x="41" y="476"/>
      <point x="62" y="503"/>
      <point x="100" y="503" type="curve" smooth="yes"/>
    </contour>
    <contour>
      <point x="63" y="270" type="line"/>
      <point x="63" y="270"/>
      <point x="66" y="215"/>
      <point x="66" y="185" type="curve" smooth="yes"/>
      <point x="66" y="28"/>
      <point x="41" y="-209"/>
      <point x="41" y="-209" type="curve"/>
      <point x="60" y="-227" type="line"/>
      <point x="150" y="-220" type="line"/>
      <point x="141" y="207" type="line"/>
      <point x="141" y="237"/>
      <point x="142" y="273"/>
      <point x="142" y="273" type="curve"/>
      <point x="103" y="273"/>
      <point x="76" y="275"/>
      <point x="70" y="276" type="curve"/>
    </contour>
  </outline>
</glyph>
<glyph name="dieresis" format="1">
  <advance width="360"/>
  <unicode hex="00A8"/>
  <outline>
    <contour>
      <point x="262" y="703"/>
      <point x="244" y="679"/>
      <point x="244" y="643" type="curve" smooth="yes"/>
      <point x="244" y="607"/>
      <point x="262" y="584"/>
      <point x="298" y="584" type="curve" smooth="yes"/>
      <point x="334" y="584"/>
      <point x="352" y="607"/>
      <point x="352" y="643" type="curve" smooth="yes"/>
      <point x="352" y="682"/>
      <point x="333" y="703"/>
      <point x="298" y="703" type="curve" smooth="yes"/>
    </contour>
    <contour>
      <point x="26" y="703"/>
      <point x="8" y="679"/>
      <point x="8" y="643" type="curve" smooth="yes"/>
      <point x="8" y="607"/>
      <point x="26" y="584"/>
      <point x="62" y="584" type="curve" smooth="yes"/>
      <point x="98" y="584"/>
      <point x="116" y="607"/>
      <point x="116" y="643" type="curve" smooth="yes"/>
      <point x="116" y="682"/>
      <point x="97" y="703"/>
      <point x="62" y="703" type="curve" smooth="yes"/>
    </contour>
    <contour>
      <point x="180" y="494" type="move" name="_top"/>
    </contour>
  </outline>
</glyph>
<glyph name="ordfeminine" format="1">
  <advance width="393"/>
  <unicode hex="00AA"/>
  <outline>
    <contour>
      <point x="249" y="450" type="line"/>
      <point x="318" y="450"/>
      <point x="349" y="450"/>
      <point x="349" y="450" type="curve"/>
      <point x="353" y="489" type="line"/>
      <point x="313" y="493" type="line"/>
      <point x="313" y="493"/>
      <point x="307" y="531"/>
      <point x="307" y="561" type="curve" smooth="yes"/>
      <point x="307" y="639" type="line" smooth="yes"/>
      <point x="307" y="718"/>
      <point x="268" y="757"/>
      <point x="189" y="757" type="curve" smooth="yes"/>
      <point x="157" y="757"/>
      <point x="113" y="751"/>
      <point x="76" y="741" type="curve"/>
      <point x="85" y="646" type="line"/>
      <point x="127" y="648" type="line"/>
      <point x="126" y="676" type="line"/>
      <point x="131" y="701" type="line"/>
      <point x="145" y="708"/>
      <point x="167" y="712"/>
      <point x="185" y="712" type="curve" smooth="yes"/>
      <point x="219" y="712"/>
      <point x="236" y="691"/>
      <point x="236" y="644" type="curve" smooth="yes"/>
      <point x="236" y="625" type="line"/>
      <point x="143" y="610" type="line" smooth="yes"/>
      <point x="88" y="601"/>
      <point x="61" y="573"/>
      <point x="61" y="527" type="curve" smooth="yes"/>
      <point x="61" y="476"/>
      <point x="96" y="444"/>
      <point x="152" y="444" type="curve" smooth="yes"/>
      <point x="191" y="444"/>
      <point x="225" y="463"/>
      <point x="243" y="496" type="curve"/>
    </contour>
    <contour>
      <point x="236" y="589" type="line"/>
      <point x="236" y="548" type="line"/>
      <point x="230" y="518"/>
      <point x="205" y="497"/>
      <point x="175" y="497" type="curve" smooth="yes"/>
      <point x="149" y="497"/>
      <point x="136" y="511"/>
      <point x="136" y="539" type="curve" smooth="yes"/>
      <point x="136" y="561"/>
      <point x="148" y="573"/>
      <point x="172" y="578" type="curve" smooth="yes"/>
    </contour>
    <contour>
      <point x="35" y="0" type="move" name="ogonek"/>
    </contour>
    <contour>
      <point x="35" y="0" type="move" name="top"/>
    </contour>
  </outline>
</glyph>
<glyph name="logicalnot" format="1">
  <advance width="560"/>
  <unicode hex="00AC"/>
  <outline>
    <contour>
      <point x="510" y="307" type="line"/>
      <point x="510" y="69" type="line"/>
      <point x="439" y="69" type="line"/>
      <point x="441" y="240" type="line"/>
      <point x="55" y="236" type="line"/>
      <point x="55" y="307" type="line"/>
    </contour>
  </outline>
</glyph>
<glyph name="registered" format="1">
  <advance width="845"/>
  <unicode hex="00AE"/>
  <outline>
    <contour>
      <point x="788" y="454"/>
      <point x="625" y="615"/>
      <point x="422" y="615" type="curve" smooth="yes"/>
      <point x="222" y="615"/>
      <point x="57" y="452"/>
      <point x="57" y="250" type="curve" smooth="yes"/>
      <point x="57" y="44"/>
      <point x="224" y="-115"/>
      <point x="422" y="-115" type="curve" smooth="yes"/>
      <point x="624" y="-115"/>
      <point x="788" y="52"/>
      <point x="788" y="250" type="curve" smooth="yes"/>
    </contour>
    <contour>
      <point x="743" y="74"/>
      <point x="600" y="-71"/>
      <point x="422" y="-71" type="curve" smooth="yes"/>
      <point x="246" y="-71"/>
      <point x="101" y="74"/>
      <point x="101" y="250" type="curve" smooth="yes"/>
      <point x="101" y="430"/>
      <point x="246" y="571"/>
      <point x="422" y="571" type="curve" smooth="yes"/>
      <point x="599" y="571"/>
      <point x="743" y="425"/>
      <point x="743" y="250" type="curve" smooth="yes"/>
    </contour>
    <contour>
      <point x="560" y="432"/>
      <point x="509" y="473"/>
      <point x="425" y="473" type="curve" smooth="yes"/>
      <point x="394" y="473"/>
      <point x="330" y="467"/>
      <point x="300" y="467" type="curve" smooth="yes"/>
      <point x="251" y="467" type="line"/>
      <point x="247" y="433" type="line"/>
      <point x="294" y="429" type="line"/>
      <point x="295" y="429" type="line"/>
      <point x="296" y="419"/>
      <point x="300" y="394"/>
      <point x="300" y="385" type="curve" smooth="yes"/>
      <point x="300" y="134" type="line" smooth="yes"/>
      <point x="300" y="124"/>
      <point x="296" y="99"/>
      <point x="295" y="90" type="curve"/>
      <point x="294" y="90" type="line"/>
      <point x="244" y="77" type="line"/>
      <point x="250" y="44" type="line"/>
      <point x="364" y="47" type="line"/>
      <point x="408" y="47" type="line"/>
      <point x="412" y="84" type="line"/>
      <point x="368" y="90" type="line"/>
      <point x="367" y="104"/>
      <point x="365" y="130"/>
      <point x="365" y="152" type="curve" smooth="yes"/>
      <point x="365" y="226" type="line"/>
      <point x="411" y="226" type="line"/>
      <point x="418" y="226" type="line"/>
      <point x="472" y="123" type="line" smooth="yes"/>
      <point x="476" y="116"/>
      <point x="483" y="97"/>
      <point x="490" y="80" type="curve" smooth="yes"/>
      <point x="502" y="47" type="line"/>
      <point x="609" y="47" type="line"/>
      <point x="613" y="84" type="line"/>
      <point x="572" y="89" type="line"/>
      <point x="562" y="102"/>
      <point x="547" y="122"/>
      <point x="542" y="132" type="curve" smooth="yes"/>
      <point x="539" y="136"/>
      <point x="509" y="184"/>
      <point x="481" y="238" type="curve"/>
      <point x="528" y="257"/>
      <point x="560" y="295"/>
      <point x="560" y="350" type="curve" smooth="yes"/>
    </contour>
    <contour>
      <point x="400" y="260" type="line" smooth="yes"/>
      <point x="391" y="260"/>
      <point x="378" y="260"/>
      <point x="365" y="262" type="curve"/>
      <point x="365" y="368" type="line" smooth="yes"/>
      <point x="365" y="389"/>
      <point x="367" y="420"/>
      <point x="368" y="435" type="curve"/>
      <point x="381" y="437"/>
      <point x="393" y="439"/>
      <point x="400" y="439" type="curve" smooth="yes"/>
      <point x="459" y="439"/>
      <point x="496" y="409"/>
      <point x="496" y="349" type="curve" smooth="yes"/>
      <point x="496" y="294"/>
      <point x="463" y="264"/>
      <point x="411" y="260" type="curve"/>
    </contour>
  </outline>
</glyph>
<glyph name="macron" format="1">
  <advance width="360"/>
  <unicode hex="00AF"/>
  <outline>
    <contour>
      <point x="336" y="583" type="line"/>
      <point x="341" y="643" type="line"/>
      <point x="19" y="643" type="line"/>
      <point x="19" y="583" type="line"/>
    </contour>
    <contour>
      <point x="180" y="494" type="move" name="_top"/>
    </contour>
  </outline>
</glyph>
<glyph name="acute" format="1">
  <advance width="360"/>
  <unicode hex="00B4"/>
  <outline>
    <contour>
      <point x="227" y="750" type="line"/>
      <point x="47" y="600" type="line"/>
      <point x="76" y="564" type="line"/>
      <point x="270" y="695" type="line"/>
    </contour>
    <contour>
      <point x="142" y="494" type="move" name="_top"/>
    </contour>
  </outline>
</glyph>
<glyph name="paragraph" format="1">
  <advance width="556"/>
  <unicode hex="00B6"/>
  <outline>
    <contour>
      <point x="17" y="367"/>
      <point x="129" y="291"/>
      <point x="263" y="291" type="curve" smooth="yes"/>
      <point x="290" y="316" type="line"/>
      <point x="290" y="651" type="line"/>
      <point x="290" y="712" type="line"/>
      <point x="271" y="714"/>
      <point x="255" y="715"/>
      <point x="240" y="715" type="curve" smooth="yes"/>
      <point x="102" y="715"/>
      <point x="17" y="644"/>
      <point x="17" y="502" type="curve" smooth="yes"/>
    </contour>
    <contour>
      <point x="515" y="656" type="line"/>
      <point x="510" y="710" type="line"/>
      <point x="359" y="705" type="line"/>
      <point x="340" y="687" type="line"/>
      <point x="340" y="47" type="line" smooth="yes"/>
      <point x="340" y="30"/>
      <point x="333" y="-16"/>
      <point x="331" y="-29" type="curve"/>
      <point x="252" y="-45" type="line"/>
      <point x="257" y="-95" type="line"/>
      <point x="257" y="-95"/>
      <point x="367" y="-90"/>
      <point x="392" y="-90" type="curve"/>
      <point x="419" y="-90" type="line"/>
      <point x="438" y="-73" type="line"/>
      <point x="436" y="-59"/>
      <point x="431" y="35"/>
      <point x="431" y="77" type="curve" smooth="yes"/>
      <point x="431" y="538" type="line" smooth="yes"/>
      <point x="431" y="580"/>
      <point x="436" y="630"/>
      <point x="438" y="644" type="curve"/>
    </contour>
  </outline>
</glyph>
<glyph name="Iacute" format="1">
  <advance width="343"/>
  <unicode hex="00CD"/>
  <outline>
    <contour>
      <point x="297" y="710" type="line"/>
      <point x="297" y="710"/>
      <point x="219" y="705"/>
      <point x="159" y="705" type="curve" smooth="yes"/>
      <point x="139" y="705"/>
      <point x="44" y="710"/>
      <point x="44" y="710" type="curve"/>
      <point x="39" y="656" type="line"/>
      <point x="116" y="644" type="line"/>
      <point x="118" y="631"/>
      <point x="125" y="585"/>
      <point x="125" y="568" type="curve" smooth="yes"/>
      <point x="125" y="137" type="line" smooth="yes"/>
      <point x="125" y="120"/>
      <point x="118" y="74"/>
      <point x="116" y="61" type="curve"/>
      <point x="37" y="45" type="line"/>
      <point x="42" y="-5" type="line"/>
      <point x="42" y="-5"/>
      <point x="152" y="0"/>
      <point x="177" y="0" type="curve"/>
      <point x="307" y="0" type="line"/>
      <point x="313" y="54" type="line"/>
      <point x="223" y="61" type="line"/>
      <point x="221" y="75"/>
      <point x="216" y="125"/>
      <point x="216" y="167" type="curve" smooth="yes"/>
      <point x="216" y="538" type="line" smooth="yes"/>
      <point x="216" y="580"/>
      <point x="221" y="630"/>
      <point x="223" y="644" type="curve"/>
      <point x="301" y="651" type="line"/>
    </contour>
    <contour>
      <point x="290" y="889" type="line"/>
      <point x="61" y="788" type="line"/>
      <point x="76" y="746" type="line"/>
      <point x="316" y="824" type="line"/>
    </contour>
    <contour>
      <point x="306" y="0" type="move" name="ogonek"/>
    </contour>
    <contour>
      <point x="171" y="705" type="move" name="top"/>
    </contour>
    <contour>
      <point x="171" y="705" type="move" name="_top"/>
    </contour>
    <contour>
      <point x="179" y="0" type="move" name="bottom"/>
    </contour>
  </outline>
</glyph>
<glyph name="Icircumflex" format="1">
  <advance width="343"/>
  <unicode hex="00CE"/>
  <outline>
    <contour>
      <point x="297" y="710" type="line"/>
      <point x="297" y="710"/>
      <point x="219" y="705"/>
      <point x="159" y="705" type="curve" smooth="yes"/>
      <point x="139" y="705"/>
      <point x="44" y="710"/>
      <point x="44" y="710" type="curve"/>
      <point x="39" y="656" type="line"/>
      <point x="116" y="644" type="line"/>
      <point x="118" y="631"/>
      <point x="125" y="585"/>
      <point x="125" y="568" type="curve" smooth="yes"/>
      <point x="125" y="137" type="line" smooth="yes"/>
      <point x="125" y="120"/>
      <point x="118" y="74"/>
      <point x="116" y="61" type="curve"/>
      <point x="37" y="45" type="line"/>
      <point x="42" y="-5" type="line"/>
      <point x="42" y="-5"/>
      <point x="152" y="0"/>
      <point x="177" y="0" type="curve"/>
      <point x="307" y="0" type="line"/>
      <point x="313" y="54" type="line"/>
      <point x="223" y="61" type="line"/>
      <point x="221" y="75"/>
      <point x="216" y="125"/>
      <point x="216" y="167" type="curve" smooth="yes"/>
      <point x="216" y="538" type="line" smooth="yes"/>
      <point x="216" y="580"/>
      <point x="221" y="630"/>
      <point x="223" y="644" type="curve"/>
      <point x="301" y="651" type="line"/>
    </contour>
    <contour>
      <point x="137" y="867" type="line"/>
      <point x="-4" y="780" type="line"/>
      <point x="20" y="741" type="line"/>
      <point x="211" y="828" type="line"/>
      <point x="178" y="867" type="line"/>
    </contour>
    <contour>
      <point x="130" y="828" type="line"/>
      <point x="321" y="741" type="line"/>
      <point x="345" y="780" type="line"/>
      <point x="204" y="867" type="line"/>
      <point x="163" y="867" type="line"/>
    </contour>
    <contour>
      <point x="306" y="0" type="move" name="ogonek"/>
    </contour>
    <contour>
      <point x="171" y="705" type="move" name="top"/>
    </contour>
    <contour>
      <point x="171" y="705" type="move" name="_top"/>
    </contour>
    <contour>
      <point x="179" y="0" type="move" name="bottom"/>
    </contour>
  </outline>
</glyph>
<glyph name="Ograve" format="1">
  <advance width="716"/>
  <unicode hex="00D2"/>
  <outline>
    <contour>
      <point x="686" y="570"/>
      <point x="575" y="720"/>
      <point x="358" y="720" type="curve" smooth="yes"/>
      <point x="141" y="720"/>
      <point x="30" y="570"/>
      <point x="30" y="352" type="curve" smooth="yes"/>
      <point x="30" y="135"/>
      <point x="141" y="-15"/>
      <point x="358" y="-15" type="curve" smooth="yes"/>
      <point x="575" y="-15"/>
      <point x="686" y="135"/>
      <point x="686" y="352" type="curve" smooth="yes"/>
    </contour>
    <contour>
      <point x="137" y="527"/>
      <point x="209" y="667"/>
      <point x="358" y="667" type="curve" smooth="yes"/>
      <point x="507" y="667"/>
      <point x="579" y="527"/>
      <point x="579" y="352" type="curve" smooth="yes"/>
      <point x="579" y="178"/>
      <point x="507" y="38"/>
      <point x="358" y="38" type="curve" smooth="yes"/>
      <point x="209" y="38"/>
      <point x="137" y="178"/>
      <point x="137" y="352" type="curve" smooth="yes"/>
    </contour>
    <contour>
      <point x="466" y="746" type="line"/>
      <point x="481" y="788" type="line"/>
      <point x="252" y="889" type="line"/>
      <point x="226" y="824" type="line"/>
    </contour>
    <contour>
      <point x="358" y="705" type="move" name="top"/>
    </contour>
    <contour>
      <point x="358" y="705" type="move" name="_top"/>
    </contour>
    <contour>
      <point x="616" y="567" type="move" name="horn"/>
    </contour>
    <contour>
      <point x="358" y="0" type="move" name="bottom"/>
    </contour>
  </outline>
</glyph>
<glyph name="Ocircumflex" format="1">
  <advance width="716"/>
  <unicode hex="00D4"/>
  <outline>
    <contour>
      <point x="686" y="570"/>
      <point x="575" y="720"/>
      <point x="358" y="720" type="curve" smooth="yes"/>
      <point x="141" y="720"/>
      <point x="30" y="570"/>
      <point x="30" y="352" type="curve" smooth="yes"/>
      <point x="30" y="135"/>
      <point x="141" y="-15"/>
      <point x="358" y="-15" type="curve" smooth="yes"/>
      <point x="575" y="-15"/>
      <point x="686" y="135"/>
      <point x="686" y="352" type="curve" smooth="yes"/>
    </contour>
    <contour>
      <point x="137" y="527"/>
      <point x="209" y="667"/>
      <point x="358" y="667" type="curve" smooth="yes"/>
      <point x="507" y="667"/>
      <point x="579" y="527"/>
      <point x="579" y="352" type="curve" smooth="yes"/>
      <point x="579" y="178"/>
      <point x="507" y="38"/>
      <point x="358" y="38" type="curve" smooth="yes"/>
      <point x="209" y="38"/>
      <point x="137" y="178"/>
      <point x="137" y="352" type="curve" smooth="yes"/>
    </contour>
    <contour>
      <point x="324" y="867" type="line"/>
      <point x="183" y="780" type="line"/>
      <point x="207" y="741" type="line"/>
      <point x="398" y="828" type="line"/>
      <point x="365" y="867" type="line"/>
    </contour>
    <contour>
      <point x="317" y="828" type="line"/>
      <point x="508" y="741" type="line"/>
      <point x="532" y="780" type="line"/>
      <point x="391" y="867" type="line"/>
      <point x="350" y="867" type="line"/>
    </contour>
    <contour>
      <point x="358" y="705" type="move" name="top"/>
    </contour>
    <contour>
      <point x="358" y="705" type="move" name="_top"/>
    </contour>
    <contour>
      <point x="616" y="567" type="move" name="horn"/>
    </contour>
    <contour>
      <point x="358" y="0" type="move" name="bottom"/>
    </contour>
  </outline>
</glyph>
<glyph name="Otilde" format="1">
  <advance width="716"/>
  <unicode hex="00D5"/>
  <outline>
    <contour>
      <point x="686" y="570"/>
      <point x="575" y="720"/>
      <point x="358" y="720" type="curve" smooth="yes"/>
      <point x="141" y="720"/>
      <point x="30" y="570"/>
      <point x="30" y="352" type="curve" smooth="yes"/>
      <point x="30" y="135"/>
      <point x="141" y="-15"/>
      <point x="358" y="-15" type="curve" smooth="yes"/>
      <point x="575" y="-15"/>
      <point x="686" y="135"/>
      <point x="686" y="352" type="curve" smooth="yes"/>
    </contour>
    <contour>
      <point x="137" y="527"/>
      <point x="209" y="667"/>
      <point x="358" y="667" type="curve" smooth="yes"/>
      <point x="507" y="667"/>
      <point x="579" y="527"/>
      <point x="579" y="352" type="curve" smooth="yes"/>
      <point x="579" y="178"/>
      <point x="507" y="38"/>
      <point x="358" y="38" type="curve" smooth="yes"/>
      <point x="209" y="38"/>
      <point x="137" y="178"/>
      <point x="137" y="352" type="curve" smooth="yes"/>
    </contour>
    <contour>
      <point x="490" y="870" type="line"/>
      <point x="490" y="870"/>
      <point x="464" y="819"/>
      <point x="437" y="819" type="curve" smooth="yes"/>
      <point x="397" y="819"/>
      <point x="312" y="860"/>
      <point x="272" y="860" type="curve" smooth="yes"/>
      <point x="232" y="860"/>
      <point x="190" y="759"/>
      <point x="190" y="759" type="curve"/>
      <point x="226" y="738" type="line"/>
      <point x="226" y="738"/>
      <point x="252" y="792"/>
      <point x="279" y="792" type="curve" smooth="yes"/>
      <point x="319" y="792"/>
      <point x="403" y="751"/>
      <point x="443" y="751" type="curve" smooth="yes"/>
      <point x="483" y="751"/>
      <point x="526" y="849"/>
      <point x="526" y="849" type="curve"/>
    </contour>
    <contour>
      <point x="358" y="705" type="move" name="top"/>
    </contour>
    <contour>
      <point x="358" y="705" type="move" name="_top"/>
    </contour>
    <contour>
      <point x="616" y="567" type="move" name="horn"/>
    </contour>
    <contour>
      <point x="358" y="0" type="move" name="bottom"/>
    </contour>
  </outline>
</glyph>
<glyph name="multiply" format="1">
  <advance width="538"/>
  <unicode hex="00D7"/>
  <outline>
    <contour>
      <point x="478" y="94" type="line"/>
      <point x="425" y="41" type="line"/>
      <point x="60" y="405" type="line"/>
      <point x="110" y="455" type="line"/>
    </contour>
    <contour>
      <point x="424" y="457" type="line"/>
      <point x="477" y="404" type="line"/>
      <point x="112" y="40" type="line"/>
      <point x="62" y="90" type="line"/>
    </contour>
  </outline>
</glyph>
<glyph name="Oslash" format="1">
  <advance width="740"/>
  <unicode hex="00D8"/>
  <outline>
    <contour>
      <point x="642" y="815" type="line"/>
      <point x="600" y="838" type="line"/>
      <point x="100" y="-113" type="line"/>
      <point x="140" y="-136" type="line"/>
    </contour>
    <contour>
      <point x="698" y="570"/>
      <point x="587" y="720"/>
      <point x="370" y="720" type="curve"/>
      <point x="153" y="720"/>
      <point x="42" y="570"/>
      <point x="42" y="352" type="curve"/>
      <point x="42" y="135"/>
      <point x="153" y="-15"/>
      <point x="370" y="-15" type="curve" smooth="yes"/>
      <point x="587" y="-15"/>
      <point x="698" y="135"/>
      <point x="698" y="352" type="curve"/>
    </contour>
    <contour>
      <point x="149" y="527"/>
      <point x="221" y="667"/>
      <point x="370" y="667" type="curve"/>
      <point x="519" y="667"/>
      <point x="591" y="527"/>
      <point x="591" y="352" type="curve"/>
      <point x="591" y="178"/>
      <point x="519" y="38"/>
      <point x="370" y="38" type="curve" smooth="yes"/>
      <point x="221" y="38"/>
      <point x="149" y="178"/>
      <point x="149" y="352" type="curve"/>
    </contour>
    <contour>
      <point x="380" y="705" type="move" name="top"/>
    </contour>
  </outline>
</glyph>
<glyph name="Uacute" format="1">
  <advance width="751"/>
  <unicode hex="00DA"/>
  <outline>
    <contour>
      <point x="35" y="710" type="curve"/>
      <point x="30" y="656" type="line"/>
      <point x="109" y="644" type="line"/>
      <point x="111" y="629"/>
      <point x="118" y="580"/>
      <point x="118" y="563" type="curve" smooth="yes"/>
      <point x="118" y="266" type="line" smooth="yes"/>
      <point x="118" y="95"/>
      <point x="205" y="-15"/>
      <point x="376" y="-15" type="curve" smooth="yes"/>
      <point x="547" y="-15"/>
      <point x="635" y="95"/>
      <point x="635" y="266" type="curve" smooth="yes"/>
      <point x="635" y="533" type="line" smooth="yes"/>
      <point x="635" y="576"/>
      <point x="640" y="629"/>
      <point x="642" y="644" type="curve"/>
      <point x="721" y="651" type="line"/>
      <point x="717" y="710" type="line"/>
      <point x="717" y="710"/>
      <point x="635" y="705"/>
      <point x="585" y="705" type="curve" smooth="yes"/>
      <point x="565" y="705"/>
      <point x="480" y="710"/>
      <point x="480" y="710" type="curve"/>
      <point x="475" y="656" type="line"/>
      <point x="553" y="644" type="line"/>
      <point x="555" y="630"/>
      <point x="563" y="580"/>
      <point x="563" y="563" type="curve" smooth="yes"/>
      <point x="563" y="266" type="line" smooth="yes"/>
      <point x="563" y="140"/>
      <point x="505" y="49"/>
      <point x="385" y="49" type="curve" smooth="yes"/>
      <point x="270" y="49"/>
      <point x="213" y="139"/>
      <point x="213" y="266" type="curve" smooth="yes"/>
      <point x="213" y="533" type="line" smooth="yes"/>
      <point x="213" y="576"/>
      <point x="218" y="629"/>
      <point x="220" y="644" type="curve"/>
      <point x="299" y="651" type="line"/>
      <point x="295" y="710" type="line"/>
      <point x="295" y="710"/>
      <point x="210" y="705"/>
      <point x="150" y="705" type="curve" smooth="yes"/>
      <point x="130" y="705"/>
      <point x="35" y="710"/>
    </contour>
    <contour>
      <point x="497" y="889" type="line"/>
      <point x="268" y="788" type="line"/>
      <point x="283" y="746" type="line"/>
      <point x="523" y="824" type="line"/>
    </contour>
    <contour>
      <point x="455" y="-5" type="move" name="ogonek"/>
    </contour>
    <contour>
      <point x="378" y="705" type="move" name="top"/>
    </contour>
    <contour>
      <point x="378" y="705" type="move" name="_top"/>
    </contour>
    <contour>
      <point x="615" y="470" type="move" name="horn"/>
    </contour>
    <contour>
      <point x="383" y="0" type="move" name="bottom"/>
    </contour>
  </outline>
</glyph>
<glyph name="Ucircumflex" format="1">
  <advance width="751"/>
  <unicode hex="00DB"/>
  <outline>
    <contour>
      <point x="35" y="710" type="curve"/>
      <point x="30" y="656" type="line"/>
      <point x="109" y="644" type="line"/>
      <point x="111" y="629"/>
      <point x="118" y="580"/>
      <point x="118" y="563" type="curve" smooth="yes"/>
      <point x="118" y="266" type="line" smooth="yes"/>
      <point x="118" y="95"/>
      <point x="205" y="-15"/>
      <point x="376" y="-15" type="curve" smooth="yes"/>
      <point x="547" y="-15"/>
      <point x="635" y="95"/>
      <point x="635" y="266" type="curve" smooth="yes"/>
      <point x="635" y="533" type="line" smooth="yes"/>
      <point x="635" y="576"/>
      <point x="640" y="629"/>
      <point x="642" y="644" type="curve"/>
      <point x="721" y="651" type="line"/>
      <point x="717" y="710" type="line"/>
      <point x="717" y="710"/>
      <point x="635" y="705"/>
      <point x="585" y="705" type="curve" smooth="yes"/>
      <point x="565" y="705"/>
      <point x="480" y="710"/>
      <point x="480" y="710" type="curve"/>
      <point x="475" y="656" type="line"/>
      <point x="553" y="644" type="line"/>
      <point x="555" y="630"/>
      <point x="563" y="580"/>
      <point x="563" y="563" type="curve" smooth="yes"/>
      <point x="563" y="266" type="line" smooth="yes"/>
      <point x="563" y="140"/>
      <point x="505" y="49"/>
      <point x="385" y="49" type="curve" smooth="yes"/>
      <point x="270" y="49"/>
      <point x="213" y="139"/>
      <point x="213" y="266" type="curve" smooth="yes"/>
      <point x="213" y="533" type="line" smooth="yes"/>
      <point x="213" y="576"/>
      <point x="218" y="629"/>
      <point x="220" y="644" type="curve"/>
      <point x="299" y="651" type="line"/>
      <point x="295" y="710" type="line"/>
      <point x="295" y="710"/>
      <point x="210" y="705"/>
      <point x="150" y="705" type="curve" smooth="yes"/>
      <point x="130" y="705"/>
      <point x="35" y="710"/>
    </contour>
    <contour>
      <point x="344" y="867" type="line"/>
      <point x="203" y="780" type="line"/>
      <point x="227" y="741" type="line"/>
      <point x="418" y="828" type="line"/>
      <point x="385" y="867" type="line"/>
    </contour>
    <contour>
      <point x="337" y="828" type="line"/>
      <point x="528" y="741" type="line"/>
      <point x="552" y="780" type="line"/>
      <point x="411" y="867" type="line"/>
      <point x="370" y="867" type="line"/>
    </contour>
    <contour>
      <point x="455" y="-5" type="move" name="ogonek"/>
    </contour>
    <contour>
      <point x="378" y="705" type="move" name="top"/>
    </contour>
    <contour>
      <point x="378" y="705" type="move" name="_top"/>
    </contour>
    <contour>
      <point x="615" y="470" type="move" name="horn"/>
    </contour>
    <contour>
      <point x="383" y="0" type="move" name="bottom"/>
    </contour>
  </outline>
</glyph>
<glyph name="Thorn" format="1">
  <advance width="585"/>
  <unicode hex="00DE"/>
  <outline>
    <contour>
      <point x="306" y="651" type="line"/>
      <point x="302" y="710" type="line"/>
      <point x="302" y="710"/>
      <point x="245" y="705"/>
      <point x="165" y="705" type="curve" smooth="yes"/>
      <point x="145" y="705"/>
      <point x="49" y="710"/>
      <point x="49" y="710" type="curve"/>
      <point x="44" y="656" type="line"/>
      <point x="121" y="644" type="line"/>
      <point x="123" y="631"/>
      <point x="130" y="585"/>
      <point x="130" y="568" type="curve" smooth="yes"/>
      <point x="130" y="137" type="line" smooth="yes"/>
      <point x="130" y="120"/>
      <point x="123" y="74"/>
      <point x="121" y="61" type="curve"/>
      <point x="42" y="45" type="line"/>
      <point x="47" y="-5" type="line"/>
      <point x="47" y="-5"/>
      <point x="145" y="0"/>
      <point x="165" y="0" type="curve" smooth="yes"/>
      <point x="245" y="0"/>
      <point x="311" y="-5"/>
      <point x="311" y="-5" type="curve"/>
      <point x="318" y="54" type="line"/>
      <point x="228" y="61" type="line"/>
      <point x="226" y="73"/>
      <point x="222" y="113"/>
      <point x="221" y="151" type="curve"/>
      <point x="249" y="150"/>
      <point x="281" y="149"/>
      <point x="309" y="149" type="curve" smooth="yes"/>
      <point x="443" y="149"/>
      <point x="555" y="225"/>
      <point x="555" y="360" type="curve" smooth="yes"/>
      <point x="555" y="502"/>
      <point x="470" y="573"/>
      <point x="332" y="573" type="curve" smooth="yes"/>
      <point x="301" y="573"/>
      <point x="260" y="570"/>
      <point x="222" y="567" type="curve"/>
      <point x="223" y="600"/>
      <point x="226" y="633"/>
      <point x="228" y="644" type="curve"/>
    </contour>
    <contour>
      <point x="221" y="517" type="line"/>
      <point x="247" y="520"/>
      <point x="274" y="523"/>
      <point x="290" y="523" type="curve" smooth="yes"/>
      <point x="394" y="523"/>
      <point x="461" y="468"/>
      <point x="461" y="360" type="curve" smooth="yes"/>
      <point x="461" y="252"/>
      <point x="393" y="199"/>
      <point x="289" y="199" type="curve" smooth="yes"/>
      <point x="272" y="199"/>
      <point x="246" y="201"/>
      <point x="221" y="204" type="curve"/>
    </contour>
  </outline>
</glyph>
<glyph name="germandbls" format="1">
  <advance width="625"/>
  <unicode hex="00DF"/>
  <outline>
    <contour>
      <point x="34" y="45" type="line"/>
      <point x="39" y="-5" type="line"/>
      <point x="39" y="-5"/>
      <point x="137" y="0"/>
      <point x="157" y="0" type="curve" smooth="yes"/>
      <point x="209" y="0" type="line"/>
      <point x="206" y="52"/>
      <point x="203" y="117"/>
      <point x="203" y="167" type="curve" smooth="yes"/>
      <point x="203" y="546" type="line" smooth="yes"/>
      <point x="203" y="648"/>
      <point x="219" y="711"/>
      <point x="324" y="711" type="curve" smooth="yes"/>
      <point x="400" y="711"/>
      <point x="460" y="674"/>
      <point x="460" y="609" type="curve" smooth="yes"/>
      <point x="460" y="494"/>
      <point x="297" y="505"/>
      <point x="297" y="370" type="curve" smooth="yes"/>
      <point x="297" y="215"/>
      <point x="527" y="222"/>
      <point x="527" y="117" type="curve" smooth="yes"/>
      <point x="527" y="67"/>
      <point x="498" y="41"/>
      <point x="448" y="41" type="curve" smooth="yes"/>
      <point x="420" y="41"/>
      <point x="394" y="46"/>
      <point x="374" y="64" type="curve"/>
      <point x="368" y="88"/>
      <point x="362" y="114"/>
      <point x="362" y="124" type="curve" smooth="yes"/>
      <point x="362" y="162" type="line"/>
      <point x="304" y="165" type="line"/>
      <point x="293" y="29" type="line"/>
      <point x="293" y="29"/>
      <point x="359" y="-10"/>
      <point x="449" y="-10" type="curve" smooth="yes"/>
      <point x="551" y="-10"/>
      <point x="612" y="30"/>
      <point x="612" y="132" type="curve" smooth="yes"/>
      <point x="612" y="278"/>
      <point x="379" y="290"/>
      <point x="379" y="377" type="curve" smooth="yes"/>
      <point x="379" y="467"/>
      <point x="530" y="465"/>
      <point x="530" y="609" type="curve" smooth="yes"/>
      <point x="530" y="717"/>
      <point x="432" y="770"/>
      <point x="324" y="770" type="curve" smooth="yes"/>
      <point x="199" y="770"/>
      <point x="122" y="702"/>
      <point x="122" y="577" type="curve" smooth="yes"/>
      <point x="122" y="511" type="line"/>
      <point x="99" y="497"/>
      <point x="75" y="493"/>
      <point x="42" y="482" type="curve"/>
      <point x="45" y="440" type="line"/>
      <point x="122" y="440" type="line"/>
      <point x="122" y="137" type="line" smooth="yes"/>
      <point x="122" y="120"/>
      <point x="115" y="74"/>
      <point x="113" y="61" type="curve"/>
    </contour>
  </outline>
</glyph>
<glyph name="agrave" format="1">
  <advance width="511"/>
  <unicode hex="00E0"/>
  <outline>
    <contour>
      <point x="362" y="0" type="line"/>
      <point x="442" y="0"/>
      <point x="492" y="0"/>
      <point x="492" y="0" type="curve"/>
      <point x="498" y="54" type="line"/>
      <point x="429" y="61" type="line"/>
      <point x="429" y="61"/>
      <point x="419" y="117"/>
      <point x="419" y="167" type="curve" smooth="yes"/>
      <point x="419" y="291" type="line" smooth="yes"/>
      <point x="419" y="444"/>
      <point x="373" y="503"/>
      <point x="254" y="503" type="curve" smooth="yes"/>
      <point x="194" y="503"/>
      <point x="133" y="495"/>
      <point x="73" y="479" type="curve"/>
      <point x="84" y="343" type="line"/>
      <point x="142" y="346" type="line"/>
      <point x="142" y="387" type="line"/>
      <point x="149" y="429" type="line"/>
      <point x="174" y="441"/>
      <point x="211" y="449"/>
      <point x="244" y="449" type="curve" smooth="yes"/>
      <point x="307" y="449"/>
      <point x="338" y="404"/>
      <point x="338" y="311" type="curve" smooth="yes"/>
      <point x="338" y="278" type="line"/>
      <point x="178" y="251" type="line" smooth="yes"/>
      <point x="88" y="236"/>
      <point x="44" y="190"/>
      <point x="44" y="118" type="curve" smooth="yes"/>
      <point x="44" y="40"/>
      <point x="100" y="-10"/>
      <point x="189" y="-10" type="curve" smooth="yes"/>
      <point x="254" y="-10"/>
      <point x="322" y="28"/>
      <point x="348" y="79" type="curve"/>
    </contour>
    <contour>
      <point x="338" y="227" type="line"/>
      <point x="338" y="167" type="line"/>
      <point x="328" y="102"/>
      <point x="272" y="54"/>
      <point x="205" y="54" type="curve" smooth="yes"/>
      <point x="158" y="54"/>
      <point x="132" y="83"/>
      <point x="132" y="133" type="curve" smooth="yes"/>
      <point x="132" y="168"/>
      <point x="155" y="193"/>
      <point x="195" y="200" type="curve" smooth="yes"/>
    </contour>
    <contour>
      <point x="313" y="564" type="line"/>
      <point x="342" y="600" type="line"/>
      <point x="162" y="750" type="line"/>
      <point x="119" y="695" type="line"/>
    </contour>
    <contour>
      <point x="491" y="0" type="move" name="ogonek"/>
    </contour>
    <contour>
      <point x="247" y="494" type="move" name="top"/>
    </contour>
    <contour>
      <point x="247" y="494" type="move" name="_top"/>
    </contour>
    <contour>
      <point x="249" y="0" type="move" name="bottom"/>
    </contour>
  </outline>
</glyph>
<glyph name="ccedilla" format="1">
  <advance width="477"/>
  <unicode hex="00E7"/>
  <outline>
    <contour>
      <point x="126" y="503"/>
      <point x="49" y="399"/>
      <point x="49" y="246" type="curve" smooth="yes"/>
      <point x="49" y="93"/>
      <point x="125" y="-10"/>
      <point x="278" y="-10" type="curve" smooth="yes"/>
      <point x="382" y="-10"/>
      <point x="447" y="44"/>
      <point x="447" y="44" type="curve"/>
      <point x="419" y="91" type="line"/>
      <point x="419" y="91"/>
      <point x="357" y="55"/>
      <point x="279" y="55" type="curve" smooth="yes"/>
      <point x="179" y="55"/>
      <point x="143" y="146"/>
      <point x="143" y="246" type="curve" smooth="yes"/>
      <point x="143" y="346"/>
      <point x="179" y="446"/>
      <point x="279" y="446" type="curve" smooth="yes"/>
      <point x="308" y="446"/>
      <point x="332" y="440"/>
      <point x="361" y="416" type="curve"/>
      <point x="365" y="402"/>
      <point x="368" y="389"/>
      <point x="368" y="382" type="curve" smooth="yes"/>
      <point x="368" y="346" type="line"/>
      <point x="426" y="343" type="line"/>
      <point x="436" y="468" type="line"/>
      <point x="376" y="488"/>
      <point x="338" y="503"/>
      <point x="279" y="503" type="curve" smooth="yes"/>
    </contour>
    <contour>
      <point x="294" y="10" type="line"/>
      <point x="246" y="10" type="line"/>
      <point x="237" y="-94" type="line"/>
      <point x="248" y="-104" type="line"/>
      <point x="248" y="-104"/>
      <point x="263" y="-103"/>
      <point x="269" y="-103" type="curve" smooth="yes"/>
      <point x="296" y="-103"/>
      <point x="316" y="-116"/>
      <point x="316" y="-146" type="curve" smooth="yes"/>
      <point x="316" y="-176"/>
      <point x="294" y="-193"/>
      <point x="262" y="-193" type="curve" smooth="yes"/>
      <point x="242" y="-193"/>
      <point x="220" y="-187"/>
      <point x="204" y="-182" type="curve"/>
      <point x="191" y="-217" type="line"/>
      <point x="208" y="-225"/>
      <point x="237" y="-235"/>
      <point x="274" y="-235" type="curve" smooth="yes"/>
      <point x="333" y="-235"/>
      <point x="381" y="-200"/>
      <point x="381" y="-146" type="curve" smooth="yes"/>
      <point x="381" y="-92"/>
      <point x="339" y="-60"/>
      <point x="280" y="-59" type="curve"/>
    </contour>
    <contour>
      <point x="266" y="0" type="move" name="_bottom"/>
    </contour>
    <contour>
      <point x="266" y="0" type="move" name="bottom"/>
    </contour>
    <contour>
      <point x="282" y="494" type="move" name="top"/>
    </contour>
  </outline>
</glyph>
<glyph name="icircumflex" format="1">
  <advance width="290"/>
  <unicode hex="00EE"/>
  <outline>
    <contour>
      <point x="277" y="54" type="line"/>
      <point x="199" y="61" type="line"/>
      <point x="199" y="61"/>
      <point x="192" y="117"/>
      <point x="192" y="167" type="curve" smooth="yes"/>
      <point x="192" y="323" type="line" smooth="yes"/>
      <point x="192" y="373"/>
      <point x="199" y="476"/>
      <point x="199" y="476" type="curve"/>
      <point x="180" y="494" type="line"/>
      <point x="122" y="494" type="line" smooth="yes"/>
      <point x="102" y="494"/>
      <point x="30" y="498"/>
      <point x="30" y="498" type="curve"/>
      <point x="25" y="445" type="line"/>
      <point x="101" y="429" type="line"/>
      <point x="101" y="429"/>
      <point x="111" y="373"/>
      <point x="111" y="353" type="curve" smooth="yes"/>
      <point x="111" y="137" type="line" smooth="yes"/>
      <point x="111" y="117"/>
      <point x="101" y="61"/>
      <point x="101" y="61" type="curve"/>
      <point x="25" y="45" type="line"/>
      <point x="30" y="-5" type="line"/>
      <point x="30" y="-5"/>
      <point x="121" y="0"/>
      <point x="141" y="0" type="curve" smooth="yes"/>
      <point x="221" y="0"/>
      <point x="271" y="0"/>
      <point x="271" y="0" type="curve"/>
    </contour>
    <contour>
      <point x="85" y="727" type="line"/>
      <point x="-46" y="596" type="line"/>
      <point x="-13" y="564" type="line"/>
      <point x="159" y="693" type="line"/>
      <point x="126" y="727" type="line"/>
    </contour>
    <contour>
      <point x="253" y="564" type="line"/>
      <point x="286" y="596" type="line"/>
      <point x="155" y="727" type="line"/>
      <point x="104" y="727" type="line"/>
      <point x="81" y="693" type="line"/>
    </contour>
    <contour>
      <point x="271" y="0" type="move" name="ogonek"/>
    </contour>
    <contour>
      <point x="119" y="494" type="move" name="top"/>
    </contour>
    <contour>
      <point x="119" y="494" type="move" name="_top"/>
    </contour>
  </outline>
</glyph>
<glyph name="otilde" format="1">
  <advance width="558"/>
  <unicode hex="00F5"/>
  <outline>
    <contour>
      <point x="509" y="401"/>
      <point x="433" y="503"/>
      <point x="279" y="503" type="curve" smooth="yes"/>
      <point x="127" y="503"/>
      <point x="49" y="399"/>
      <point x="49" y="246" type="curve"/>
      <point x="49" y="94"/>
      <point x="127" y="-10"/>
      <point x="279" y="-10" type="curve"/>
      <point x="431" y="-10"/>
      <point x="509" y="94"/>
      <point x="509" y="246" type="curve"/>
    </contour>
    <contour>
      <point x="415" y="143"/>
      <point x="382" y="47"/>
      <point x="279" y="47" type="curve"/>
      <point x="176" y="47"/>
      <point x="143" y="143"/>
      <point x="143" y="246" type="curve"/>
      <point x="143" y="349"/>
      <point x="176" y="446"/>
      <point x="279" y="446" type="curve" smooth="yes"/>
      <point x="382" y="446"/>
      <point x="415" y="349"/>
      <point x="415" y="246" type="curve"/>
    </contour>
    <contour>
      <point x="404" y="714" type="line"/>
      <point x="404" y="714"/>
      <point x="378" y="664"/>
      <point x="351" y="664" type="curve" smooth="yes"/>
      <point x="311" y="664"/>
      <point x="236" y="705"/>
      <point x="196" y="705" type="curve" smooth="yes"/>
      <point x="156" y="705"/>
      <point x="114" y="603"/>
      <point x="114" y="603" type="curve"/>
      <point x="150" y="582" type="line"/>
      <point x="150" y="582"/>
      <point x="176" y="635"/>
      <point x="203" y="635" type="curve" smooth="yes"/>
      <point x="243" y="635"/>
      <point x="317" y="594"/>
      <point x="357" y="594" type="curve" smooth="yes"/>
      <point x="397" y="594"/>
      <point x="440" y="693"/>
      <point x="440" y="693" type="curve"/>
    </contour>
    <contour>
      <point x="277" y="494" type="move" name="top"/>
    </contour>
    <contour>
      <point x="277" y="494" type="move" name="_top"/>
    </contour>
    <contour>
      <point x="449" y="358" type="move" name="horn"/>
    </contour>
    <contour>
      <point x="277" y="0" type="move" name="bottom"/>
    </contour>
  </outline>
</glyph>
<glyph name="oslash" format="1">
  <advance width="540"/>
  <unicode hex="00F8"/>
  <outline>
    <contour>
      <point x="122" y="-99" type="line"/>
      <point x="480" y="578" type="line"/>
      <point x="440" y="598" type="line"/>
      <point x="83" y="-79" type="line"/>
    </contour>
    <contour>
      <point x="500" y="401"/>
      <point x="424" y="503"/>
      <point x="270" y="503" type="curve" smooth="yes"/>
      <point x="118" y="503"/>
      <point x="40" y="399"/>
      <point x="40" y="246" type="curve"/>
      <point x="40" y="94"/>
      <point x="118" y="-10"/>
      <point x="270" y="-10" type="curve"/>
      <point x="422" y="-10"/>
      <point x="500" y="94"/>
      <point x="500" y="246" type="curve"/>
    </contour>
    <contour>
      <point x="406" y="143"/>
      <point x="373" y="47"/>
      <point x="270" y="47" type="curve"/>
      <point x="167" y="47"/>
      <point x="134" y="143"/>
      <point x="134" y="246" type="curve"/>
      <point x="134" y="349"/>
      <point x="167" y="446"/>
      <point x="270" y="446" type="curve" smooth="yes"/>
      <point x="373" y="446"/>
      <point x="406" y="349"/>
      <point x="406" y="246" type="curve"/>
    </contour>
    <contour>
      <point x="270" y="494" type="move" name="top"/>
    </contour>
  </outline>
</glyph>
<glyph name="ucircumflex" format="1">
  <advance width="574"/>
  <unicode hex="00FB"/>
  <outline>
    <contour>
      <point x="315" y="445" type="line"/>
      <point x="386" y="429" type="line"/>
      <point x="386" y="429"/>
      <point x="396" y="373"/>
      <point x="396" y="353" type="curve" smooth="yes"/>
      <point x="396" y="210" type="line" smooth="yes"/>
      <point x="396" y="130"/>
      <point x="352" y="54"/>
      <point x="270" y="54" type="curve" smooth="yes"/>
      <point x="196" y="54"/>
      <point x="171" y="109"/>
      <point x="171" y="183" type="curve" smooth="yes"/>
      <point x="171" y="323" type="line" smooth="yes"/>
      <point x="171" y="373"/>
      <point x="178" y="476"/>
      <point x="178" y="476" type="curve"/>
      <point x="159" y="494" type="line"/>
      <point x="101" y="494" type="line" smooth="yes"/>
      <point x="81" y="494"/>
      <point x="19" y="498"/>
      <point x="19" y="498" type="curve"/>
      <point x="14" y="445" type="line"/>
      <point x="80" y="429" type="line"/>
      <point x="80" y="429"/>
      <point x="90" y="373"/>
      <point x="90" y="353" type="curve" smooth="yes"/>
      <point x="90" y="217" type="line" smooth="yes"/>
      <point x="90" y="82"/>
      <point x="114" y="-10"/>
      <point x="252" y="-10" type="curve" smooth="yes"/>
      <point x="345" y="-10"/>
      <point x="388" y="45"/>
      <point x="407" y="78" type="curve"/>
      <point x="420" y="0" type="line"/>
      <point x="500" y="0"/>
      <point x="550" y="0"/>
      <point x="550" y="0" type="curve"/>
      <point x="556" y="54" type="line"/>
      <point x="487" y="61" type="line"/>
      <point x="487" y="61"/>
      <point x="477" y="117"/>
      <point x="477" y="167" type="curve" smooth="yes"/>
      <point x="477" y="323" type="line" smooth="yes"/>
      <point x="477" y="373"/>
      <point x="484" y="476"/>
      <point x="484" y="476" type="curve"/>
      <point x="465" y="494" type="line"/>
      <point x="407" y="494" type="line" smooth="yes"/>
      <point x="387" y="494"/>
      <point x="320" y="498"/>
      <point x="320" y="498" type="curve"/>
    </contour>
    <contour>
      <point x="231" y="727" type="line"/>
      <point x="100" y="596" type="line"/>
      <point x="133" y="564" type="line"/>
      <point x="305" y="693" type="line"/>
      <point x="272" y="727" type="line"/>
    </contour>
    <contour>
      <point x="399" y="564" type="line"/>
      <point x="432" y="596" type="line"/>
      <point x="301" y="727" type="line"/>
      <point x="250" y="727" type="line"/>
      <point x="227" y="693" type="line"/>
    </contour>
    <contour>
      <point x="550" y="0" type="move" name="ogonek"/>
    </contour>
    <contour>
      <point x="265" y="494" type="move" name="top"/>
    </contour>
    <contour>
      <point x="265" y="494" type="move" name="_top"/>
    </contour>
    <contour>
      <point x="463" y="358" type="move" name="horn"/>
    </contour>
    <contour>
      <point x="291" y="0" type="move" name="bottom"/>
    </contour>
  </outline>
</glyph>
<glyph name="thorn" format="1">
  <advance width="545"/>
  <unicode hex="00FE"/>
  <outline>
    <contour>
      <point x="1" y="707" type="line"/>
      <point x="77" y="691" type="line"/>
      <point x="77" y="691"/>
      <point x="87" y="635"/>
      <point x="87" y="615" type="curve" smooth="yes"/>
      <point x="87" y="-96" type="line" smooth="yes"/>
      <point x="87" y="-119"/>
      <point x="77" y="-167"/>
      <point x="77" y="-167" type="curve"/>
      <point x="11" y="-183" type="line"/>
      <point x="16" y="-233" type="line"/>
      <point x="16" y="-233"/>
      <point x="88" y="-228"/>
      <point x="118" y="-228" type="curve" smooth="yes"/>
      <point x="198" y="-228"/>
      <point x="266" y="-233"/>
      <point x="266" y="-233" type="curve"/>
      <point x="273" y="-174" type="line"/>
      <point x="175" y="-167" type="line"/>
      <point x="175" y="-167"/>
      <point x="168" y="-111"/>
      <point x="168" y="-61" type="curve" smooth="yes"/>
      <point x="168" y="15" type="line"/>
      <point x="204" y="-1"/>
      <point x="241" y="-10"/>
      <point x="275" y="-10" type="curve" smooth="yes"/>
      <point x="408" y="-10"/>
      <point x="505" y="102"/>
      <point x="505" y="256" type="curve" smooth="yes"/>
      <point x="505" y="413"/>
      <point x="430" y="503"/>
      <point x="300" y="503" type="curve" smooth="yes"/>
      <point x="246" y="503"/>
      <point x="185" y="461"/>
      <point x="168" y="427" type="curve"/>
      <point x="168" y="598" type="line"/>
      <point x="175" y="738" type="line"/>
      <point x="156" y="756" type="line"/>
      <point x="98" y="756" type="line" smooth="yes"/>
      <point x="78" y="756"/>
      <point x="6" y="760"/>
      <point x="6" y="760" type="curve"/>
    </contour>
    <contour>
      <point x="373" y="442"/>
      <point x="415" y="378"/>
      <point x="415" y="254" type="curve" smooth="yes"/>
      <point x="415" y="122"/>
      <point x="363" y="50"/>
      <point x="269" y="50" type="curve" smooth="yes"/>
      <point x="238" y="50"/>
      <point x="203" y="62"/>
      <point x="168" y="86" type="curve"/>
      <point x="168" y="274" type="line" smooth="yes"/>
      <point x="168" y="369"/>
      <point x="217" y="442"/>
      <point x="292" y="442" type="curve" smooth="yes"/>
    </contour>
  </outline>
</glyph>
<glyph name="ydieresis" format="1">
  <advance width="534"/>
  <unicode hex="00FF"/>
  <outline>
    <contour>
      <point x="281" y="104" type="line"/>
      <point x="182" y="349" type="line" smooth="yes"/>
      <point x="174" y="368"/>
      <point x="164" y="404"/>
      <point x="157" y="434" type="curve"/>
      <point x="229" y="441" type="line"/>
      <point x="226" y="494" type="line"/>
      <point x="226" y="494"/>
      <point x="169" y="494"/>
      <point x="89" y="494" type="curve" smooth="yes"/>
      <point x="69" y="494"/>
      <point x="7" y="497"/>
      <point x="7" y="497" type="curve"/>
      <point x="2" y="445" type="line"/>
      <point x="51" y="433" type="line"/>
      <point x="70" y="400"/>
      <point x="92" y="358"/>
      <point x="102" y="333" type="curve" smooth="yes"/>
      <point x="245" y="0" type="line"/>
      <point x="213" y="-89" type="line" smooth="yes"/>
      <point x="207" y="-104"/>
      <point x="192" y="-133"/>
      <point x="175" y="-157" type="curve"/>
      <point x="154" y="-161"/>
      <point x="121" y="-167"/>
      <point x="108" y="-167" type="curve"/>
      <point x="68" y="-166" type="line"/>
      <point x="60" y="-224" type="line"/>
      <point x="221" y="-235" type="line"/>
      <point x="427" y="319" type="line" smooth="yes"/>
      <point x="435" y="339"/>
      <point x="459" y="392"/>
      <point x="479" y="433" type="curve"/>
      <point x="532" y="441" type="line"/>
      <point x="529" y="494" type="line"/>
      <point x="529" y="494"/>
      <point x="490" y="494"/>
      <point x="414" y="494" type="curve" smooth="yes"/>
      <point x="394" y="494"/>
      <point x="327" y="497"/>
      <point x="327" y="497" type="curve"/>
      <point x="322" y="445" type="line"/>
      <point x="395" y="433" type="line"/>
      <point x="388" y="401"/>
      <point x="375" y="355"/>
      <point x="368" y="336" type="curve" smooth="yes"/>
    </contour>
    <contour>
      <point x="354" y="703"/>
      <point x="336" y="679"/>
      <point x="336" y="643" type="curve" smooth="yes"/>
      <point x="336" y="607"/>
      <point x="354" y="584"/>
      <point x="390" y="584" type="curve" smooth="yes"/>
      <point x="426" y="584"/>
      <point x="444" y="607"/>
      <point x="444" y="643" type="curve" smooth="yes"/>
      <point x="444" y="682"/>
      <point x="425" y="703"/>
      <point x="390" y="703" type="curve" smooth="yes"/>
    </contour>
    <contour>
      <point x="118" y="703"/>
      <point x="100" y="679"/>
      <point x="100" y="643" type="curve" smooth="yes"/>
      <point x="100" y="607"/>
      <point x="118" y="584"/>
      <point x="154" y="584" type="curve" smooth="yes"/>
      <point x="190" y="584"/>
      <point x="208" y="607"/>
      <point x="208" y="643" type="curve" smooth="yes"/>
      <point x="208" y="682"/>
      <point x="189" y="703"/>
      <point x="154" y="703" type="curve" smooth="yes"/>
    </contour>
    <contour>
      <point x="272" y="494" type="move" name="top"/>
    </contour>
    <contour>
      <point x="382" y="0" type="move" name="bottom"/>
    </contour>
    <contour>
      <point x="272" y="494" type="move" name="_top"/>
    </contour>
  </outline>
</glyph>
<glyph name="Amacron" format="1">
  <advance width="660"/>
  <unicode hex="0100"/>
  <outline>
    <contour>
      <point x="448" y="172" type="line" smooth="yes"/>
      <point x="460" y="137"/>
      <point x="467" y="100"/>
      <point x="475" y="64" type="curve"/>
      <point x="402" y="44" type="line"/>
      <point x="406" y="-5" type="line"/>
      <point x="406" y="-5"/>
      <point x="518" y="0"/>
      <point x="549" y="0" type="curve"/>
      <point x="650" y="0" type="line"/>
      <point x="655" y="54" type="line"/>
      <point x="593" y="64" type="line"/>
      <point x="580" y="91"/>
      <point x="564" y="120"/>
      <point x="554" y="149" type="curve" smooth="yes"/>
      <point x="348" y="715" type="line"/>
      <point x="290" y="705" type="line"/>
      <point x="111" y="160" type="line" smooth="yes"/>
      <point x="100" y="126"/>
      <point x="82" y="89"/>
      <point x="68" y="61" type="curve"/>
      <point x="5" y="44" type="line"/>
      <point x="9" y="-5" type="line"/>
      <point x="9" y="-5"/>
      <point x="119" y="0"/>
      <point x="144" y="0" type="curve"/>
      <point x="230" y="0" type="line"/>
      <point x="235" y="54" type="line"/>
      <point x="165" y="64" type="line"/>
      <point x="167" y="85"/>
      <point x="169" y="107"/>
      <point x="175" y="127" type="curve" smooth="yes"/>
      <point x="313" y="557" type="line"/>
    </contour>
    <contour>
      <point x="412" y="285" type="line"/>
      <point x="220" y="285" type="line"/>
      <point x="202" y="232" type="line"/>
      <point x="432" y="232" type="line"/>
    </contour>
    <contour>
      <point x="478" y="755" type="line"/>
      <point x="483" y="815" type="line"/>
      <point x="161" y="815" type="line"/>
      <point x="161" y="755" type="line"/>
    </contour>
    <contour>
      <point x="650" y="0" type="move" name="ogonek"/>
    </contour>
    <contour>
      <point x="322" y="705" type="move" name="top"/>
    </contour>
    <contour>
      <point x="322" y="705" type="move" name="_top"/>
    </contour>
    <contour>
      <point x="318" y="0" type="move" name="bottom"/>
    </contour>
  </outline>
</glyph>
<glyph name="Aogonek" format="1">
  <advance width="660"/>
  <unicode hex="0104"/>
  <outline>
    <contour>
      <point x="448" y="172" type="line" smooth="yes"/>
      <point x="460" y="137"/>
      <point x="467" y="100"/>
      <point x="475" y="64" type="curve"/>
      <point x="402" y="44" type="line"/>
      <point x="406" y="-5" type="line"/>
      <point x="406" y="-5"/>
      <point x="518" y="0"/>
      <point x="549" y="0" type="curve"/>
      <point x="650" y="0" type="line"/>
      <point x="655" y="54" type="line"/>
      <point x="593" y="64" type="line"/>
      <point x="580" y="91"/>
      <point x="564" y="120"/>
      <point x="554" y="149" type="curve" smooth="yes"/>
      <point x="348" y="715" type="line"/>
      <point x="290" y="705" type="line"/>
      <point x="111" y="160" type="line" smooth="yes"/>
      <point x="100" y="126"/>
      <point x="82" y="89"/>
      <point x="68" y="61" type="curve"/>
      <point x="5" y="44" type="line"/>
      <point x="9" y="-5" type="line"/>
      <point x="9" y="-5"/>
      <point x="119" y="0"/>
      <point x="144" y="0" type="curve"/>
      <point x="230" y="0" type="line"/>
      <point x="235" y="54" type="line"/>
      <point x="165" y="64" type="line"/>
      <point x="167" y="85"/>
      <point x="169" y="107"/>
      <point x="175" y="127" type="curve" smooth="yes"/>
      <point x="313" y="557" type="line"/>
    </contour>
    <contour>
      <point x="412" y="285" type="line"/>
      <point x="220" y="285" type="line"/>
      <point x="202" y="232" type="line"/>
      <point x="432" y="232" type="line"/>
    </contour>
    <contour>
      <point x="502" y="-29"/>
      <point x="473" y="-74"/>
      <point x="473" y="-120" type="curve" smooth="yes"/>
      <point x="473" y="-189"/>
      <point x="537" y="-211"/>
      <point x="588" y="-211" type="curve" smooth="yes"/>
      <point x="610" y="-211"/>
      <point x="634" y="-206"/>
      <point x="652" y="-199" type="curve"/>
      <point x="641" y="-156" type="line"/>
      <point x="630" y="-159"/>
      <point x="618" y="-161"/>
      <point x="607" y="-161" type="curve" smooth="yes"/>
      <point x="567" y="-161"/>
      <point x="548" y="-141"/>
      <point x="548" y="-115" type="curve" smooth="yes"/>
      <point x="548" y="-78"/>
      <point x="586" y="-26"/>
      <point x="650" y="0" type="curve"/>
      <point x="584" y="10" type="line"/>
    </contour>
    <contour>
      <point x="650" y="0" type="move" name="_ogonek"/>
    </contour>
    <contour>
      <point x="650" y="0" type="move" name="ogonek"/>
    </contour>
    <contour>
      <point x="322" y="705" type="move" name="top"/>
    </contour>
    <contour>
      <point x="318" y="0" type="move" name="bottom"/>
    </contour>
  </outline>
</glyph>
<glyph name="aogonek" format="1">
  <advance width="511"/>
  <unicode hex="0105"/>
  <outline>
    <contour>
      <point x="362" y="0" type="line"/>
      <point x="442" y="0"/>
      <point x="492" y="0"/>
      <point x="492" y="0" type="curve"/>
      <point x="498" y="54" type="line"/>
      <point x="429" y="61" type="line"/>
      <point x="429" y="61"/>
      <point x="419" y="117"/>
      <point x="419" y="167" type="curve" smooth="yes"/>
      <point x="419" y="291" type="line" smooth="yes"/>
      <point x="419" y="444"/>
      <point x="373" y="503"/>
      <point x="254" y="503" type="curve" smooth="yes"/>
      <point x="194" y="503"/>
      <point x="133" y="495"/>
      <point x="73" y="479" type="curve"/>
      <point x="84" y="343" type="line"/>
      <point x="142" y="346" type="line"/>
      <point x="142" y="387" type="line"/>
      <point x="149" y="429" type="line"/>
      <point x="174" y="441"/>
      <point x="211" y="449"/>
      <point x="244" y="449" type="curve" smooth="yes"/>
      <point x="307" y="449"/>
      <point x="338" y="404"/>
      <point x="338" y="311" type="curve" smooth="yes"/>
      <point x="338" y="278" type="line"/>
      <point x="178" y="251" type="line" smooth="yes"/>
      <point x="88" y="236"/>
      <point x="44" y="190"/>
      <point x="44" y="118" type="curve" smooth="yes"/>
      <point x="44" y="40"/>
      <point x="100" y="-10"/>
      <point x="189" y="-10" type="curve" smooth="yes"/>
      <point x="254" y="-10"/>
      <point x="322" y="28"/>
      <point x="348" y="79" type="curve"/>
    </contour>
    <contour>
      <point x="338" y="227" type="line"/>
      <point x="338" y="167" type="line"/>
      <point x="328" y="102"/>
      <point x="272" y="54"/>
      <point x="205" y="54" type="curve" smooth="yes"/>
      <point x="158" y="54"/>
      <point x="132" y="83"/>
      <point x="132" y="133" type="curve" smooth="yes"/>
      <point x="132" y="168"/>
      <point x="155" y="193"/>
      <point x="195" y="200" type="curve" smooth="yes"/>
    </contour>
    <contour>
      <point x="343" y="-29"/>
      <point x="314" y="-74"/>
      <point x="314" y="-120" type="curve" smooth="yes"/>
      <point x="314" y="-189"/>
      <point x="378" y="-211"/>
      <point x="429" y="-211" type="curve" smooth="yes"/>
      <point x="451" y="-211"/>
      <point x="475" y="-206"/>
      <point x="493" y="-199" type="curve"/>
      <point x="482" y="-156" type="line"/>
      <point x="471" y="-159"/>
      <point x="459" y="-161"/>
      <point x="448" y="-161" type="curve" smooth="yes"/>
      <point x="408" y="-161"/>
      <point x="389" y="-141"/>
      <point x="389" y="-115" type="curve" smooth="yes"/>
      <point x="389" y="-78"/>
      <point x="427" y="-26"/>
      <point x="491" y="0" type="curve"/>
      <point x="425" y="10" type="line"/>
    </contour>
    <contour>
      <point x="491" y="0" type="move" name="_ogonek"/>
    </contour>
    <contour>
      <point x="491" y="0" type="move" name="ogonek"/>
    </contour>
    <contour>
      <point x="247" y="494" type="move" name="top"/>
    </contour>
    <contour>
      <point x="249" y="0" type="move" name="bottom"/>
    </contour>
  </outline>
</glyph>
<glyph name="Cacute" format="1">
  <advance width="610"/>
  <unicode hex="0106"/>
  <outline>
    <contour>
      <point x="557" y="170" type="line"/>
      <point x="498" y="168" type="line"/>
      <point x="498" y="168"/>
      <point x="498" y="131"/>
      <point x="496" y="121" type="curve"/>
      <point x="496" y="111"/>
      <point x="489" y="88"/>
      <point x="482" y="65" type="curve"/>
      <point x="440" y="52"/>
      <point x="387" y="43"/>
      <point x="346" y="43" type="curve" smooth="yes"/>
      <point x="203" y="43"/>
      <point x="133" y="180"/>
      <point x="133" y="353" type="curve" smooth="yes"/>
      <point x="133" y="526"/>
      <point x="203" y="662"/>
      <point x="347" y="662" type="curve" smooth="yes"/>
      <point x="385" y="662"/>
      <point x="434" y="652"/>
      <point x="473" y="639" type="curve"/>
      <point x="479" y="619"/>
      <point x="485" y="598"/>
      <point x="485" y="589" type="curve" smooth="yes"/>
      <point x="485" y="542" type="line"/>
      <point x="544" y="538" type="line"/>
      <point x="554" y="686" type="line"/>
      <point x="491" y="702"/>
      <point x="429" y="720"/>
      <point x="347" y="720" type="curve" smooth="yes"/>
      <point x="137" y="720"/>
      <point x="30" y="570"/>
      <point x="30" y="352" type="curve" smooth="yes"/>
      <point x="30" y="134"/>
      <point x="137" y="-15"/>
      <point x="347" y="-15" type="curve" smooth="yes"/>
      <point x="428" y="-15"/>
      <point x="500" y="3"/>
      <point x="563" y="19" type="curve"/>
    </contour>
    <contour>
      <point x="463" y="889" type="line"/>
      <point x="234" y="788" type="line"/>
      <point x="249" y="746" type="line"/>
      <point x="489" y="824" type="line"/>
    </contour>
    <contour>
      <point x="344" y="705" type="move" name="top"/>
    </contour>
    <contour>
      <point x="347" y="0" type="move" name="bottom"/>
    </contour>
    <contour>
      <point x="344" y="705" type="move" name="_top"/>
    </contour>
  </outline>
</glyph>
<glyph name="cacute" format="1">
  <advance width="477"/>
  <unicode hex="0107"/>
  <outline>
    <contour>
      <point x="126" y="503"/>
      <point x="49" y="399"/>
      <point x="49" y="246" type="curve" smooth="yes"/>
      <point x="49" y="93"/>
      <point x="125" y="-10"/>
      <point x="278" y="-10" type="curve" smooth="yes"/>
      <point x="382" y="-10"/>
      <point x="447" y="44"/>
      <point x="447" y="44" type="curve"/>
      <point x="419" y="91" type="line"/>
      <point x="419" y="91"/>
      <point x="357" y="55"/>
      <point x="279" y="55" type="curve" smooth="yes"/>
      <point x="179" y="55"/>
      <point x="143" y="146"/>
      <point x="143" y="246" type="curve" smooth="yes"/>
      <point x="143" y="346"/>
      <point x="179" y="446"/>
      <point x="279" y="446" type="curve" smooth="yes"/>
      <point x="308" y="446"/>
      <point x="332" y="440"/>
      <point x="361" y="416" type="curve"/>
      <point x="365" y="402"/>
      <point x="368" y="389"/>
      <point x="368" y="382" type="curve" smooth="yes"/>
      <point x="368" y="346" type="line"/>
      <point x="426" y="343" type="line"/>
      <point x="436" y="468" type="line"/>
      <point x="376" y="488"/>
      <point x="338" y="503"/>
      <point x="279" y="503" type="curve" smooth="yes"/>
    </contour>
    <contour>
      <point x="367" y="750" type="line"/>
      <point x="187" y="600" type="line"/>
      <point x="216" y="564" type="line"/>
      <point x="410" y="695" type="line"/>
    </contour>
    <contour>
      <point x="282" y="494" type="move" name="top"/>
    </contour>
    <contour>
      <point x="266" y="0" type="move" name="bottom"/>
    </contour>
    <contour>
      <point x="282" y="494" type="move" name="_top"/>
    </contour>
  </outline>
</glyph>
<glyph name="Cdotaccent" format="1">
  <advance width="610"/>
  <unicode hex="010A"/>
  <outline>
    <contour>
      <point x="557" y="170" type="line"/>
      <point x="498" y="168" type="line"/>
      <point x="498" y="168"/>
      <point x="498" y="131"/>
      <point x="496" y="121" type="curve"/>
      <point x="496" y="111"/>
      <point x="489" y="88"/>
      <point x="482" y="65" type="curve"/>
      <point x="440" y="52"/>
      <point x="387" y="43"/>
      <point x="346" y="43" type="curve" smooth="yes"/>
      <point x="203" y="43"/>
      <point x="133" y="180"/>
      <point x="133" y="353" type="curve" smooth="yes"/>
      <point x="133" y="526"/>
      <point x="203" y="662"/>
      <point x="347" y="662" type="curve" smooth="yes"/>
      <point x="385" y="662"/>
      <point x="434" y="652"/>
      <point x="473" y="639" type="curve"/>
      <point x="479" y="619"/>
      <point x="485" y="598"/>
      <point x="485" y="589" type="curve" smooth="yes"/>
      <point x="485" y="542" type="line"/>
      <point x="544" y="538" type="line"/>
      <point x="554" y="686" type="line"/>
      <point x="491" y="702"/>
      <point x="429" y="720"/>
      <point x="347" y="720" type="curve" smooth="yes"/>
      <point x="137" y="720"/>
      <point x="30" y="570"/>
      <point x="30" y="352" type="curve" smooth="yes"/>
      <point x="30" y="134"/>
      <point x="137" y="-15"/>
      <point x="347" y="-15" type="curve" smooth="yes"/>
      <point x="428" y="-15"/>
      <point x="500" y="3"/>
      <point x="563" y="19" type="curve"/>
    </contour>
    <contour>
      <point x="306" y="872"/>
      <point x="285" y="845"/>
      <point x="285" y="807" type="curve" smooth="yes"/>
      <point x="285" y="769"/>
      <point x="306" y="743"/>
      <point x="344" y="743" type="curve" smooth="yes"/>
      <point x="382" y="743"/>
      <point x="403" y="769"/>
      <point x="403" y="807" type="curve" smooth="yes"/>
      <point x="403" y="848"/>
      <point x="381" y="872"/>
      <point x="344" y="872" type="curve" smooth="yes"/>
    </contour>
    <contour>
      <point x="344" y="705" type="move" name="top"/>
    </contour>
    <contour>
      <point x="347" y="0" type="move" name="bottom"/>
    </contour>
    <contour>
      <point x="344" y="705" type="move" name="_top"/>
    </contour>
  </outline>
</glyph>
<glyph name="cdotaccent" format="1">
  <advance width="477"/>
  <unicode hex="010B"/>
  <outline>
    <contour>
      <point x="126" y="503"/>
      <point x="49" y="399"/>
      <point x="49" y="246" type="curve" smooth="yes"/>
      <point x="49" y="93"/>
      <point x="125" y="-10"/>
      <point x="278" y="-10" type="curve" smooth="yes"/>
      <point x="382" y="-10"/>
      <point x="447" y="44"/>
      <point x="447" y="44" type="curve"/>
      <point x="419" y="91" type="line"/>
      <point x="419" y="91"/>
      <point x="357" y="55"/>
      <point x="279" y="55" type="curve" smooth="yes"/>
      <point x="179" y="55"/>
      <point x="143" y="146"/>
      <point x="143" y="246" type="curve" smooth="yes"/>
      <point x="143" y="346"/>
      <point x="179" y="446"/>
      <point x="279" y="446" type="curve" smooth="yes"/>
      <point x="308" y="446"/>
      <point x="332" y="440"/>
      <point x="361" y="416" type="curve"/>
      <point x="365" y="402"/>
      <point x="368" y="389"/>
      <point x="368" y="382" type="curve" smooth="yes"/>
      <point x="368" y="346" type="line"/>
      <point x="426" y="343" type="line"/>
      <point x="436" y="468" type="line"/>
      <point x="376" y="488"/>
      <point x="338" y="503"/>
      <point x="279" y="503" type="curve" smooth="yes"/>
    </contour>
    <contour>
      <point x="244" y="700"/>
      <point x="223" y="673"/>
      <point x="223" y="635" type="curve" smooth="yes"/>
      <point x="223" y="597"/>
      <point x="244" y="571"/>
      <point x="282" y="571" type="curve" smooth="yes"/>
      <point x="320" y="571"/>
      <point x="341" y="597"/>
      <point x="341" y="635" type="curve" smooth="yes"/>
      <point x="341" y="676"/>
      <point x="319" y="700"/>
      <point x="282" y="700" type="curve" smooth="yes"/>
    </contour>
    <contour>
      <point x="282" y="494" type="move" name="top"/>
    </contour>
    <contour>
      <point x="266" y="0" type="move" name="bottom"/>
    </contour>
    <contour>
      <point x="282" y="494" type="move" name="_top"/>
    </contour>
  </outline>
</glyph>
<glyph name="dcaron" format="1">
  <advance width="563"/>
  <unicode hex="010F"/>
  <outline>
    <contour>
      <point x="546" y="54" type="line"/>
      <point x="477" y="61" type="line"/>
      <point x="477" y="61"/>
      <point x="467" y="117"/>
      <point x="467" y="167" type="curve" smooth="yes"/>
      <point x="467" y="585" type="line" smooth="yes"/>
      <point x="467" y="635"/>
      <point x="474" y="738"/>
      <point x="474" y="738" type="curve"/>
      <point x="455" y="756" type="line"/>
      <point x="397" y="756" type="line" smooth="yes"/>
      <point x="377" y="756"/>
      <point x="293" y="760"/>
      <point x="293" y="760" type="curve"/>
      <point x="288" y="707" type="line"/>
      <point x="376" y="691" type="line"/>
      <point x="376" y="691"/>
      <point x="386" y="635"/>
      <point x="386" y="615" type="curve" smooth="yes"/>
      <point x="386" y="479" type="line"/>
      <point x="333" y="498"/>
      <point x="303" y="503"/>
      <point x="261" y="503" type="curve" smooth="yes"/>
      <point x="131" y="503"/>
      <point x="51" y="405"/>
      <point x="51" y="247" type="curve" smooth="yes"/>
      <point x="51" y="87"/>
      <point x="127" y="-10"/>
      <point x="252" y="-10" type="curve" smooth="yes"/>
      <point x="305" y="-10"/>
      <point x="376" y="34"/>
      <point x="396" y="80" type="curve"/>
      <point x="410" y="0" type="line"/>
      <point x="490" y="0"/>
      <point x="540" y="0"/>
      <point x="540" y="0" type="curve"/>
    </contour>
    <contour>
      <point x="386" y="207" type="line"/>
      <point x="386" y="111"/>
      <point x="339" y="54"/>
      <point x="259" y="54" type="curve" smooth="yes"/>
      <point x="187" y="54"/>
      <point x="143" y="127"/>
      <point x="143" y="246" type="curve" smooth="yes"/>
      <point x="143" y="370"/>
      <point x="190" y="442"/>
      <point x="271" y="442" type="curve" smooth="yes"/>
      <point x="313" y="442"/>
      <point x="348" y="431"/>
      <point x="386" y="406" type="curve"/>
    </contour>
    <contour>
      <point x="602" y="705" type="line"/>
      <point x="589" y="462" type="line"/>
      <point x="533" y="465" type="line"/>
      <point x="525" y="705" type="line"/>
    </contour>
    <contour>
      <point x="292" y="247" type="move" name="center"/>
    </contour>
  </outline>
</glyph>
<glyph name="Dcroat" format="1">
  <advance width="726"/>
  <unicode hex="0110"/>
  <outline>
    <contour>
      <point x="356" y="337" type="line"/>
      <point x="361" y="380" type="line"/>
      <point x="39" y="380" type="line"/>
      <point x="39" y="337" type="line"/>
    </contour>
    <contour>
      <point x="45" y="710" type="curve"/>
      <point x="40" y="656" type="line"/>
      <point x="117" y="644" type="line"/>
      <point x="119" y="631"/>
      <point x="126" y="585"/>
      <point x="126" y="568" type="curve" smooth="yes"/>
      <point x="126" y="137" type="line" smooth="yes"/>
      <point x="126" y="120"/>
      <point x="119" y="74"/>
      <point x="117" y="61" type="curve"/>
      <point x="38" y="45" type="line"/>
      <point x="43" y="-5" type="line"/>
      <point x="43" y="-5"/>
      <point x="153" y="0"/>
      <point x="178" y="0" type="curve" smooth="yes"/>
      <point x="228" y="0"/>
      <point x="280" y="-4"/>
      <point x="330" y="-4" type="curve" smooth="yes"/>
      <point x="546" y="-4"/>
      <point x="675" y="141"/>
      <point x="675" y="352" type="curve" smooth="yes"/>
      <point x="675" y="570"/>
      <point x="553" y="710"/>
      <point x="330" y="710" type="curve" smooth="yes"/>
      <point x="264" y="710"/>
      <point x="224" y="705"/>
      <point x="160" y="705" type="curve" smooth="yes"/>
      <point x="140" y="705"/>
      <point x="78" y="708"/>
    </contour>
    <contour>
      <point x="498" y="650"/>
      <point x="576" y="514"/>
      <point x="576" y="352" type="curve" smooth="yes"/>
      <point x="576" y="189"/>
      <point x="498" y="55"/>
      <point x="331" y="55" type="curve" smooth="yes"/>
      <point x="287" y="55"/>
      <point x="250" y="57"/>
      <point x="224" y="58" type="curve"/>
      <point x="223" y="62"/>
      <point x="217" y="119"/>
      <point x="217" y="167" type="curve" smooth="yes"/>
      <point x="217" y="538" type="line" smooth="yes"/>
      <point x="217" y="578"/>
      <point x="222" y="631"/>
      <point x="224" y="650" type="curve"/>
      <point x="249" y="650"/>
      <point x="285" y="650"/>
      <point x="331" y="650" type="curve" smooth="yes"/>
    </contour>
    <contour>
      <point x="357" y="353" type="move" name="center"/>
    </contour>
    <contour>
      <point x="327" y="705" type="move" name="top"/>
    </contour>
  </outline>
</glyph>
<glyph name="Ebreve" format="1">
  <advance width="586"/>
  <unicode hex="0114"/>
  <outline>
    <contour>
      <point x="139" y="705"/>
      <point x="44" y="710"/>
      <point x="44" y="710" type="curve"/>
      <point x="39" y="656" type="line"/>
      <point x="116" y="644" type="line"/>
      <point x="118" y="631"/>
      <point x="125" y="585"/>
      <point x="125" y="568" type="curve" smooth="yes"/>
      <point x="125" y="137" type="line" smooth="yes"/>
      <point x="125" y="120"/>
      <point x="118" y="74"/>
      <point x="116" y="61" type="curve"/>
      <point x="37" y="45" type="line"/>
      <point x="42" y="-5" type="line"/>
      <point x="42" y="-5"/>
      <point x="152" y="0"/>
      <point x="177" y="0" type="curve" smooth="yes"/>
      <point x="397" y="0" type="line" smooth="yes"/>
      <point x="417" y="0"/>
      <point x="511" y="-4"/>
      <point x="511" y="-4" type="curve"/>
      <point x="530" y="14" type="line"/>
      <point x="545" y="165" type="line"/>
      <point x="490" y="170" type="line"/>
      <point x="488" y="154"/>
      <point x="478" y="118"/>
      <point x="475" y="103" type="curve" smooth="yes"/>
      <point x="473" y="94"/>
      <point x="464" y="80"/>
      <point x="454" y="66" type="curve"/>
      <point x="432" y="62"/>
      <point x="398" y="57"/>
      <point x="367" y="57" type="curve" smooth="yes"/>
      <point x="223" y="57" type="line"/>
      <point x="221" y="76"/>
      <point x="216" y="127"/>
      <point x="216" y="167" type="curve" smooth="yes"/>
      <point x="216" y="338" type="line"/>
      <point x="312" y="338" type="line"/>
      <point x="332" y="338"/>
      <point x="392" y="332"/>
      <point x="392" y="332" type="curve"/>
      <point x="401" y="265" type="line"/>
      <point x="449" y="271" type="line"/>
      <point x="449" y="271"/>
      <point x="446" y="330"/>
      <point x="446" y="380" type="curve" smooth="yes"/>
      <point x="446" y="400"/>
      <point x="447" y="464"/>
      <point x="447" y="464" type="curve"/>
      <point x="401" y="469" type="line"/>
      <point x="392" y="403" type="line"/>
      <point x="392" y="403"/>
      <point x="352" y="394"/>
      <point x="332" y="394" type="curve"/>
      <point x="216" y="394" type="line"/>
      <point x="216" y="538" type="line" smooth="yes"/>
      <point x="216" y="577"/>
      <point x="221" y="628"/>
      <point x="223" y="649" type="curve"/>
      <point x="354" y="649" type="line" smooth="yes"/>
      <point x="382" y="649"/>
      <point x="413" y="646"/>
      <point x="435" y="644" type="curve"/>
      <point x="445" y="631"/>
      <point x="454" y="617"/>
      <point x="455" y="610" type="curve"/>
      <point x="459" y="595"/>
      <point x="464" y="572"/>
      <point x="466" y="556" type="curve"/>
      <point x="524" y="561" type="line"/>
      <point x="517" y="692" type="line"/>
      <point x="498" y="710" type="line"/>
      <point x="498" y="710"/>
      <point x="404" y="705"/>
      <point x="384" y="705" type="curve" smooth="yes"/>
      <point x="159" y="705" type="line" smooth="yes"/>
    </contour>
    <contour>
      <point x="372" y="881" type="line"/>
      <point x="372" y="831"/>
      <point x="339" y="797"/>
      <point x="289" y="797" type="curve"/>
      <point x="239" y="797"/>
      <point x="206" y="831"/>
      <point x="206" y="881" type="curve"/>
      <point x="150" y="881" type="line"/>
      <point x="150" y="791"/>
      <point x="199" y="741"/>
      <point x="289" y="741" type="curve" smooth="yes"/>
      <point x="379" y="741"/>
      <point x="428" y="791"/>
      <point x="428" y="881" type="curve"/>
    </contour>
    <contour>
      <point x="511" y="-4" type="move" name="ogonek"/>
    </contour>
    <contour>
      <point x="289" y="705" type="move" name="top"/>
    </contour>
    <contour>
      <point x="289" y="705" type="move" name="_top"/>
    </contour>
    <contour>
      <point x="303" y="0" type="move" name="bottom"/>
    </contour>
  </outline>
</glyph>
<glyph name="eogonek" format="1">
  <advance width="503"/>
  <unicode hex="0119"/>
  <outline>
    <contour>
      <point x="120" y="503"/>
      <point x="49" y="395"/>
      <point x="49" y="245" type="curve" smooth="yes"/>
      <point x="49" y="94"/>
      <point x="128" y="-10"/>
      <point x="279" y="-10" type="curve" smooth="yes"/>
      <point x="392" y="-10"/>
      <point x="456" y="50"/>
      <point x="456" y="50" type="curve"/>
      <point x="428" y="96" type="line"/>
      <point x="428" y="96"/>
      <point x="364" y="55"/>
      <point x="279" y="55" type="curve" smooth="yes"/>
      <point x="185" y="55"/>
      <point x="143" y="156"/>
      <point x="143" y="250" type="curve" smooth="yes"/>
      <point x="143" y="344"/>
      <point x="169" y="451"/>
      <point x="263" y="451" type="curve" smooth="yes"/>
      <point x="334" y="451"/>
      <point x="367" y="395"/>
      <point x="367" y="324" type="curve" smooth="yes"/>
      <point x="367" y="319"/>
      <point x="366" y="304"/>
      <point x="366" y="304" type="curve"/>
      <point x="124" y="286" type="line"/>
      <point x="124" y="237" type="line"/>
      <point x="442" y="237" type="line"/>
      <point x="459" y="270" type="line"/>
      <point x="459" y="410"/>
      <point x="407" y="503"/>
      <point x="267" y="503" type="curve" smooth="yes"/>
    </contour>
    <contour>
      <point x="264" y="-8"/>
      <point x="235" y="-53"/>
      <point x="235" y="-99" type="curve" smooth="yes"/>
      <point x="235" y="-168"/>
      <point x="299" y="-190"/>
      <point x="350" y="-190" type="curve" smooth="yes"/>
      <point x="372" y="-190"/>
      <point x="396" y="-185"/>
      <point x="414" y="-178" type="curve"/>
      <point x="403" y="-135" type="line"/>
      <point x="392" y="-138"/>
      <point x="380" y="-140"/>
      <point x="369" y="-140" type="curve" smooth="yes"/>
      <point x="329" y="-140"/>
      <point x="310" y="-120"/>
      <point x="310" y="-94" type="curve" smooth="yes"/>
      <point x="310" y="-57"/>
      <point x="348" y="-5"/>
      <point x="412" y="21" type="curve"/>
      <point x="346" y="31" type="line"/>
    </contour>
    <contour>
      <point x="412" y="21" type="move" name="_ogonek"/>
    </contour>
    <contour>
      <point x="412" y="21" type="move" name="ogonek"/>
    </contour>
    <contour>
      <point x="270" y="494" type="move" name="top"/>
    </contour>
    <contour>
      <point x="277" y="0" type="move" name="bottom"/>
    </contour>
  </outline>
</glyph>
<glyph name="gdotaccent" format="1">
  <advance width="508"/>
  <unicode hex="0121"/>
  <outline>
    <contour>
      <point x="471" y="440" type="line"/>
      <point x="471" y="498" type="line"/>
      <point x="349" y="479" type="line"/>
      <point x="319" y="494"/>
      <point x="284" y="503"/>
      <point x="244" y="503" type="curve" smooth="yes"/>
      <point x="128" y="503"/>
      <point x="51" y="431"/>
      <point x="51" y="322" type="curve" smooth="yes"/>
      <point x="51" y="250"/>
      <point x="85" y="194"/>
      <point x="141" y="164" type="curve"/>
      <point x="92" y="123"/>
      <point x="69" y="98"/>
      <point x="69" y="84" type="curve" smooth="yes"/>
      <point x="69" y="49"/>
      <point x="84" y="26"/>
      <point x="120" y="11" type="curve"/>
      <point x="67" y="-31"/>
      <point x="29" y="-72"/>
      <point x="29" y="-90" type="curve" smooth="yes"/>
      <point x="29" y="-185"/>
      <point x="97" y="-235"/>
      <point x="227" y="-235" type="curve" smooth="yes"/>
      <point x="367" y="-235"/>
      <point x="481" y="-149"/>
      <point x="481" y="-44" type="curve" smooth="yes"/>
      <point x="481" y="4"/>
      <point x="465" y="34"/>
      <point x="436" y="43" type="curve" smooth="yes"/>
      <point x="398" y="55"/>
      <point x="311" y="64"/>
      <point x="243" y="73" type="curve" smooth="yes"/>
      <point x="168" y="82"/>
      <point x="149" y="88"/>
      <point x="149" y="108" type="curve" smooth="yes"/>
      <point x="149" y="114"/>
      <point x="157" y="128"/>
      <point x="176" y="150" type="curve"/>
      <point x="197" y="144"/>
      <point x="219" y="141"/>
      <point x="244" y="141" type="curve" smooth="yes"/>
      <point x="360" y="141"/>
      <point x="437" y="213"/>
      <point x="437" y="322" type="curve" smooth="yes"/>
      <point x="437" y="372"/>
      <point x="421" y="415"/>
      <point x="391" y="446" type="curve"/>
    </contour>
    <contour>
      <point x="177" y="-6"/>
      <point x="200" y="-10"/>
      <point x="227" y="-13" type="curve" smooth="yes"/>
      <point x="357" y="-30" type="line" smooth="yes"/>
      <point x="387" y="-34"/>
      <point x="396" y="-45"/>
      <point x="396" y="-75" type="curve" smooth="yes"/>
      <point x="396" y="-136"/>
      <point x="337" y="-178"/>
      <point x="255" y="-178" type="curve" smooth="yes"/>
      <point x="159" y="-178"/>
      <point x="115" y="-147"/>
      <point x="115" y="-79" type="curve" smooth="yes"/>
      <point x="115" y="-60"/>
      <point x="123" y="-44"/>
      <point x="158" y="-1" type="curve"/>
    </contour>
    <contour>
      <point x="315" y="452"/>
      <point x="350" y="409"/>
      <point x="350" y="322" type="curve" smooth="yes"/>
      <point x="350" y="235"/>
      <point x="315" y="192"/>
      <point x="244" y="192" type="curve" smooth="yes"/>
      <point x="173" y="192"/>
      <point x="138" y="235"/>
      <point x="138" y="322" type="curve" smooth="yes"/>
      <point x="138" y="408"/>
      <point x="174" y="452"/>
      <point x="244" y="452" type="curve" smooth="yes"/>
    </contour>
    <contour>
      <point x="212" y="700"/>
      <point x="191" y="673"/>
      <point x="191" y="635" type="curve" smooth="yes"/>
      <point x="191" y="597"/>
      <point x="212" y="571"/>
      <point x="250" y="571" type="curve" smooth="yes"/>
      <point x="288" y="571"/>
      <point x="309" y="597"/>
      <point x="309" y="635" type="curve" smooth="yes"/>
      <point x="309" y="676"/>
      <point x="287" y="700"/>
      <point x="250" y="700" type="curve" smooth="yes"/>
    </contour>
    <contour>
      <point x="250" y="494" type="move" name="top"/>
    </contour>
    <contour>
      <point x="250" y="494" type="move" name="_top"/>
    </contour>
  </outline>
</glyph>
<glyph name="hcircumflex" format="1">
  <advance width="584"/>
  <unicode hex="0125"/>
  <outline>
    <contour>
      <point x="11" y="707" type="line"/>
      <point x="87" y="691" type="line"/>
      <point x="87" y="691"/>
      <point x="97" y="635"/>
      <point x="97" y="615" type="curve" smooth="yes"/>
      <point x="97" y="137" type="line" smooth="yes"/>
      <point x="97" y="117"/>
      <point x="89" y="70"/>
      <point x="87" y="61" type="curve"/>
      <point x="10" y="45" type="line"/>
      <point x="15" y="-5" type="line"/>
      <point x="15" y="-5"/>
      <point x="106" y="0"/>
      <point x="126" y="0" type="curve" smooth="yes"/>
      <point x="206" y="0"/>
      <point x="256" y="0"/>
      <point x="256" y="0" type="curve"/>
      <point x="262" y="54" type="line"/>
      <point x="184" y="61" type="line"/>
      <point x="183" y="69"/>
      <point x="178" y="123"/>
      <point x="178" y="167" type="curve" smooth="yes"/>
      <point x="178" y="274" type="line" smooth="yes"/>
      <point x="179" y="372"/>
      <point x="227" y="442"/>
      <point x="306" y="442" type="curve" smooth="yes"/>
      <point x="390" y="442"/>
      <point x="409" y="360"/>
      <point x="409" y="276" type="curve" smooth="yes"/>
      <point x="409" y="137" type="line" smooth="yes"/>
      <point x="409" y="112"/>
      <point x="404" y="83"/>
      <point x="399" y="61" type="curve"/>
      <point x="332" y="45" type="line"/>
      <point x="337" y="-5" type="line"/>
      <point x="337" y="-5"/>
      <point x="419" y="0"/>
      <point x="439" y="0" type="curve" smooth="yes"/>
      <point x="519" y="0"/>
      <point x="569" y="0"/>
      <point x="569" y="0" type="curve"/>
      <point x="575" y="54" type="line"/>
      <point x="497" y="61" type="line"/>
      <point x="497" y="61"/>
      <point x="490" y="117"/>
      <point x="490" y="167" type="curve" smooth="yes"/>
      <point x="490" y="276" type="line" smooth="yes"/>
      <point x="490" y="414"/>
      <point x="459" y="503"/>
      <point x="321" y="503" type="curve" smooth="yes"/>
      <point x="253" y="503"/>
      <point x="205" y="467"/>
      <point x="178" y="427" type="curve"/>
      <point x="178" y="585" type="line" smooth="yes"/>
      <point x="178" y="632"/>
      <point x="182" y="707"/>
      <point x="185" y="738" type="curve"/>
      <point x="166" y="756" type="line"/>
      <point x="108" y="756" type="line" smooth="yes"/>
      <point x="88" y="756"/>
      <point x="16" y="760"/>
      <point x="16" y="760" type="curve"/>
    </contour>
    <contour>
      <point x="68" y="888" type="line"/>
      <point x="-73" y="801" type="line"/>
      <point x="-49" y="762" type="line"/>
      <point x="142" y="849" type="line"/>
      <point x="109" y="888" type="line"/>
    </contour>
    <contour>
      <point x="61" y="849" type="line"/>
      <point x="252" y="762" type="line"/>
      <point x="276" y="801" type="line"/>
      <point x="135" y="888" type="line"/>
      <point x="94" y="888" type="line"/>
    </contour>
    <contour>
      <point x="288" y="247" type="move" name="center"/>
    </contour>
    <contour>
      <point x="102" y="726" type="move" name="top"/>
    </contour>
    <contour>
      <point x="102" y="726" type="move" name="_top"/>
    </contour>
  </outline>
</glyph>
<glyph name="Hbar" format="1">
  <advance width="784"/>
  <unicode hex="0126"/>
  <outline>
    <contour>
      <point x="757" y="543" type="line"/>
      <point x="53" y="543" type="line"/>
      <point x="53" y="499" type="line"/>
      <point x="757" y="499" type="line"/>
    </contour>
    <contour>
      <point x="561" y="383" type="line"/>
      <point x="220" y="378" type="line"/>
      <point x="220" y="327" type="line"/>
      <point x="561" y="327" type="line"/>
    </contour>
    <contour>
      <point x="306" y="710" type="line"/>
      <point x="306" y="710"/>
      <point x="228" y="705"/>
      <point x="168" y="705" type="curve" smooth="yes"/>
      <point x="148" y="705"/>
      <point x="53" y="710"/>
      <point x="53" y="710" type="curve"/>
      <point x="48" y="656" type="line"/>
      <point x="125" y="644" type="line"/>
      <point x="127" y="631"/>
      <point x="134" y="585"/>
      <point x="134" y="568" type="curve" smooth="yes"/>
      <point x="134" y="137" type="line" smooth="yes"/>
      <point x="134" y="120"/>
      <point x="127" y="74"/>
      <point x="125" y="61" type="curve"/>
      <point x="46" y="45" type="line"/>
      <point x="51" y="-5" type="line"/>
      <point x="51" y="-5"/>
      <point x="161" y="0"/>
      <point x="186" y="0" type="curve"/>
      <point x="315" y="0" type="line"/>
      <point x="322" y="54" type="line"/>
      <point x="232" y="61" type="line"/>
      <point x="230" y="75"/>
      <point x="225" y="125"/>
      <point x="225" y="167" type="curve" smooth="yes"/>
      <point x="225" y="538" type="line" smooth="yes"/>
      <point x="225" y="580"/>
      <point x="230" y="630"/>
      <point x="232" y="644" type="curve"/>
      <point x="310" y="651" type="line"/>
    </contour>
    <contour>
      <point x="728" y="710" type="line"/>
      <point x="728" y="710"/>
      <point x="650" y="705"/>
      <point x="590" y="705" type="curve" smooth="yes"/>
      <point x="570" y="705"/>
      <point x="475" y="710"/>
      <point x="475" y="710" type="curve"/>
      <point x="470" y="656" type="line"/>
      <point x="547" y="644" type="line"/>
      <point x="549" y="631"/>
      <point x="556" y="585"/>
      <point x="556" y="568" type="curve" smooth="yes"/>
      <point x="556" y="137" type="line" smooth="yes"/>
      <point x="556" y="120"/>
      <point x="549" y="74"/>
      <point x="547" y="61" type="curve"/>
      <point x="468" y="45" type="line"/>
      <point x="473" y="-5" type="line"/>
      <point x="473" y="-5"/>
      <point x="583" y="0"/>
      <point x="608" y="0" type="curve"/>
      <point x="737" y="0" type="line"/>
      <point x="744" y="54" type="line"/>
      <point x="654" y="61" type="line"/>
      <point x="652" y="75"/>
      <point x="647" y="125"/>
      <point x="647" y="167" type="curve" smooth="yes"/>
      <point x="647" y="538" type="line" smooth="yes"/>
      <point x="647" y="580"/>
      <point x="652" y="630"/>
      <point x="654" y="644" type="curve"/>
      <point x="732" y="651" type="line"/>
    </contour>
    <contour>
      <point x="391" y="353" type="move" name="center"/>
    </contour>
    <contour>
      <point x="391" y="705" type="move" name="top"/>
    </contour>
  </outline>
</glyph>
<glyph name="Imacron" format="1">
  <advance width="343"/>
  <unicode hex="012A"/>
  <outline>
    <contour>
      <point x="297" y="710" type="line"/>
      <point x="297" y="710"/>
      <point x="219" y="705"/>
      <point x="159" y="705" type="curve" smooth="yes"/>
      <point x="139" y="705"/>
      <point x="44" y="710"/>
      <point x="44" y="710" type="curve"/>
      <point x="39" y="656" type="line"/>
      <point x="116" y="644" type="line"/>
      <point x="118" y="631"/>
      <point x="125" y="585"/>
      <point x="125" y="568" type="curve" smooth="yes"/>
      <point x="125" y="137" type="line" smooth="yes"/>
      <point x="125" y="120"/>
      <point x="118" y="74"/>
      <point x="116" y="61" type="curve"/>
      <point x="37" y="45" type="line"/>
      <point x="42" y="-5" type="line"/>
      <point x="42" y="-5"/>
      <point x="152" y="0"/>
      <point x="177" y="0" type="curve"/>
      <point x="307" y="0" type="line"/>
      <point x="313" y="54" type="line"/>
      <point x="223" y="61" type="line"/>
      <point x="221" y="75"/>
      <point x="216" y="125"/>
      <point x="216" y="167" type="curve" smooth="yes"/>
      <point x="216" y="538" type="line" smooth="yes"/>
      <point x="216" y="580"/>
      <point x="221" y="630"/>
      <point x="223" y="644" type="curve"/>
      <point x="301" y="651" type="line"/>
    </contour>
    <contour>
      <point x="295" y="755" type="line"/>
      <point x="300" y="815" type="line"/>
      <point x="42" y="815" type="line"/>
      <point x="42" y="755" type="line"/>
    </contour>
    <contour>
      <point x="306" y="0" type="move" name="ogonek"/>
    </contour>
    <contour>
      <point x="171" y="705" type="move" name="top"/>
    </contour>
    <contour>
      <point x="171" y="705" type="move" name="_top"/>
    </contour>
    <contour>
      <point x="179" y="0" type="move" name="bottom"/>
    </contour>
  </outline>
</glyph>
<glyph name="Iogonek" format="1">
  <advance width="343"/>
  <unicode hex="012E"/>
  <outline>
    <contour>
      <point x="297" y="710" type="line"/>
      <point x="297" y="710"/>
      <point x="219" y="705"/>
      <point x="159" y="705" type="curve" smooth="yes"/>
      <point x="139" y="705"/>
      <point x="44" y="710"/>
      <point x="44" y="710" type="curve"/>
      <point x="39" y="656" type="line"/>
      <point x="116" y="644" type="line"/>
      <point x="118" y="631"/>
      <point x="125" y="585"/>
      <point x="125" y="568" type="curve" smooth="yes"/>
      <point x="125" y="137" type="line" smooth="yes"/>
      <point x="125" y="120"/>
      <point x="118" y="74"/>
      <point x="116" y="61" type="curve"/>
      <point x="37" y="45" type="line"/>
      <point x="42" y="-5" type="line"/>
      <point x="42" y="-5"/>
      <point x="152" y="0"/>
      <point x="177" y="0" type="curve"/>
      <point x="307" y="0" type="line"/>
      <point x="313" y="54" type="line"/>
      <point x="223" y="61" type="line"/>
      <point x="221" y="75"/>
      <point x="216" y="125"/>
      <point x="216" y="167" type="curve" smooth="yes"/>
      <point x="216" y="538" type="line" smooth="yes"/>
      <point x="216" y="580"/>
      <point x="221" y="630"/>
      <point x="223" y="644" type="curve"/>
      <point x="301" y="651" type="line"/>
    </contour>
    <contour>
      <point x="158" y="-29"/>
      <point x="129" y="-74"/>
      <point x="129" y="-120" type="curve" smooth="yes"/>
      <point x="129" y="-189"/>
      <point x="193" y="-211"/>
      <point x="244" y="-211" type="curve" smooth="yes"/>
      <point x="266" y="-211"/>
      <point x="290" y="-206"/>
      <point x="308" y="-199" type="curve"/>
      <point x="297" y="-156" type="line"/>
      <point x="286" y="-159"/>
      <point x="274" y="-161"/>
      <point x="263" y="-161" type="curve" smooth="yes"/>
      <point x="223" y="-161"/>
      <point x="204" y="-141"/>
      <point x="204" y="-115" type="curve" smooth="yes"/>
      <point x="204" y="-78"/>
      <point x="242" y="-26"/>
      <point x="306" y="0" type="curve"/>
      <point x="240" y="10" type="line"/>
    </contour>
    <contour>
      <point x="306" y="0" type="move" name="_ogonek"/>
    </contour>
    <contour>
      <point x="306" y="0" type="move" name="ogonek"/>
    </contour>
    <contour>
      <point x="171" y="705" type="move" name="top"/>
    </contour>
    <contour>
      <point x="179" y="0" type="move" name="bottom"/>
    </contour>
  </outline>
</glyph>
<glyph name="iogonek" format="1">
  <advance width="290"/>
  <unicode hex="012F"/>
  <outline>
    <contour>
      <point x="277" y="54" type="line"/>
      <point x="199" y="61" type="line"/>
      <point x="199" y="61"/>
      <point x="192" y="117"/>
      <point x="192" y="167" type="curve" smooth="yes"/>
      <point x="192" y="323" type="line" smooth="yes"/>
      <point x="192" y="373"/>
      <point x="199" y="476"/>
      <point x="199" y="476" type="curve"/>
      <point x="180" y="494" type="line"/>
      <point x="122" y="494" type="line" smooth="yes"/>
      <point x="102" y="494"/>
      <point x="30" y="498"/>
      <point x="30" y="498" type="curve"/>
      <point x="25" y="445" type="line"/>
      <point x="101" y="429" type="line"/>
      <point x="101" y="429"/>
      <point x="111" y="373"/>
      <point x="111" y="353" type="curve" smooth="yes"/>
      <point x="111" y="137" type="line" smooth="yes"/>
      <point x="111" y="117"/>
      <point x="101" y="61"/>
      <point x="101" y="61" type="curve"/>
      <point x="25" y="45" type="line"/>
      <point x="30" y="-5" type="line"/>
      <point x="30" y="-5"/>
      <point x="121" y="0"/>
      <point x="141" y="0" type="curve" smooth="yes"/>
      <point x="221" y="0"/>
      <point x="271" y="0"/>
      <point x="271" y="0" type="curve"/>
    </contour>
    <contour>
      <point x="99" y="720"/>
      <point x="78" y="693"/>
      <point x="78" y="655" type="curve" smooth="yes"/>
      <point x="78" y="617"/>
      <point x="99" y="591"/>
      <point x="137" y="591" type="curve" smooth="yes"/>
      <point x="175" y="591"/>
      <point x="196" y="617"/>
      <point x="196" y="655" type="curve" smooth="yes"/>
      <point x="196" y="696"/>
      <point x="174" y="720"/>
      <point x="137" y="720" type="curve" smooth="yes"/>
    </contour>
    <contour>
      <point x="123" y="-29"/>
      <point x="94" y="-74"/>
      <point x="94" y="-120" type="curve" smooth="yes"/>
      <point x="94" y="-189"/>
      <point x="158" y="-211"/>
      <point x="209" y="-211" type="curve" smooth="yes"/>
      <point x="231" y="-211"/>
      <point x="255" y="-206"/>
      <point x="273" y="-199" type="curve"/>
      <point x="262" y="-156" type="line"/>
      <point x="251" y="-159"/>
      <point x="239" y="-161"/>
      <point x="228" y="-161" type="curve" smooth="yes"/>
      <point x="188" y="-161"/>
      <point x="169" y="-141"/>
      <point x="169" y="-115" type="curve" smooth="yes"/>
      <point x="169" y="-78"/>
      <point x="207" y="-26"/>
      <point x="271" y="0" type="curve"/>
      <point x="205" y="10" type="line"/>
    </contour>
    <contour>
      <point x="271" y="0" type="move" name="ogonek"/>
    </contour>
    <contour>
      <point x="119" y="494" type="move" name="top"/>
    </contour>
    <contour>
      <point x="137" y="514" type="move" name="_top"/>
    </contour>
    <contour>
      <point x="149" y="0" type="move" name="bottom"/>
    </contour>
  </outline>
</glyph>
<glyph name="Jcircumflex" format="1">
  <advance width="302"/>
  <unicode hex="0134"/>
  <outline>
    <contour>
      <point x="119" y="705"/>
      <point x="24" y="710"/>
      <point x="24" y="710" type="curve"/>
      <point x="19" y="656" type="line"/>
      <point x="96" y="644" type="line"/>
      <point x="98" y="631"/>
      <point x="105" y="585"/>
      <point x="105" y="568" type="curve" smooth="yes"/>
      <point x="105" y="11" type="line" smooth="yes"/>
      <point x="105" y="-9"/>
      <point x="25" y="-178"/>
      <point x="25" y="-178" type="curve"/>
      <point x="59" y="-200" type="line"/>
      <point x="106" y="-144"/>
      <point x="196" y="-37"/>
      <point x="196" y="-10" type="curve" smooth="yes"/>
      <point x="196" y="538" type="line" smooth="yes"/>
      <point x="196" y="580"/>
      <point x="201" y="630"/>
      <point x="203" y="644" type="curve"/>
      <point x="281" y="651" type="line"/>
      <point x="277" y="710" type="line"/>
      <point x="277" y="710"/>
      <point x="199" y="705"/>
      <point x="139" y="705" type="curve" smooth="yes"/>
    </contour>
    <contour>
      <point x="111" y="867" type="line"/>
      <point x="-30" y="780" type="line"/>
      <point x="-6" y="741" type="line"/>
      <point x="185" y="828" type="line"/>
      <point x="152" y="867" type="line"/>
    </contour>
    <contour>
      <point x="104" y="828" type="line"/>
      <point x="295" y="741" type="line"/>
      <point x="319" y="780" type="line"/>
      <point x="178" y="867" type="line"/>
      <point x="137" y="867" type="line"/>
    </contour>
    <contour>
      <point x="145" y="705" type="move" name="top"/>
    </contour>
    <contour>
      <point x="145" y="705" type="move" name="_top"/>
    </contour>
  </outline>
</glyph>
<glyph name="kgreenlandic" format="1">
  <advance width="591"/>
  <unicode hex="0138"/>
  <outline>
    <contour>
      <point x="367" y="437" type="line"/>
      <point x="202" y="265" type="line"/>
      <point x="344" y="115" type="line"/>
      <point x="395" y="59" type="line"/>
      <point x="338" y="48" type="line"/>
      <point x="343" y="-2" type="line"/>
      <point x="445" y="0" type="line" smooth="yes"/>
      <point x="525" y="0"/>
      <point x="574" y="-1"/>
      <point x="574" y="-1" type="curve"/>
      <point x="581" y="54" type="line"/>
      <point x="518" y="60" type="line"/>
      <point x="485" y="85"/>
      <point x="439" y="117"/>
      <point x="428" y="129" type="curve" smooth="yes"/>
      <point x="291" y="279" type="line"/>
      <point x="372" y="366" type="line" smooth="yes"/>
      <point x="390" y="385"/>
      <point x="438" y="415"/>
      <point x="471" y="433" type="curve"/>
      <point x="546" y="441" type="line"/>
      <point x="543" y="494" type="line"/>
      <point x="543" y="494"/>
      <point x="496" y="494"/>
      <point x="416" y="494" type="curve" smooth="yes"/>
      <point x="396" y="494"/>
      <point x="329" y="497"/>
      <point x="329" y="497" type="curve"/>
      <point x="324" y="445" type="line"/>
    </contour>
    <contour>
      <point x="277" y="54" type="line"/>
      <point x="199" y="61" type="line"/>
      <point x="199" y="61"/>
      <point x="192" y="117"/>
      <point x="192" y="167" type="curve" smooth="yes"/>
      <point x="192" y="323" type="line" smooth="yes"/>
      <point x="192" y="373"/>
      <point x="199" y="476"/>
      <point x="199" y="476" type="curve"/>
      <point x="180" y="494" type="line"/>
      <point x="122" y="494" type="line" smooth="yes"/>
      <point x="102" y="494"/>
      <point x="30" y="498"/>
      <point x="30" y="498" type="curve"/>
      <point x="25" y="445" type="line"/>
      <point x="101" y="429" type="line"/>
      <point x="101" y="429"/>
      <point x="111" y="373"/>
      <point x="111" y="353" type="curve" smooth="yes"/>
      <point x="111" y="137" type="line" smooth="yes"/>
      <point x="111" y="117"/>
      <point x="101" y="61"/>
      <point x="101" y="61" type="curve"/>
      <point x="25" y="45" type="line"/>
      <point x="30" y="-5" type="line"/>
      <point x="30" y="-5"/>
      <point x="121" y="0"/>
      <point x="141" y="0" type="curve" smooth="yes"/>
      <point x="221" y="0"/>
      <point x="271" y="0"/>
      <point x="271" y="0" type="curve"/>
    </contour>
    <contour>
      <point x="271" y="0" type="move" name="ogonek"/>
    </contour>
    <contour>
      <point x="119" y="494" type="move" name="top"/>
    </contour>
  </outline>
</glyph>
<glyph name="Lcaron" format="1">
  <advance width="519"/>
  <unicode hex="013D"/>
  <outline>
    <contour>
      <point x="139" y="705"/>
      <point x="44" y="710"/>
      <point x="44" y="710" type="curve"/>
      <point x="39" y="656" type="line"/>
      <point x="116" y="644" type="line"/>
      <point x="118" y="631"/>
      <point x="125" y="585"/>
      <point x="125" y="568" type="curve" smooth="yes"/>
      <point x="125" y="137" type="line" smooth="yes"/>
      <point x="125" y="120"/>
      <point x="118" y="74"/>
      <point x="116" y="61" type="curve"/>
      <point x="37" y="45" type="line"/>
      <point x="42" y="-5" type="line"/>
      <point x="42" y="-5"/>
      <point x="152" y="0"/>
      <point x="177" y="0" type="curve" smooth="yes"/>
      <point x="371" y="0" type="line" smooth="yes"/>
      <point x="391" y="0"/>
      <point x="485" y="-4"/>
      <point x="485" y="-4" type="curve"/>
      <point x="504" y="14" type="line"/>
      <point x="519" y="165" type="line"/>
      <point x="464" y="170" type="line"/>
      <point x="462" y="154"/>
      <point x="453" y="118"/>
      <point x="449" y="103" type="curve"/>
      <point x="448" y="96"/>
      <point x="438" y="80"/>
      <point x="428" y="66" type="curve"/>
      <point x="406" y="62"/>
      <point x="372" y="57"/>
      <point x="341" y="57" type="curve" smooth="yes"/>
      <point x="223" y="57" type="line"/>
      <point x="221" y="72"/>
      <point x="216" y="126"/>
      <point x="216" y="167" type="curve" smooth="yes"/>
      <point x="216" y="538" type="line" smooth="yes"/>
      <point x="216" y="580"/>
      <point x="221" y="630"/>
      <point x="223" y="644" type="curve"/>
      <point x="311" y="651" type="line"/>
      <point x="307" y="710" type="line"/>
      <point x="307" y="710"/>
      <point x="219" y="705"/>
      <point x="159" y="705" type="curve" smooth="yes"/>
    </contour>
    <contour>
      <point x="465" y="705" type="line"/>
      <point x="452" y="462" type="line"/>
      <point x="396" y="465" type="line"/>
      <point x="388" y="705" type="line"/>
    </contour>
    <contour>
      <point x="173" y="705" type="move" name="top"/>
    </contour>
    <contour>
      <point x="262" y="0" type="move" name="bottom"/>
    </contour>
  </outline>
</glyph>
<glyph name="lcaron" format="1">
  <advance width="275"/>
  <unicode hex="013E"/>
  <outline>
    <contour>
      <point x="11" y="707" type="line"/>
      <point x="87" y="691" type="line"/>
      <point x="87" y="691"/>
      <point x="97" y="635"/>
      <point x="97" y="615" type="curve" smooth="yes"/>
      <point x="97" y="137" type="line" smooth="yes"/>
      <point x="97" y="117"/>
      <point x="89" y="70"/>
      <point x="87" y="61" type="curve"/>
      <point x="10" y="45" type="line"/>
      <point x="15" y="-5" type="line"/>
      <point x="15" y="-5"/>
      <point x="106" y="0"/>
      <point x="126" y="0" type="curve" smooth="yes"/>
      <point x="206" y="0"/>
      <point x="256" y="0"/>
      <point x="256" y="0" type="curve"/>
      <point x="262" y="54" type="line"/>
      <point x="184" y="61" type="line"/>
      <point x="183" y="69"/>
      <point x="178" y="123"/>
      <point x="178" y="167" type="curve" smooth="yes"/>
      <point x="178" y="585" type="line" smooth="yes"/>
      <point x="178" y="632"/>
      <point x="182" y="707"/>
      <point x="185" y="738" type="curve"/>
      <point x="166" y="756" type="line"/>
      <point x="108" y="756" type="line" smooth="yes"/>
      <point x="88" y="756"/>
      <point x="16" y="760"/>
      <point x="16" y="760" type="curve"/>
    </contour>
    <contour>
      <point x="330" y="705" type="line"/>
      <point x="317" y="462" type="line"/>
      <point x="261" y="465" type="line"/>
      <point x="253" y="705" type="line"/>
    </contour>
    <contour>
      <point x="122" y="756" type="move" name="top"/>
    </contour>
    <contour>
      <point x="138" y="0" type="move" name="bottom"/>
    </contour>
    <contour>
      <point x="264" y="494" type="move" name="topright"/>
    </contour>
  </outline>
</glyph>
<glyph name="Ldot" format="1">
  <advance width="532"/>
  <unicode hex="013F"/>
  <outline>
    <contour>
      <point x="139" y="705"/>
      <point x="44" y="710"/>
      <point x="44" y="710" type="curve"/>
      <point x="39" y="656" type="line"/>
      <point x="116" y="644" type="line"/>
      <point x="118" y="631"/>
      <point x="125" y="585"/>
      <point x="125" y="568" type="curve" smooth="yes"/>
      <point x="125" y="137" type="line" smooth="yes"/>
      <point x="125" y="120"/>
      <point x="118" y="74"/>
      <point x="116" y="61" type="curve"/>
      <point x="37" y="45" type="line"/>
      <point x="42" y="-5" type="line"/>
      <point x="42" y="-5"/>
      <point x="152" y="0"/>
      <point x="177" y="0" type="curve" smooth="yes"/>
      <point x="371" y="0" type="line" smooth="yes"/>
      <point x="391" y="0"/>
      <point x="485" y="-4"/>
      <point x="485" y="-4" type="curve"/>
      <point x="504" y="14" type="line"/>
      <point x="519" y="165" type="line"/>
      <point x="464" y="170" type="line"/>
      <point x="462" y="154"/>
      <point x="453" y="118"/>
      <point x="449" y="103" type="curve"/>
      <point x="448" y="96"/>
      <point x="438" y="80"/>
      <point x="428" y="66" type="curve"/>
      <point x="406" y="62"/>
      <point x="372" y="57"/>
      <point x="341" y="57" type="curve" smooth="yes"/>
      <point x="223" y="57" type="line"/>
      <point x="221" y="72"/>
      <point x="216" y="126"/>
      <point x="216" y="167" type="curve" smooth="yes"/>
      <point x="216" y="538" type="line" smooth="yes"/>
      <point x="216" y="580"/>
      <point x="221" y="630"/>
      <point x="223" y="644" type="curve"/>
      <point x="311" y="651" type="line"/>
      <point x="307" y="710" type="line"/>
      <point x="307" y="710"/>
      <point x="219" y="705"/>
      <point x="159" y="705" type="curve" smooth="yes"/>
    </contour>
    <contour>
      <point x="344" y="475"/>
      <point x="323" y="448"/>
      <point x="323" y="410" type="curve" smooth="yes"/>
      <point x="323" y="372"/>
      <point x="344" y="346"/>
      <point x="382" y="346" type="curve" smooth="yes"/>
      <point x="420" y="346"/>
      <point x="441" y="372"/>
      <point x="441" y="410" type="curve" smooth="yes"/>
      <point x="441" y="451"/>
      <point x="419" y="475"/>
      <point x="382" y="475" type="curve" smooth="yes"/>
    </contour>
    <contour>
      <point x="173" y="705" type="move" name="top"/>
    </contour>
    <contour>
      <point x="262" y="0" type="move" name="bottom"/>
    </contour>
    <contour>
      <point x="382" y="269" type="move" name="_top"/>
    </contour>
  </outline>
</glyph>
<glyph name="ldot" format="1">
  <advance width="356"/>
  <unicode hex="0140"/>
  <outline>
    <contour>
      <point x="11" y="707" type="line"/>
      <point x="87" y="691" type="line"/>
      <point x="87" y="691"/>
      <point x="97" y="635"/>
      <point x="97" y="615" type="curve" smooth="yes"/>
      <point x="97" y="137" type="line" smooth="yes"/>
      <point x="97" y="117"/>
      <point x="89" y="70"/>
      <point x="87" y="61" type="curve"/>
      <point x="10" y="45" type="line"/>
      <point x="15" y="-5" type="line"/>
      <point x="15" y="-5"/>
      <point x="106" y="0"/>
      <point x="126" y="0" type="curve" smooth="yes"/>
      <point x="206" y="0"/>
      <point x="256" y="0"/>
      <point x="256" y="0" type="curve"/>
      <point x="262" y="54" type="line"/>
      <point x="184" y="61" type="line"/>
      <point x="183" y="69"/>
      <point x="178" y="123"/>
      <point x="178" y="167" type="curve" smooth="yes"/>
      <point x="178" y="585" type="line" smooth="yes"/>
      <point x="178" y="632"/>
      <point x="182" y="707"/>
      <point x="185" y="738" type="curve"/>
      <point x="166" y="756" type="line"/>
      <point x="108" y="756" type="line" smooth="yes"/>
      <point x="88" y="756"/>
      <point x="16" y="760"/>
      <point x="16" y="760" type="curve"/>
    </contour>
    <contour>
      <point x="245" y="364"/>
      <point x="224" y="337"/>
      <point x="224" y="299" type="curve" smooth="yes"/>
      <point x="224" y="261"/>
      <point x="245" y="235"/>
      <point x="283" y="235" type="curve" smooth="yes"/>
      <point x="321" y="235"/>
      <point x="342" y="261"/>
      <point x="342" y="299" type="curve" smooth="yes"/>
      <point x="342" y="340"/>
      <point x="320" y="364"/>
      <point x="283" y="364" type="curve" smooth="yes"/>
    </contour>
    <contour>
      <point x="122" y="756" type="move" name="top"/>
    </contour>
    <contour>
      <point x="264" y="494" type="move" name="topright"/>
    </contour>
    <contour>
      <point x="283" y="158" type="move" name="_top"/>
    </contour>
    <contour>
      <point x="138" y="0" type="move" name="bottom"/>
    </contour>
  </outline>
</glyph>
<glyph name="lslash" format="1">
  <advance width="320"/>
  <unicode hex="0142"/>
  <outline>
    <contour>
      <point x="297" y="500" type="line"/>
      <point x="18" y="399" type="line"/>
      <point x="33" y="358" type="line"/>
      <point x="312" y="459" type="line"/>
    </contour>
    <contour>
      <point x="29" y="707" type="line"/>
      <point x="105" y="691" type="line"/>
      <point x="105" y="691"/>
      <point x="115" y="635"/>
      <point x="115" y="615" type="curve" smooth="yes"/>
      <point x="115" y="137" type="line" smooth="yes"/>
      <point x="115" y="117"/>
      <point x="107" y="70"/>
      <point x="105" y="61" type="curve"/>
      <point x="28" y="45" type="line"/>
      <point x="33" y="-5" type="line"/>
      <point x="33" y="-5"/>
      <point x="124" y="0"/>
      <point x="144" y="0" type="curve" smooth="yes"/>
      <point x="224" y="0"/>
      <point x="274" y="0"/>
      <point x="274" y="0" type="curve"/>
      <point x="280" y="54" type="line"/>
      <point x="202" y="61" type="line"/>
      <point x="201" y="69"/>
      <point x="196" y="123"/>
      <point x="196" y="167" type="curve" smooth="yes"/>
      <point x="196" y="585" type="line" smooth="yes"/>
      <point x="196" y="632"/>
      <point x="200" y="707"/>
      <point x="203" y="738" type="curve"/>
      <point x="184" y="756" type="line"/>
      <point x="126" y="756" type="line" smooth="yes"/>
      <point x="106" y="756"/>
      <point x="34" y="760"/>
      <point x="34" y="760" type="curve"/>
    </contour>
    <contour>
      <point x="140" y="756" type="move" name="top"/>
    </contour>
    <contour>
      <point x="156" y="0" type="move" name="bottom"/>
    </contour>
    <contour>
      <point x="282" y="494" type="move" name="topright"/>
    </contour>
  </outline>
</glyph>
<glyph name="Ncaron" format="1">
  <advance width="752"/>
  <unicode hex="0147"/>
  <outline>
    <contour>
      <point x="735" y="651" type="line"/>
      <point x="657" y="644" type="line"/>
      <point x="654" y="630"/>
      <point x="642" y="580"/>
      <point x="642" y="538" type="curve" smooth="yes"/>
      <point x="641" y="0" type="line"/>
      <point x="581" y="0" type="line"/>
      <point x="187" y="556" type="line"/>
      <point x="187" y="167" type="line" smooth="yes"/>
      <point x="187" y="125"/>
      <point x="192" y="75"/>
      <point x="194" y="61" type="curve"/>
      <point x="275" y="54" type="line"/>
      <point x="268" y="0" type="line"/>
      <point x="159" y="0" type="line"/>
      <point x="134" y="0"/>
      <point x="38" y="-5"/>
      <point x="38" y="-5" type="curve"/>
      <point x="33" y="45" type="line"/>
      <point x="111" y="61" type="line"/>
      <point x="113" y="74"/>
      <point x="120" y="120"/>
      <point x="120" y="137" type="curve" smooth="yes"/>
      <point x="120" y="568" type="line" smooth="yes"/>
      <point x="120" y="584"/>
      <point x="113" y="629"/>
      <point x="111" y="644" type="curve"/>
      <point x="31" y="656" type="line"/>
      <point x="36" y="710" type="line"/>
      <point x="36" y="710"/>
      <point x="131" y="705"/>
      <point x="151" y="705" type="curve" smooth="yes"/>
      <point x="196" y="706" type="line"/>
      <point x="216" y="685" type="line"/>
      <point x="216" y="685"/>
      <point x="297" y="552"/>
      <point x="313" y="530" type="curve" smooth="yes"/>
      <point x="575" y="168" type="line"/>
      <point x="575" y="568" type="line" smooth="yes"/>
      <point x="575" y="584"/>
      <point x="569" y="626"/>
      <point x="566" y="644" type="curve"/>
      <point x="488" y="656" type="line"/>
      <point x="493" y="710" type="line"/>
      <point x="521" y="708"/>
      <point x="580" y="705"/>
      <point x="600" y="705" type="curve" smooth="yes"/>
      <point x="660" y="705"/>
      <point x="731" y="710"/>
      <point x="731" y="710" type="curve"/>
    </contour>
    <contour>
      <point x="405" y="749" type="line"/>
      <point x="546" y="836" type="line"/>
      <point x="522" y="875" type="line"/>
      <point x="331" y="788" type="line"/>
      <point x="364" y="749" type="line"/>
    </contour>
    <contour>
      <point x="412" y="788" type="line"/>
      <point x="221" y="875" type="line"/>
      <point x="197" y="836" type="line"/>
      <point x="338" y="749" type="line"/>
      <point x="379" y="749" type="line"/>
    </contour>
    <contour>
      <point x="371" y="396" type="move" name="_top_caps"/>
    </contour>
    <contour>
      <point x="371" y="0" type="move" name="bottom"/>
    </contour>
    <contour>
      <point x="371" y="705" type="move" name="top"/>
    </contour>
  </outline>
</glyph>
<glyph name="eng" format="1">
  <advance width="578"/>
  <unicode hex="014B"/>
  <outline>
    <contour>
      <point x="141" y="353" type="line"/>
      <point x="192" y="274" type="line"/>
      <point x="193" y="372"/>
      <point x="241" y="442"/>
      <point x="320" y="442" type="curve" smooth="yes"/>
      <point x="404" y="442"/>
      <point x="423" y="360"/>
      <point x="423" y="276" type="curve" smooth="yes"/>
      <point x="423" y="117" type="line" smooth="yes"/>
      <point x="423" y="67"/>
      <point x="423" y="21"/>
      <point x="423" y="21" type="curve"/>
      <point x="423" y="-19"/>
      <point x="347" y="-214"/>
      <point x="347" y="-214" type="curve"/>
      <point x="383" y="-235" type="line"/>
      <point x="383" y="-235"/>
      <point x="504" y="-50"/>
      <point x="504" y="-10" type="curve" smooth="yes"/>
      <point x="504" y="276" type="line" smooth="yes"/>
      <point x="504" y="414"/>
      <point x="473" y="503"/>
      <point x="335" y="503" type="curve" smooth="yes"/>
      <point x="259" y="503"/>
      <point x="207" y="458"/>
      <point x="183" y="412" type="curve"/>
    </contour>
    <contour>
      <point x="25" y="445" type="line"/>
      <point x="101" y="429" type="line"/>
      <point x="101" y="429"/>
      <point x="111" y="373"/>
      <point x="111" y="353" type="curve" smooth="yes"/>
      <point x="111" y="132" type="line"/>
      <point x="109" y="109"/>
      <point x="101" y="61"/>
      <point x="101" y="61" type="curve"/>
      <point x="25" y="45" type="line"/>
      <point x="30" y="-5" type="line"/>
      <point x="30" y="-5"/>
      <point x="121" y="0"/>
      <point x="141" y="0" type="curve" smooth="yes"/>
      <point x="221" y="0"/>
      <point x="271" y="0"/>
      <point x="271" y="0" type="curve"/>
      <point x="277" y="54" type="line"/>
      <point x="199" y="61" type="line"/>
      <point x="199" y="61"/>
      <point x="192" y="117"/>
      <point x="192" y="167" type="curve" smooth="yes"/>
      <point x="192" y="323" type="line"/>
      <point x="177" y="476" type="line"/>
      <point x="158" y="494" type="line"/>
      <point x="122" y="494" type="line" smooth="yes"/>
      <point x="102" y="494"/>
      <point x="30" y="498"/>
      <point x="30" y="498" type="curve"/>
    </contour>
  </outline>
</glyph>
<glyph name="Omacron" format="1">
  <advance width="716"/>
  <unicode hex="014C"/>
  <outline>
    <contour>
      <point x="686" y="570"/>
      <point x="575" y="720"/>
      <point x="358" y="720" type="curve" smooth="yes"/>
      <point x="141" y="720"/>
      <point x="30" y="570"/>
      <point x="30" y="352" type="curve" smooth="yes"/>
      <point x="30" y="135"/>
      <point x="141" y="-15"/>
      <point x="358" y="-15" type="curve" smooth="yes"/>
      <point x="575" y="-15"/>
      <point x="686" y="135"/>
      <point x="686" y="352" type="curve" smooth="yes"/>
    </contour>
    <contour>
      <point x="137" y="527"/>
      <point x="209" y="667"/>
      <point x="358" y="667" type="curve" smooth="yes"/>
      <point x="507" y="667"/>
      <point x="579" y="527"/>
      <point x="579" y="352" type="curve" smooth="yes"/>
      <point x="579" y="178"/>
      <point x="507" y="38"/>
      <point x="358" y="38" type="curve" smooth="yes"/>
      <point x="209" y="38"/>
      <point x="137" y="178"/>
      <point x="137" y="352" type="curve" smooth="yes"/>
    </contour>
    <contour>
      <point x="514" y="755" type="line"/>
      <point x="519" y="815" type="line"/>
      <point x="197" y="815" type="line"/>
      <point x="197" y="755" type="line"/>
    </contour>
    <contour>
      <point x="358" y="705" type="move" name="top"/>
    </contour>
    <contour>
      <point x="358" y="705" type="move" name="_top"/>
    </contour>
    <contour>
      <point x="616" y="567" type="move" name="horn"/>
    </contour>
    <contour>
      <point x="358" y="0" type="move" name="bottom"/>
    </contour>
  </outline>
</glyph>
<glyph name="obreve" format="1">
  <advance width="558"/>
  <unicode hex="014F"/>
  <outline>
    <contour>
      <point x="509" y="401"/>
      <point x="433" y="503"/>
      <point x="279" y="503" type="curve" smooth="yes"/>
      <point x="127" y="503"/>
      <point x="49" y="399"/>
      <point x="49" y="246" type="curve"/>
      <point x="49" y="94"/>
      <point x="127" y="-10"/>
      <point x="279" y="-10" type="curve"/>
      <point x="431" y="-10"/>
      <point x="509" y="94"/>
      <point x="509" y="246" type="curve"/>
    </contour>
    <contour>
      <point x="415" y="143"/>
      <point x="382" y="47"/>
      <point x="279" y="47" type="curve"/>
      <point x="176" y="47"/>
      <point x="143" y="143"/>
      <point x="143" y="246" type="curve"/>
      <point x="143" y="349"/>
      <point x="176" y="446"/>
      <point x="279" y="446" type="curve" smooth="yes"/>
      <point x="382" y="446"/>
      <point x="415" y="349"/>
      <point x="415" y="246" type="curve"/>
    </contour>
    <contour>
      <point x="360" y="704" type="line"/>
      <point x="360" y="654"/>
      <point x="327" y="620"/>
      <point x="277" y="620" type="curve"/>
      <point x="227" y="620"/>
      <point x="194" y="654"/>
      <point x="194" y="704" type="curve"/>
      <point x="138" y="704" type="line"/>
      <point x="138" y="614"/>
      <point x="187" y="564"/>
      <point x="277" y="564" type="curve" smooth="yes"/>
      <point x="367" y="564"/>
      <point x="416" y="614"/>
      <point x="416" y="704" type="curve"/>
    </contour>
    <contour>
      <point x="277" y="494" type="move" name="top"/>
    </contour>
    <contour>
      <point x="277" y="494" type="move" name="_top"/>
    </contour>
    <contour>
      <point x="449" y="358" type="move" name="horn"/>
    </contour>
    <contour>
      <point x="277" y="0" type="move" name="bottom"/>
    </contour>
  </outline>
</glyph>
<glyph name="OE" format="1">
  <advance width="957"/>
  <unicode hex="0152"/>
  <outline>
    <contour>
      <point x="531" y="614" type="line"/>
      <point x="531" y="97" type="line"/>
      <point x="361" y="0" type="line"/>
      <point x="768" y="0" type="line" smooth="yes"/>
      <point x="788" y="0"/>
      <point x="882" y="-4"/>
      <point x="882" y="-4" type="curve"/>
      <point x="901" y="14" type="line"/>
      <point x="916" y="165" type="line"/>
      <point x="861" y="170" type="line"/>
      <point x="859" y="154"/>
      <point x="849" y="118"/>
      <point x="846" y="103" type="curve" smooth="yes"/>
      <point x="844" y="94"/>
      <point x="835" y="80"/>
      <point x="825" y="66" type="curve"/>
      <point x="803" y="62"/>
      <point x="769" y="57"/>
      <point x="738" y="57" type="curve" smooth="yes"/>
      <point x="614" y="57" type="line"/>
      <point x="612" y="76"/>
      <point x="607" y="127"/>
      <point x="607" y="167" type="curve" smooth="yes"/>
      <point x="607" y="338" type="line"/>
      <point x="683" y="338" type="line"/>
      <point x="703" y="338"/>
      <point x="763" y="332"/>
      <point x="763" y="332" type="curve"/>
      <point x="772" y="265" type="line"/>
      <point x="820" y="271" type="line"/>
      <point x="820" y="271"/>
      <point x="817" y="330"/>
      <point x="817" y="380" type="curve" smooth="yes"/>
      <point x="817" y="400"/>
      <point x="818" y="464"/>
      <point x="818" y="464" type="curve"/>
      <point x="772" y="469" type="line"/>
      <point x="763" y="403" type="line"/>
      <point x="763" y="403"/>
      <point x="723" y="394"/>
      <point x="703" y="394" type="curve"/>
      <point x="607" y="394" type="line"/>
      <point x="607" y="538" type="line" smooth="yes"/>
      <point x="607" y="577"/>
      <point x="612" y="628"/>
      <point x="614" y="649" type="curve"/>
      <point x="725" y="649" type="line" smooth="yes"/>
      <point x="753" y="649"/>
      <point x="784" y="646"/>
      <point x="806" y="644" type="curve"/>
      <point x="816" y="631"/>
      <point x="825" y="617"/>
      <point x="826" y="610" type="curve"/>
      <point x="830" y="595"/>
      <point x="835" y="572"/>
      <point x="837" y="556" type="curve"/>
      <point x="895" y="561" type="line"/>
      <point x="888" y="697" type="line"/>
      <point x="869" y="715" type="line"/>
      <point x="869" y="715"/>
      <point x="775" y="705"/>
      <point x="755" y="705" type="curve" smooth="yes"/>
      <point x="361" y="705" type="line"/>
    </contour>
    <contour>
      <point x="137" y="527"/>
      <point x="200" y="667"/>
      <point x="328" y="667" type="curve" smooth="yes"/>
      <point x="456" y="667"/>
      <point x="519" y="527"/>
      <point x="519" y="352" type="curve" smooth="yes"/>
      <point x="519" y="178"/>
      <point x="456" y="38"/>
      <point x="328" y="38" type="curve" smooth="yes"/>
      <point x="200" y="38"/>
      <point x="137" y="178"/>
      <point x="137" y="352" type="curve" smooth="yes"/>
    </contour>
    <contour>
      <point x="561" y="603" type="line"/>
      <point x="512" y="677"/>
      <point x="433" y="720"/>
      <point x="328" y="720" type="curve" smooth="yes"/>
      <point x="132" y="720"/>
      <point x="30" y="570"/>
      <point x="30" y="352" type="curve" smooth="yes"/>
      <point x="30" y="135"/>
      <point x="132" y="-15"/>
      <point x="328" y="-15" type="curve" smooth="yes"/>
      <point x="433" y="-15"/>
      <point x="512" y="28"/>
      <point x="561" y="102" type="curve"/>
    </contour>
    <contour>
      <point x="513" y="705" type="move" name="top"/>
    </contour>
  </outline>
</glyph>
<glyph name="oe" format="1">
  <advance width="854"/>
  <unicode hex="0153"/>
  <outline>
    <contour>
      <point x="544" y="503"/>
      <point x="490" y="476"/>
      <point x="454" y="430" type="curve"/>
      <point x="415" y="477"/>
      <point x="357" y="503"/>
      <point x="279" y="503" type="curve" smooth="yes"/>
      <point x="127" y="503"/>
      <point x="49" y="399"/>
      <point x="49" y="246" type="curve" smooth="yes"/>
      <point x="49" y="94"/>
      <point x="127" y="-10"/>
      <point x="279" y="-10" type="curve" smooth="yes"/>
      <point x="357" y="-10"/>
      <point x="416" y="18"/>
      <point x="454" y="65" type="curve"/>
      <point x="493" y="18"/>
      <point x="552" y="-10"/>
      <point x="630" y="-10" type="curve" smooth="yes"/>
      <point x="743" y="-10"/>
      <point x="807" y="50"/>
      <point x="807" y="50" type="curve"/>
      <point x="779" y="96" type="line"/>
      <point x="779" y="96"/>
      <point x="715" y="55"/>
      <point x="630" y="55" type="curve" smooth="yes"/>
      <point x="540" y="55"/>
      <point x="498" y="147"/>
      <point x="494" y="237" type="curve"/>
      <point x="793" y="237" type="line"/>
      <point x="810" y="270" type="line"/>
      <point x="810" y="410"/>
      <point x="758" y="503"/>
      <point x="618" y="503" type="curve" smooth="yes"/>
    </contour>
    <contour>
      <point x="382" y="446"/>
      <point x="415" y="349"/>
      <point x="415" y="246" type="curve" smooth="yes"/>
      <point x="415" y="143"/>
      <point x="382" y="47"/>
      <point x="279" y="47" type="curve" smooth="yes"/>
      <point x="176" y="47"/>
      <point x="143" y="143"/>
      <point x="143" y="246" type="curve" smooth="yes"/>
      <point x="143" y="349"/>
      <point x="176" y="446"/>
      <point x="279" y="446" type="curve" smooth="yes"/>
    </contour>
    <contour>
      <point x="685" y="451"/>
      <point x="718" y="395"/>
      <point x="718" y="324" type="curve" smooth="yes"/>
      <point x="718" y="319"/>
      <point x="717" y="304"/>
      <point x="717" y="304" type="curve"/>
      <point x="495" y="288" type="line"/>
      <point x="502" y="370"/>
      <point x="532" y="451"/>
      <point x="614" y="451" type="curve" smooth="yes"/>
    </contour>
    <contour>
      <point x="424" y="494" type="move" name="top"/>
    </contour>
  </outline>
</glyph>
<glyph name="rcaron" format="1">
  <advance width="433"/>
  <unicode hex="0159"/>
  <outline>
    <contour>
      <point x="177" y="476" type="line"/>
      <point x="158" y="494" type="line"/>
      <point x="122" y="494" type="line" smooth="yes"/>
      <point x="102" y="494"/>
      <point x="30" y="498"/>
      <point x="30" y="498" type="curve"/>
      <point x="25" y="445" type="line"/>
      <point x="101" y="429" type="line"/>
      <point x="101" y="429"/>
      <point x="111" y="373"/>
      <point x="111" y="353" type="curve" smooth="yes"/>
      <point x="111" y="137" type="line" smooth="yes"/>
      <point x="111" y="117"/>
      <point x="101" y="61"/>
      <point x="101" y="61" type="curve"/>
      <point x="25" y="45" type="line"/>
      <point x="30" y="-5" type="line"/>
      <point x="30" y="-5"/>
      <point x="121" y="0"/>
      <point x="141" y="0" type="curve" smooth="yes"/>
      <point x="221" y="0"/>
      <point x="291" y="0"/>
      <point x="291" y="0" type="curve"/>
      <point x="297" y="54" type="line"/>
      <point x="199" y="61" type="line"/>
      <point x="199" y="61"/>
      <point x="192" y="117"/>
      <point x="192" y="167" type="curve" smooth="yes"/>
      <point x="192" y="284" type="line"/>
      <point x="196" y="378"/>
      <point x="234" y="433"/>
      <point x="326" y="434" type="curve" smooth="yes"/>
      <point x="328" y="434"/>
      <point x="329" y="434"/>
      <point x="330" y="434" type="curve"/>
      <point x="337" y="413"/>
      <point x="344" y="390"/>
      <point x="344" y="384" type="curve" smooth="yes"/>
      <point x="344" y="331" type="line"/>
      <point x="402" y="328" type="line"/>
      <point x="412" y="493" type="line"/>
      <point x="412" y="493"/>
      <point x="381" y="503"/>
      <point x="344" y="503" type="curve" smooth="yes"/>
      <point x="272" y="503"/>
      <point x="222" y="474"/>
      <point x="183" y="410" type="curve"/>
    </contour>
    <contour>
      <point x="254" y="584" type="line"/>
      <point x="385" y="715" type="line"/>
      <point x="352" y="747" type="line"/>
      <point x="180" y="618" type="line"/>
      <point x="213" y="584" type="line"/>
    </contour>
    <contour>
      <point x="86" y="747" type="line"/>
      <point x="53" y="715" type="line"/>
      <point x="184" y="584" type="line"/>
      <point x="235" y="584" type="line"/>
      <point x="258" y="618" type="line"/>
    </contour>
    <contour>
      <point x="220" y="494" type="move" name="top"/>
    </contour>
    <contour>
      <point x="160" y="0" type="move" name="bottom"/>
    </contour>
    <contour>
      <point x="220" y="494" type="move" name="_top"/>
    </contour>
  </outline>
</glyph>
<glyph name="scedilla" format="1">
  <advance width="436"/>
  <unicode hex="015F"/>
  <outline>
    <contour>
      <point x="62" y="162" type="line"/>
      <point x="61" y="29" type="line"/>
      <point x="61" y="29"/>
      <point x="124" y="-10"/>
      <point x="218" y="-10" type="curve" smooth="yes"/>
      <point x="321" y="-10"/>
      <point x="387" y="31"/>
      <point x="387" y="136" type="curve" smooth="yes"/>
      <point x="387" y="294"/>
      <point x="138" y="284"/>
      <point x="138" y="386" type="curve" smooth="yes"/>
      <point x="138" y="427"/>
      <point x="169" y="451"/>
      <point x="216" y="451" type="curve" smooth="yes"/>
      <point x="243" y="451"/>
      <point x="260" y="448"/>
      <point x="280" y="439" type="curve"/>
      <point x="289" y="416"/>
      <point x="299" y="392"/>
      <point x="299" y="382" type="curve" smooth="yes"/>
      <point x="299" y="346" type="line"/>
      <point x="357" y="343" type="line"/>
      <point x="359" y="486" type="line"/>
      <point x="312" y="496"/>
      <point x="262" y="503"/>
      <point x="215" y="503" type="curve" smooth="yes"/>
      <point x="126" y="503"/>
      <point x="58" y="454"/>
      <point x="58" y="370" type="curve" smooth="yes"/>
      <point x="58" y="208"/>
      <point x="305" y="222"/>
      <point x="305" y="117" type="curve" smooth="yes"/>
      <point x="305" y="64"/>
      <point x="270" y="41"/>
      <point x="219" y="41" type="curve" smooth="yes"/>
      <point x="188" y="41"/>
      <point x="162" y="47"/>
      <point x="140" y="65" type="curve"/>
      <point x="129" y="88"/>
      <point x="120" y="114"/>
      <point x="120" y="124" type="curve" smooth="yes"/>
      <point x="120" y="134"/>
      <point x="120" y="165"/>
      <point x="120" y="165" type="curve"/>
    </contour>
    <contour>
      <point x="243" y="10" type="line"/>
      <point x="195" y="10" type="line"/>
      <point x="186" y="-94" type="line"/>
      <point x="197" y="-104" type="line"/>
      <point x="197" y="-104"/>
      <point x="212" y="-103"/>
      <point x="218" y="-103" type="curve" smooth="yes"/>
      <point x="245" y="-103"/>
      <point x="265" y="-116"/>
      <point x="265" y="-146" type="curve" smooth="yes"/>
      <point x="265" y="-176"/>
      <point x="243" y="-193"/>
      <point x="211" y="-193" type="curve" smooth="yes"/>
      <point x="191" y="-193"/>
      <point x="169" y="-187"/>
      <point x="153" y="-182" type="curve"/>
      <point x="140" y="-217" type="line"/>
      <point x="157" y="-225"/>
      <point x="186" y="-235"/>
      <point x="223" y="-235" type="curve" smooth="yes"/>
      <point x="282" y="-235"/>
      <point x="330" y="-200"/>
      <point x="330" y="-146" type="curve" smooth="yes"/>
      <point x="330" y="-92"/>
      <point x="288" y="-60"/>
      <point x="229" y="-59" type="curve"/>
    </contour>
    <contour>
      <point x="215" y="0" type="move" name="_bottom"/>
    </contour>
    <contour>
      <point x="215" y="0" type="move" name="bottom"/>
    </contour>
    <contour>
      <point x="218" y="494" type="move" name="top"/>
    </contour>
  </outline>
</glyph>
<glyph name="Scaron" format="1">
  <advance width="519"/>
  <unicode hex="0160"/>
  <outline>
    <contour>
      <point x="47" y="192" type="line"/>
      <point x="32" y="38" type="line"/>
      <point x="32" y="38"/>
      <point x="118" y="-15"/>
      <point x="252" y="-15" type="curve" smooth="yes"/>
      <point x="384" y="-15"/>
      <point x="491" y="49"/>
      <point x="491" y="182" type="curve" smooth="yes"/>
      <point x="491" y="409"/>
      <point x="145" y="397"/>
      <point x="145" y="554" type="curve" smooth="yes"/>
      <point x="145" y="628"/>
      <point x="197" y="665"/>
      <point x="259" y="665" type="curve" smooth="yes"/>
      <point x="304" y="665"/>
      <point x="336" y="661"/>
      <point x="378" y="643" type="curve"/>
      <point x="384" y="620"/>
      <point x="391" y="596"/>
      <point x="391" y="587" type="curve" smooth="yes"/>
      <point x="391" y="577"/>
      <point x="391" y="543"/>
      <point x="391" y="543" type="curve"/>
      <point x="450" y="537" type="line"/>
      <point x="464" y="688" type="line"/>
      <point x="400" y="704"/>
      <point x="327" y="720"/>
      <point x="262" y="720" type="curve" smooth="yes"/>
      <point x="138" y="720"/>
      <point x="45" y="655"/>
      <point x="45" y="535" type="curve" smooth="yes"/>
      <point x="45" y="319"/>
      <point x="386" y="334"/>
      <point x="386" y="170" type="curve" smooth="yes"/>
      <point x="386" y="89"/>
      <point x="334" y="45"/>
      <point x="254" y="45" type="curve" smooth="yes"/>
      <point x="205" y="45"/>
      <point x="159" y="58"/>
      <point x="124" y="72" type="curve"/>
      <point x="119" y="94"/>
      <point x="113" y="126"/>
      <point x="113" y="138" type="curve" smooth="yes"/>
      <point x="113" y="153"/>
      <point x="113" y="186"/>
      <point x="113" y="186" type="curve"/>
    </contour>
    <contour>
      <point x="306" y="749" type="line"/>
      <point x="447" y="836" type="line"/>
      <point x="423" y="875" type="line"/>
      <point x="232" y="788" type="line"/>
      <point x="265" y="749" type="line"/>
    </contour>
    <contour>
      <point x="313" y="788" type="line"/>
      <point x="122" y="875" type="line"/>
      <point x="98" y="836" type="line"/>
      <point x="239" y="749" type="line"/>
      <point x="280" y="749" type="line"/>
    </contour>
    <contour>
      <point x="272" y="396" type="move" name="_top_caps"/>
    </contour>
    <contour>
      <point x="248" y="0" type="move" name="bottom"/>
    </contour>
    <contour>
      <point x="272" y="705" type="move" name="top"/>
    </contour>
  </outline>
</glyph>
<glyph name="Tbar" format="1">
  <advance width="628"/>
  <unicode hex="0166"/>
  <outline>
    <contour>
      <point x="500" y="397" type="line"/>
      <point x="100" y="397" type="line"/>
      <point x="100" y="353" type="line"/>
      <point x="500" y="353" type="line"/>
    </contour>
    <contour>
      <point x="15" y="692" type="line"/>
      <point x="8" y="528" type="line"/>
      <point x="66" y="523" type="line"/>
      <point x="68" y="549"/>
      <point x="75" y="592"/>
      <point x="79" y="607" type="curve"/>
      <point x="97" y="644" type="line"/>
      <point x="119" y="646"/>
      <point x="150" y="649"/>
      <point x="178" y="649" type="curve"/>
      <point x="413" y="649" type="line"/>
      <point x="441" y="649"/>
      <point x="472" y="646"/>
      <point x="494" y="644" type="curve"/>
      <point x="512" y="607" type="line"/>
      <point x="516" y="592"/>
      <point x="523" y="549"/>
      <point x="525" y="523" type="curve"/>
      <point x="583" y="528" type="line"/>
      <point x="576" y="692" type="line"/>
      <point x="557" y="710" type="line"/>
      <point x="557" y="710"/>
      <point x="463" y="705"/>
      <point x="443" y="705" type="curve" smooth="yes"/>
      <point x="148" y="705" type="line" smooth="yes"/>
      <point x="128" y="705"/>
      <point x="34" y="710"/>
      <point x="34" y="710" type="curve"/>
    </contour>
    <contour>
      <point x="243" y="637"/>
      <point x="250" y="585"/>
      <point x="250" y="568" type="curve" smooth="yes"/>
      <point x="250" y="137" type="line" smooth="yes"/>
      <point x="250" y="120"/>
      <point x="243" y="74"/>
      <point x="241" y="61" type="curve"/>
      <point x="152" y="45" type="line"/>
      <point x="157" y="-5" type="line"/>
      <point x="157" y="-5"/>
      <point x="277" y="0"/>
      <point x="302" y="0" type="curve"/>
      <point x="441" y="0" type="line"/>
      <point x="448" y="54" type="line"/>
      <point x="348" y="61" type="line"/>
      <point x="346" y="75"/>
      <point x="341" y="125"/>
      <point x="341" y="167" type="curve" smooth="yes"/>
      <point x="341" y="538" type="line" smooth="yes"/>
      <point x="341" y="580"/>
      <point x="346" y="636"/>
      <point x="348" y="650" type="curve"/>
      <point x="241" y="650" type="line"/>
    </contour>
    <contour>
      <point x="296" y="353" type="move" name="center"/>
    </contour>
    <contour>
      <point x="300" y="0" type="move" name="bottom"/>
    </contour>
    <contour>
      <point x="296" y="705" type="move" name="top"/>
    </contour>
  </outline>
</glyph>
<glyph name="tbar" format="1">
  <advance width="372"/>
  <unicode hex="0167"/>
  <outline>
    <contour>
      <point x="35" y="340" type="line"/>
      <point x="35" y="296" type="line"/>
      <point x="319" y="296" type="line"/>
      <point x="319" y="340" type="line"/>
    </contour>
    <contour>
      <point x="319" y="83" type="line"/>
      <point x="319" y="83"/>
      <point x="276" y="54"/>
      <point x="240" y="54" type="curve" smooth="yes"/>
      <point x="203" y="54"/>
      <point x="186" y="82"/>
      <point x="186" y="132" type="curve" smooth="yes"/>
      <point x="186" y="440" type="line"/>
      <point x="321" y="440" type="line"/>
      <point x="326" y="494" type="line"/>
      <point x="186" y="494" type="line"/>
      <point x="186" y="597" type="line"/>
      <point x="151" y="601" type="line"/>
      <point x="151" y="601"/>
      <point x="113" y="521"/>
      <point x="105" y="511" type="curve"/>
      <point x="25" y="482" type="line"/>
      <point x="28" y="440" type="line"/>
      <point x="105" y="440" type="line"/>
      <point x="105" y="156" type="line" smooth="yes"/>
      <point x="105" y="46"/>
      <point x="134" y="-10"/>
      <point x="229" y="-10" type="curve" smooth="yes"/>
      <point x="279" y="-10"/>
      <point x="315" y="17"/>
      <point x="347" y="42" type="curve"/>
    </contour>
    <contour>
      <point x="177" y="247" type="move" name="center"/>
    </contour>
    <contour>
      <point x="207" y="0" type="move" name="bottom"/>
    </contour>
  </outline>
</glyph>
<glyph name="utilde" format="1">
  <advance width="574"/>
  <unicode hex="0169"/>
  <outline>
    <contour>
      <point x="315" y="445" type="line"/>
      <point x="386" y="429" type="line"/>
      <point x="386" y="429"/>
      <point x="396" y="373"/>
      <point x="396" y="353" type="curve" smooth="yes"/>
      <point x="396" y="210" type="line" smooth="yes"/>
      <point x="396" y="130"/>
      <point x="352" y="54"/>
      <point x="270" y="54" type="curve" smooth="yes"/>
      <point x="196" y="54"/>
      <point x="171" y="109"/>
      <point x="171" y="183" type="curve" smooth="yes"/>
      <point x="171" y="323" type="line" smooth="yes"/>
      <point x="171" y="373"/>
      <point x="178" y="476"/>
      <point x="178" y="476" type="curve"/>
      <point x="159" y="494" type="line"/>
      <point x="101" y="494" type="line" smooth="yes"/>
      <point x="81" y="494"/>
      <point x="19" y="498"/>
      <point x="19" y="498" type="curve"/>
      <point x="14" y="445" type="line"/>
      <point x="80" y="429" type="line"/>
      <point x="80" y="429"/>
      <point x="90" y="373"/>
      <point x="90" y="353" type="curve" smooth="yes"/>
      <point x="90" y="217" type="line" smooth="yes"/>
      <point x="90" y="82"/>
      <point x="114" y="-10"/>
      <point x="252" y="-10" type="curve" smooth="yes"/>
      <point x="345" y="-10"/>
      <point x="388" y="45"/>
      <point x="407" y="78" type="curve"/>
      <point x="420" y="0" type="line"/>
      <point x="500" y="0"/>
      <point x="550" y="0"/>
      <point x="550" y="0" type="curve"/>
      <point x="556" y="54" type="line"/>
      <point x="487" y="61" type="line"/>
      <point x="487" y="61"/>
      <point x="477" y="117"/>
      <point x="477" y="167" type="curve" smooth="yes"/>
      <point x="477" y="323" type="line" smooth="yes"/>
      <point x="477" y="373"/>
      <point x="484" y="476"/>
      <point x="484" y="476" type="curve"/>
      <point x="465" y="494" type="line"/>
      <point x="407" y="494" type="line" smooth="yes"/>
      <point x="387" y="494"/>
      <point x="320" y="498"/>
      <point x="320" y="498" type="curve"/>
    </contour>
    <contour>
      <point x="392" y="714" type="line"/>
      <point x="392" y="714"/>
      <point x="366" y="664"/>
      <point x="339" y="664" type="curve" smooth="yes"/>
      <point x="299" y="664"/>
      <point x="224" y="705"/>
      <point x="184" y="705" type="curve" smooth="yes"/>
      <point x="144" y="705"/>
      <point x="102" y="603"/>
      <point x="102" y="603" type="curve"/>
      <point x="138" y="582" type="line"/>
      <point x="138" y="582"/>
      <point x="164" y="635"/>
      <point x="191" y="635" type="curve" smooth="yes"/>
      <point x="231" y="635"/>
      <point x="305" y="594"/>
      <point x="345" y="594" type="curve" smooth="yes"/>
      <point x="385" y="594"/>
      <point x="428" y="693"/>
      <point x="428" y="693" type="curve"/>
    </contour>
    <contour>
      <point x="550" y="0" type="move" name="ogonek"/>
    </contour>
    <contour>
      <point x="265" y="494" type="move" name="top"/>
    </contour>
    <contour>
      <point x="265" y="494" type="move" name="_top"/>
    </contour>
    <contour>
      <point x="463" y="358" type="move" name="horn"/>
    </contour>
    <contour>
      <point x="291" y="0" type="move" name="bottom"/>
    </contour>
  </outline>
</glyph>
<glyph name="uring" format="1">
  <advance width="574"/>
  <unicode hex="016F"/>
  <outline>
    <contour>
      <point x="315" y="445" type="line"/>
      <point x="386" y="429" type="line"/>
      <point x="386" y="429"/>
      <point x="396" y="373"/>
      <point x="396" y="353" type="curve" smooth="yes"/>
      <point x="396" y="210" type="line" smooth="yes"/>
      <point x="396" y="130"/>
      <point x="352" y="54"/>
      <point x="270" y="54" type="curve" smooth="yes"/>
      <point x="196" y="54"/>
      <point x="171" y="109"/>
      <point x="171" y="183" type="curve" smooth="yes"/>
      <point x="171" y="323" type="line" smooth="yes"/>
      <point x="171" y="373"/>
      <point x="178" y="476"/>
      <point x="178" y="476" type="curve"/>
      <point x="159" y="494" type="line"/>
      <point x="101" y="494" type="line" smooth="yes"/>
      <point x="81" y="494"/>
      <point x="19" y="498"/>
      <point x="19" y="498" type="curve"/>
      <point x="14" y="445" type="line"/>
      <point x="80" y="429" type="line"/>
      <point x="80" y="429"/>
      <point x="90" y="373"/>
      <point x="90" y="353" type="curve" smooth="yes"/>
      <point x="90" y="217" type="line" smooth="yes"/>
      <point x="90" y="82"/>
      <point x="114" y="-10"/>
      <point x="252" y="-10" type="curve" smooth="yes"/>
      <point x="345" y="-10"/>
      <point x="388" y="45"/>
      <point x="407" y="78" type="curve"/>
      <point x="420" y="0" type="line"/>
      <point x="500" y="0"/>
      <point x="550" y="0"/>
      <point x="550" y="0" type="curve"/>
      <point x="556" y="54" type="line"/>
      <point x="487" y="61" type="line"/>
      <point x="487" y="61"/>
      <point x="477" y="117"/>
      <point x="477" y="167" type="curve" smooth="yes"/>
      <point x="477" y="323" type="line" smooth="yes"/>
      <point x="477" y="373"/>
      <point x="484" y="476"/>
      <point x="484" y="476" type="curve"/>
      <point x="465" y="494" type="line"/>
      <point x="407" y="494" type="line" smooth="yes"/>
      <point x="387" y="494"/>
      <point x="320" y="498"/>
      <point x="320" y="498" type="curve"/>
    </contour>
    <contour>
      <point x="205" y="715"/>
      <point x="175" y="681"/>
      <point x="175" y="629" type="curve" smooth="yes"/>
      <point x="175" y="578"/>
      <point x="205" y="544"/>
      <point x="265" y="544" type="curve" smooth="yes"/>
      <point x="325" y="544"/>
      <point x="354" y="578"/>
      <point x="354" y="629" type="curve" smooth="yes"/>
      <point x="354" y="681"/>
      <point x="325" y="715"/>
      <point x="265" y="715" type="curve" smooth="yes"/>
    </contour>
    <contour>
      <point x="296" y="677"/>
      <point x="307" y="655"/>
      <point x="307" y="629" type="curve" smooth="yes"/>
      <point x="307" y="604"/>
      <point x="296" y="582"/>
      <point x="265" y="582" type="curve" smooth="yes"/>
      <point x="236" y="582"/>
      <point x="224" y="604"/>
      <point x="224" y="629" type="curve" smooth="yes"/>
      <point x="224" y="655"/>
      <point x="236" y="677"/>
      <point x="265" y="677" type="curve" smooth="yes"/>
    </contour>
    <contour>
      <point x="550" y="0" type="move" name="ogonek"/>
    </contour>
    <contour>
      <point x="265" y="494" type="move" name="top"/>
    </contour>
    <contour>
      <point x="265" y="494" type="move" name="_top"/>
    </contour>
    <contour>
      <point x="463" y="358" type="move" name="horn"/>
    </contour>
    <contour>
      <point x="291" y="0" type="move" name="bottom"/>
    </contour>
  </outline>
</glyph>
<glyph name="uogonek" format="1">
  <advance width="574"/>
  <unicode hex="0173"/>
  <outline>
    <contour>
      <point x="315" y="445" type="line"/>
      <point x="386" y="429" type="line"/>
      <point x="386" y="429"/>
      <point x="396" y="373"/>
      <point x="396" y="353" type="curve" smooth="yes"/>
      <point x="396" y="210" type="line" smooth="yes"/>
      <point x="396" y="130"/>
      <point x="352" y="54"/>
      <point x="270" y="54" type="curve" smooth="yes"/>
      <point x="196" y="54"/>
      <point x="171" y="109"/>
      <point x="171" y="183" type="curve" smooth="yes"/>
      <point x="171" y="323" type="line" smooth="yes"/>
      <point x="171" y="373"/>
      <point x="178" y="476"/>
      <point x="178" y="476" type="curve"/>
      <point x="159" y="494" type="line"/>
      <point x="101" y="494" type="line" smooth="yes"/>
      <point x="81" y="494"/>
      <point x="19" y="498"/>
      <point x="19" y="498" type="curve"/>
      <point x="14" y="445" type="line"/>
      <point x="80" y="429" type="line"/>
      <point x="80" y="429"/>
      <point x="90" y="373"/>
      <point x="90" y="353" type="curve" smooth="yes"/>
      <point x="90" y="217" type="line" smooth="yes"/>
      <point x="90" y="82"/>
      <point x="114" y="-10"/>
      <point x="252" y="-10" type="curve" smooth="yes"/>
      <point x="345" y="-10"/>
      <point x="388" y="45"/>
      <point x="407" y="78" type="curve"/>
      <point x="420" y="0" type="line"/>
      <point x="500" y="0"/>
      <point x="550" y="0"/>
      <point x="550" y="0" type="curve"/>
      <point x="556" y="54" type="line"/>
      <point x="487" y="61" type="line"/>
      <point x="487" y="61"/>
      <point x="477" y="117"/>
      <point x="477" y="167" type="curve" smooth="yes"/>
      <point x="477" y="323" type="line" smooth="yes"/>
      <point x="477" y="373"/>
      <point x="484" y="476"/>
      <point x="484" y="476" type="curve"/>
      <point x="465" y="494" type="line"/>
      <point x="407" y="494" type="line" smooth="yes"/>
      <point x="387" y="494"/>
      <point x="320" y="498"/>
      <point x="320" y="498" type="curve"/>
    </contour>
    <contour>
      <point x="402" y="-29"/>
      <point x="373" y="-74"/>
      <point x="373" y="-120" type="curve" smooth="yes"/>
      <point x="373" y="-189"/>
      <point x="437" y="-211"/>
      <point x="488" y="-211" type="curve" smooth="yes"/>
      <point x="510" y="-211"/>
      <point x="534" y="-206"/>
      <point x="552" y="-199" type="curve"/>
      <point x="541" y="-156" type="line"/>
      <point x="530" y="-159"/>
      <point x="518" y="-161"/>
      <point x="507" y="-161" type="curve" smooth="yes"/>
      <point x="467" y="-161"/>
      <point x="448" y="-141"/>
      <point x="448" y="-115" type="curve" smooth="yes"/>
      <point x="448" y="-78"/>
      <point x="486" y="-26"/>
      <point x="550" y="0" type="curve"/>
      <point x="484" y="10" type="line"/>
    </contour>
    <contour>
      <point x="550" y="0" type="move" name="_ogonek"/>
    </contour>
    <contour>
      <point x="550" y="0" type="move" name="ogonek"/>
    </contour>
    <contour>
      <point x="265" y="494" type="move" name="top"/>
    </contour>
    <contour>
      <point x="463" y="358" type="move" name="horn"/>
    </contour>
    <contour>
      <point x="291" y="0" type="move" name="bottom"/>
    </contour>
  </outline>
</glyph>
